{
.appVersion = "3413";
.formatVersion = 3;
DisplayStrings = (
"‐",
"Lorem ipsum dolor sit amet, consectetuer adipiscing elit. Aenean commodo ligula eget dolor. Aenean massa. Cum sociis natoque penatibus et magnis dis parturient montes, nascetur ridiculus mus. Donec quam felis, ultricies nec, pellentesque eu, pretium quis, sem. Nulla consequat massa quis enim. Donec pede justo, fringilla vel, aliquet nec, vulputate eget, arcu. In enim justo, rhoncus ut, imperdiet a, venenatis vitae, justo. Nullam dictum felis eu pede mollis pretium. Integer tincidunt. Cras dapibus. Vivamus elementum semper nisi. Aenean vulputate eleifend tellus. Aenean leo ligula, porttitor eu, consequat vitae, eleifend ac, enim. Aliquam lorem ante, dapibus in, viverra quis, feugiat a, tellus. Phasellus viverra nulla ut metus varius laoreet. Quisque rutrum. Aenean imperdiet. Etiam ultricies nisi vel augue. Curabitur ullamcorper ultricies nisi. Nam eget dui. Etiam rhoncus. Maecenas tempus, tellus eget condimentum rhoncus, sem quam semper libero, sit amet adipiscing sem neque sed ipsum. Nam quam nunc, blandit vel, luctus pulvinar, hendrerit id, lorem. Maecenas nec odio et ante tincidunt tempus. Donec vitae sapien ut libero venenatis faucibus. Nullam quis ante. Etiam sit amet orci eget eros faucibus tincidunt. Duis leo. Sed fringilla mauris sit amet nibh."
);
axes = (
{
name = Weight;
tag = wght;
},
{
name = Width;
tag = wdth;
}
);
classes = (
{
automatic = 1;

glyphs = (
{
glyphname = A;
lastChange = "2025-04-24 16:54:05 +0000";
layers = (
{
anchors = (
{
name = bottom;
pos = (351,0);
},
{
name = ogonek;
pos = (632,10);
},
{
name = top;
pos = (360,616);
}
);
color = 4;
layerId = m005;
shapes = (
{
closed = 1;
nodes = (
(684,0,l),
(684,25,l),
(614,39,o),
(593,64,o),
(563,135,cs),
(495,306,o),
(428,477,o),
(360,648,c),
(320,576,l),
(313,550,l),
(470,139,ls),
(507,42,o),
(496,43,o),
(414,25,c),
(414,0,l)
);
},
{
closed = 1;
nodes = (
(270,0,l),
(270,25,l),
(195,31,o),
(167,57,o),
(194,130,cs),
(353,564,l),
(320,576,l),
(255,404,o),
(187,198,o),
(125,83,cs),
(106,49,o),
(62,25,o),
(18,25,c),
(18,0,l)
);
},
{
closed = 1;
nodes = (
(468,258,l),
(454,298,l),
(231,298,l),
(214,258,l)
);
}
);
width = 702;
},
{
anchors = (
{
name = bottom;
pos = (402,0);
},
{
name = ogonek;
pos = (712,10);
},
{
name = top;
pos = (402,634);
}
);
background = {
shapes = (
{
closed = 1;
nodes = (
(681,0,l),
(681,25,l),
(611,39,o),
(590,64,o),
(560,135,cs),
(492,306,o),
(425,477,o),
(357,648,c),
(317,576,l),
(310,550,l),
(467,139,ls),
(504,42,o),
(493,43,o),
(411,25,c),
(411,0,l)
);
},
{
closed = 1;
nodes = (
(267,0,l),
(267,25,l),
(192,31,o),
(164,57,o),
(191,130,cs),
(350,564,l),
(317,576,l),
(252,404,o),
(184,198,o),
(122,83,cs),
(103,49,o),
(59,25,o),
(15,25,c),
(15,0,l)
);
},
{
closed = 1;
nodes = (
(465,258,l),
(451,298,l),
(228,298,l),
(211,258,l)
);
},
{
closed = 1;
nodes = (
(753,18,l),
(753,43,l),
(683,57,o),
(662,82,o),
(632,153,cs),
(564,324,o),
(497,495,o),
(429,666,c),
(389,594,l),
(382,568,l),
(539,157,ls),
(576,60,o),
(565,61,o),
(483,43,c),
(483,18,l)
);
},
{
closed = 1;
nodes = (
(339,18,l),
(339,43,l),
(264,49,o),
(236,75,o),
(263,148,cs),
(422,582,l),
(389,594,l),
(324,422,o),
(256,216,o),
(194,101,cs),
(175,67,o),
(131,43,o),
(87,43,c),
(87,18,l)
);
},
{
closed = 1;
nodes = (
(537,276,l),
(523,316,l),
(300,316,l),
(283,276,l)
);
}
);
};
color = 4;
layerId = m002;
shapes = (
{
closed = 1;
nodes = (
(771,0,l),
(771,25,l),
(701,39,o),
(698,64,o),
(668,135,cs),
(600,306,o),
(551,495,o),
(483,666,c),
(325,633,l),
(354,607,l),
(511,139,ls),
(544,40,o),
(537,43,o),
(455,25,c),
(455,0,l)
);
},
{
closed = 1;
nodes = (
(303,0,l),
(303,25,l),
(228,31,o),
(203,58,o),
(227,130,cs),
(394,621,l),
(325,633,l),
(260,461,o),
(184,198,o),
(122,83,cs),
(103,49,o),
(59,25,o),
(15,25,c),
(15,0,l)
);
},
{
closed = 1;
nodes = (
(501,240,l),
(487,298,l),
(228,298,l),
(211,240,l)
);
}
);
width = 786;
},
{
anchors = (
{
name = bottom;
pos = (354,0);
},
{
name = ogonek;
pos = (635,10);
},
{
name = top;
pos = (363,616);
}
);
color = 4;
layerId = m006;
shapes = (
{
closed = 1;
nodes = (
(687,0,l),
(687,25,l),
(617,39,o),
(596,64,o),
(566,135,cs),
(498,306,o),
(431,477,o),
(363,648,c),
(323,576,l),
(316,550,l),
(473,139,ls),
(510,42,o),
(499,43,o),
(417,25,c),
(417,0,l)
);
},
{
closed = 1;
nodes = (
(273,0,l),
(273,25,l),
(198,31,o),
(170,57,o),
(197,130,cs),
(356,564,l),
(323,576,l),
(258,404,o),
(190,198,o),
(128,83,cs),
(109,49,o),
(65,25,o),
(21,25,c),
(21,0,l)
);
},
{
closed = 1;
nodes = (
(471,258,l),
(457,298,l),
(234,298,l),
(217,258,l)
);
}
);
width = 708;
},
{
anchors = (
{
name = bottom;
pos = (349,0);
},
{
name = ogonek;
pos = (630,10);
},
{
name = top;
pos = (358,616);
}
);
color = 4;
layerId = m007;
shapes = (
{
closed = 1;
nodes = (
(682,0,l),
(682,25,l),
(612,39,o),
(591,64,o),
(561,135,cs),
(493,306,o),
(426,477,o),
(358,648,c),
(318,576,l),
(311,550,l),
(468,139,ls),
(505,42,o),
(494,43,o),
(412,25,c),
(412,0,l)
);
},
{
closed = 1;
nodes = (
(268,0,l),
(268,25,l),
(193,31,o),
(165,57,o),
(192,130,cs),
(351,564,l),
(318,576,l),
(253,404,o),
(185,198,o),
(123,83,cs),
(104,49,o),
(60,25,o),
(16,25,c),
(16,0,l)
);
},
{
closed = 1;
nodes = (
(466,258,l),
(452,298,l),
(229,298,l),
(212,258,l)
);
}
);
width = 698;
}
);
unicode = 65;
},
{
glyphname = AE;
lastChange = "2025-03-23 19:29:39 +0000";
layers = (
{
anchors = (
{
name = bottom;
pos = (450,0);
},
{
name = top;
pos = (450,616);
}
);
color = 10;
layerId = m005;
shapes = (
{
closed = 1;
nodes = (
(270,0,l),
(270,23,l),
(193,23,o),
(156,60,o),
(195,130,cs),
(457,596,l),
(406,617,l),
(325,451,o),
(185,198,o),
(123,83,cs),
(104,49,o),
(60,25,o),
(18,25,c),
(18,0,l)
);
},
{
closed = 1;
nodes = (
(528,274,l),
(514,314,l),
(253,314,l),
(236,274,l)
);
},
{
closed = 1;
nodes = (
(401,-1,o),
(449,0,o),
(494,0,c),
(639,0,o),
(765,-1,o),
(842,-3,c),
(856,44,o),
(866,110,o),
(866,157,c),
(837,157,l),
(825,90,o),
(786,45,o),
(743,42,cs),
(711,40,o),
(679,39,o),
(624,39,cs),
(586,39,o),
(554,51,o),
(546,68,cs),
(543,74,o),
(541,90,o),
(541,107,cs),
(539,309,ls),
(539,328,o),
(541,407,o),
(541,509,c),
(541,577,l),
(619,577,o),
(623,579,o),
(692,575,cs),
(717,573,o),
(740,544,o),
(748,499,c),
(782,499,l),
(783,536,o),
(788,586,o),
(795,619,c),
(730,617,o),
(627,616,o),
(504,616,c),
(455,616,o),
(358,617,o),
(333,619,c),
(330,598,l),
(372,586,o),
(380,574,o),
(393,567,c),
(464,567,l),
(465,312,l),
(463,91,ls),
(463,64,o),
(451,40,o),
(435,32,cs),
(433,31,o),
(413,25,o),
(378,21,c),
(378,-3,l)
);
},
{
closed = 1;
nodes = (
(729,184,l),
(723,250,o),
(723,342,o),
(729,408,c),
(701,408,l),
(700,402,o),
(697,388,o),
(692,374,c),
(678,338,o),
(684,314,o),
(626,314,cs),
(486,314,l),
(486,274,l),
(626,274,ls),
(691,274,o),
(683,253,o),
(693,220,cs),
(697,208,o),
(700,196,o),
(703,184,c)
);
}
);
width = 900;
},
{
anchors = (
{
name = bottom;
pos = (504,0);
},
{
name = top;
pos = (504,634);
}
);
background = {
shapes = (
{
closed = 1;
nodes = (
(988,44,o),
(998,110,o),
(1000,157,c),
(953,157,l),
(941,90,o),
(902,43,o),
(859,40,cs),
(827,38,o),
(781,37,o),
(724,37,cs),
(690,37,o),
(674,42,o),
(663,52,cs),
(653,62,o),
(650,76,o),
(650,96,cs),
(650,265,o),
(649,416,o),
(651,594,c),
(688,596,o),
(717,596,o),
(739,596,cs),
(767,596,o),
(802,596,o),
(834,594,cs),
(859,592,o),
(882,562,o),
(890,481,c),
(942,481,l),
(943,554,o),
(948,604,o),
(955,637,c),
(890,635,o),
(729,634,o),
(536,634,cs),
(487,634,o),
(435,635,o),
(406,636,c),
(406,607,l),
(441,602,o),
(465,599,o),
(480,585,cs),
(489,576,o),
(495,562,o),
(495,539,cs),
(497,376,o),
(497,236,o),
(495,91,cs),
(495,67,o),
(490,52,o),
(480,42,cs),
(466,29,o),
(443,26,o),
(406,23,c),
(406,-2,l),
(526,0,ls),
(741,4,o),
(899,-1,o),
(976,-3,c)
);
},
{
closed = 1;
nodes = (
(845,206,l),
(839,272,o),
(839,364,o),
(845,430,c),
(792,430,l),
(791,424,o),
(786,410,o),
(781,396,c),
(764,360,o),
(705,336,o),
(663,336,cs),
(529,336,l),
(529,296,l),
(663,296,ls),
(748,296,o),
(770,274,o),
(782,242,cs),
(793,206,l)
);
}
);
};
color = 10;
layerId = m002;
shapes = (
{
closed = 1;
nodes = (
(288,0,l),
(288,23,l),
(211,23,o),
(175,60,o),
(213,130,cs),
(475,614,l),
(402,635,l),
(321,469,o),
(167,198,o),
(105,83,cs),
(86,49,o),
(42,25,o),
(0,25,c),
(0,0,l)
);
},
{
closed = 1;
nodes = (
(582,274,l),
(586,332,l),
(271,332,l),
(272,274,l)
);
},
{
closed = 1;
nodes = (
(419,-1,o),
(503,0,o),
(548,0,c),
(729,0,o),
(861,-2,o),
(956,-4,c),
(970,43,o),
(980,109,o),
(980,156,c),
(935,157,l),
(923,90,o),
(884,43,o),
(841,40,cs),
(809,38,o),
(761,37,o),
(706,37,cs),
(668,37,o),
(644,51,o),
(636,68,cs),
(633,74,o),
(631,90,o),
(631,107,cs),
(629,309,ls),
(629,328,o),
(631,425,o),
(631,527,c),
(631,595,l),
(709,595,o),
(747,598,o),
(816,594,cs),
(839,592,o),
(863,562,o),
(873,481,c),
(924,481,l),
(925,518,o),
(930,604,o),
(937,637,c),
(872,635,o),
(717,634,o),
(558,634,c),
(509,634,o),
(354,635,o),
(329,637,c),
(326,616,l),
(368,604,o),
(376,592,o),
(389,585,c),
(482,585,l),
(483,312,l),
(481,91,ls),
(481,64,o),
(469,40,o),
(453,32,cs),
(451,31,o),
(431,25,o),
(360,21,c),
(360,-3,l)
);
},
{
closed = 1;
nodes = (
(828,184,l),
(822,250,o),
(822,360,o),
(828,426,c),
(774,426,l),
(773,420,o),
(770,406,o),
(765,392,c),
(751,356,o),
(739,332,o),
(681,332,cs),
(523,332,l),
(523,274,l),
(681,274,ls),
(746,274,o),
(756,253,o),
(766,220,cs),
(770,208,o),
(773,196,o),
(776,184,c)
);
}
);
width = 1008;
},
{
anchors = (
{
name = bottom;
pos = (450,0);
},
{
name = top;
pos = (450,616);
}
);
color = 10;
layerId = m006;
shapes = (
{
closed = 1;
nodes = (
(270,0,l),
(270,23,l),
(193,23,o),
(156,60,o),
(195,130,cs),
(457,596,l),
(406,617,l),
(325,451,o),
(185,198,o),
(123,83,cs),
(104,49,o),
(60,25,o),
(18,25,c),
(18,0,l)
);
},
{
closed = 1;
nodes = (
(528,274,l),
(514,314,l),
(253,314,l),
(236,274,l)
);
},
{
closed = 1;
nodes = (
(401,-1,o),
(449,0,o),
(494,0,c),
(639,0,o),
(765,-1,o),
(842,-3,c),
(856,44,o),
(866,110,o),
(866,157,c),
(837,157,l),
(825,90,o),
(786,45,o),
(743,42,cs),
(711,40,o),
(679,39,o),
(624,39,cs),
(586,39,o),
(554,51,o),
(546,68,cs),
(543,74,o),
(541,90,o),
(541,107,cs),
(539,309,ls),
(539,328,o),
(541,407,o),
(541,509,c),
(541,577,l),
(619,577,o),
(623,579,o),
(692,575,cs),
(717,573,o),
(740,544,o),
(748,499,c),
(782,499,l),
(783,536,o),
(788,586,o),
(795,619,c),
(730,617,o),
(627,616,o),
(504,616,c),
(455,616,o),
(358,617,o),
(333,619,c),
(330,598,l),
(372,586,o),
(380,574,o),
(393,567,c),
(464,567,l),
(465,312,l),
(463,91,ls),
(463,64,o),
(451,40,o),
(435,32,cs),
(433,31,o),
(413,25,o),
(378,21,c),
(378,-3,l)
);
},
{
closed = 1;
nodes = (
(729,184,l),
(723,250,o),
(723,342,o),
(729,408,c),
(701,408,l),
(700,402,o),
(697,388,o),
(692,374,c),
(678,338,o),
(684,314,o),
(626,314,cs),
(486,314,l),
(486,274,l),
(626,274,ls),
(691,274,o),
(683,253,o),
(693,220,cs),
(697,208,o),
(700,196,o),
(703,184,c)
);
}
);
width = 900;
},
{
anchors = (
{
name = bottom;
pos = (450,0);
},
{
name = top;
pos = (450,616);
}
);
color = 10;
layerId = m007;
shapes = (
{
closed = 1;
nodes = (
(270,0,l),
(270,23,l),
(193,23,o),
(156,60,o),
(195,130,cs),
(457,596,l),
(406,617,l),
(325,451,o),
(185,198,o),
(123,83,cs),
(104,49,o),
(60,25,o),
(18,25,c),
(18,0,l)
);
},
{
closed = 1;
nodes = (
(528,274,l),
(514,314,l),
(253,314,l),
(236,274,l)
);
},
{
closed = 1;
nodes = (
(401,-1,o),
(449,0,o),
(494,0,c),
(639,0,o),
(765,-1,o),
(842,-3,c),
(856,44,o),
(866,110,o),
(866,157,c),
(837,157,l),
(825,90,o),
(786,45,o),
(743,42,cs),
(711,40,o),
(679,39,o),
(624,39,cs),
(586,39,o),
(554,51,o),
(546,68,cs),
(543,74,o),
(541,90,o),
(541,107,cs),
(539,309,ls),
(539,328,o),
(541,407,o),
(541,509,c),
(541,577,l),
(619,577,o),
(623,579,o),
(692,575,cs),
(717,573,o),
(740,544,o),
(748,499,c),
(782,499,l),
(783,536,o),
(788,586,o),
(795,619,c),
(730,617,o),
(627,616,o),
(504,616,c),
(455,616,o),
(358,617,o),
(333,619,c),
(330,598,l),
(372,586,o),
(380,574,o),
(393,567,c),
(464,567,l),
(465,312,l),
(463,91,ls),
(463,64,o),
(451,40,o),
(435,32,cs),
(433,31,o),
(413,25,o),
(378,21,c),
(378,-3,l)
);
},
{
closed = 1;
nodes = (
(729,184,l),
(723,250,o),
(723,342,o),
(729,408,c),
(701,408,l),
(700,402,o),
(697,388,o),
(692,374,c),
(678,338,o),
(684,314,o),
(626,314,cs),
(486,314,l),
(486,274,l),
(626,274,ls),
(691,274,o),
(683,253,o),
(693,220,cs),
(697,208,o),
(700,196,o),
(703,184,c)
);
}
);
width = 900;
}
);
unicode = 198;
},
{
glyphname = B;
lastChange = "2025-04-24 16:54:05 +0000";
layers = (
{
anchors = (
{
name = bottom;
pos = (288,0);
},
{
name = center;
pos = (144,154);
},
{
name = top;
pos = (288,616);
}
);
color = 2;
guides = (
{
angle = 270;
pos = (18,13);
}
);
layerId = m005;
shapes = (
{
closed = 1;
nodes = (
(18,0,l),
(309,0,l),
(309,40,l),
(264,40,o),
(223,34,o),
(204,50,cs),
(195,58,o),
(185,73,o),
(185,91,cs),
(185,307,o),
(185,377,o),
(185,574,c),
(202,576,o),
(266,576,o),
(289,576,c),
(289,616,l),
(18,616,l),
(18,591,l),
(54,586,o),
(78,582,o),
(92,572,cs),
(102,565,o),
(107,552,o),
(107,525,cs),
(108,341,o),
(109,253,o),
(109,312,cs),
(109,373,o),
(108,282,o),
(107,91,cs),
(107,65,o),
(101,51,o),
(92,43,cs),
(76,29,o),
(50,31,o),
(18,25,c)
);
},
{
closed = 1;
nodes = (
(177,318,o),
(189,318,o),
(217,318,cs),
(379,318,o),
(482,378,o),
(482,481,cs),
(482,560,o),
(402,616,o),
(289,616,c),
(289,576,l),
(350,576,o),
(393,529,o),
(393,462,cs),
(393,387,o),
(324,348,o),
(210,348,cs),
(150,348,l),
(151,318,l)
);
},
{
closed = 1;
nodes = (
(434,0,o),
(522,79,o),
(522,191,cs),
(522,280,o),
(437,333,o),
(316,338,cs),
(132,346,l),
(132,314,l),
(154,314,o),
(166,314,o),
(203,314,cs),
(338,314,o),
(431,263,o),
(431,171,cs),
(431,94,o),
(379,40,o),
(309,40,c),
(309,0,l)
);
}
);
width = 576;
},
{
anchors = (
{
name = bottom;
pos = (324,0);
},
{
name = center;
pos = (153,159);
},
{
name = top;
pos = (324,634);
}
);
background = {
shapes = (
{
closed = 1;
nodes = (
(0,0,l),
(327,0,l),
(327,40,l),
(282,40,o),
(205,34,o),
(186,50,cs),
(177,58,o),
(167,73,o),
(167,91,cs),
(167,307,o),
(167,377,o),
(167,574,c),
(184,576,o),
(248,576,o),
(271,576,c),
(271,616,l),
(0,616,l),
(0,591,l),
(36,586,o),
(60,582,o),
(74,572,cs),
(84,565,o),
(89,552,o),
(89,525,cs),
(90,341,o),
(91,253,o),
(91,312,cs),
(91,373,o),
(90,282,o),
(89,91,cs),
(89,65,o),
(83,51,o),
(74,43,cs),
(58,29,o),
(32,31,o),
(0,25,c)
);
},
{
closed = 1;
nodes = (
(159,318,o),
(171,318,o),
(199,318,cs),
(397,318,o),
(500,378,o),
(500,481,cs),
(500,560,o),
(420,616,o),
(271,616,c),
(271,576,l),
(368,576,o),
(411,529,o),
(411,462,cs),
(411,387,o),
(342,348,o),
(192,348,cs),
(132,348,l),
(133,318,l)
);
},
{
closed = 1;
nodes = (
(452,0,o),
(540,79,o),
(540,191,cs),
(540,280,o),
(455,334,o),
(334,338,cs),
(114,346,l),
(114,314,l),
(136,314,o),
(148,314,o),
(185,314,cs),
(356,314,o),
(449,263,o),
(449,171,cs),
(449,94,o),
(397,40,o),
(327,40,c),
(327,0,l)
);
},
{
closed = 1;
nodes = (
(72,18,l),
(399,18,l),
(399,58,l),
(354,58,o),
(313,52,o),
(258,68,cs),
(246,71,o),
(239,91,o),
(239,109,cs),
(239,325,o),
(239,395,o),
(239,592,c),
(256,594,o),
(356,594,o),
(379,594,c),
(379,634,l),
(72,634,l),
(72,609,l),
(108,604,o),
(132,600,o),
(146,590,cs),
(156,583,o),
(161,570,o),
(161,543,cs),
(162,359,o),
(163,271,o),
(163,330,cs),
(163,391,o),
(162,300,o),
(161,109,cs),
(161,83,o),
(155,69,o),
(146,61,cs),
(130,47,o),
(104,49,o),
(72,43,c)
);
},
{
closed = 1;
nodes = (
(231,336,o),
(243,336,o),
(271,336,cs),
(469,336,o),
(572,396,o),
(572,499,cs),
(572,578,o),
(492,634,o),
(379,634,c),
(379,594,l),
(440,594,o),
(483,547,o),
(483,480,cs),
(483,405,o),
(414,366,o),
(264,366,cs),
(204,366,l),
(205,336,l)
);
},
{
closed = 1;
nodes = (
(524,18,o),
(612,97,o),
(612,209,cs),
(612,298,o),
(527,352,o),
(406,356,cs),
(186,364,l),
(186,332,l),
(208,332,o),
(220,332,o),
(257,332,cs),
(428,332,o),
(521,281,o),
(521,189,cs),
(521,112,o),
(469,58,o),
(399,58,c),
(399,18,l)
);
}
);
};
color = 2;
guides = (
{
angle = 270;
pos = (0,13);
}
);
layerId = m002;
shapes = (
{
closed = 1;
nodes = (
(0,0,l),
(363,0,l),
(327,40,l),
(293,40,o),
(265,44,o),
(258,50,cs),
(247,60,o),
(239,77,o),
(239,91,cs),
(239,325,o),
(239,395,o),
(239,592,c),
(255,593,o),
(284,594,o),
(307,594,c),
(361,634,l),
(0,634,l),
(0,609,l),
(36,604,o),
(60,600,o),
(74,590,cs),
(84,583,o),
(89,570,o),
(89,543,cs),
(90,359,o),
(91,253,o),
(91,330,cs),
(91,391,o),
(90,282,o),
(89,91,cs),
(89,65,o),
(83,51,o),
(74,43,cs),
(58,29,o),
(32,31,o),
(0,25,c)
);
},
{
closed = 1;
nodes = (
(231,336,o),
(279,336,o),
(307,336,cs),
(462,336,o),
(572,404,o),
(572,499,cs),
(572,578,o),
(495,634,o),
(361,634,c),
(307,594,l),
(368,594,o),
(411,547,o),
(411,480,cs),
(411,413,o),
(350,366,o),
(264,366,cs),
(204,366,l),
(205,336,l)
);
},
{
closed = 1;
nodes = (
(509,0,o),
(612,79,o),
(612,191,cs),
(612,284,o),
(527,353,o),
(406,356,cs),
(114,364,l),
(114,332,l),
(208,332,o),
(220,332,o),
(257,332,cs),
(369,332,o),
(449,265,o),
(449,171,cs),
(449,94,o),
(398,40,o),
(327,40,c),
(363,0,l)
);
}
);
width = 657;
},
{
anchors = (
{
name = bottom;
pos = (306,0);
},
{
name = center;
pos = (162,154);
},
{
name = top;
pos = (306,616);
}
);
color = 2;
guides = (
{
angle = 270;
pos = (36,13);
}
);
layerId = m006;
shapes = (
{
closed = 1;
nodes = (
(36,0,l),
(327,0,l),
(327,40,l),
(282,40,o),
(241,34,o),
(222,50,cs),
(213,58,o),
(203,73,o),
(203,91,cs),
(203,307,o),
(203,377,o),
(203,574,c),
(220,576,o),
(284,576,o),
(307,576,c),
(307,616,l),
(36,616,l),
(36,591,l),
(72,586,o),
(96,582,o),
(110,572,cs),
(120,565,o),
(125,552,o),
(125,525,cs),
(126,341,o),
(127,253,o),
(127,312,cs),
(127,373,o),
(126,282,o),
(125,91,cs),
(125,65,o),
(119,51,o),
(110,43,cs),
(94,29,o),
(68,31,o),
(36,25,c)
);
},
{
closed = 1;
nodes = (
(195,318,o),
(207,318,o),
(235,318,cs),
(397,318,o),
(500,378,o),
(500,481,cs),
(500,560,o),
(420,616,o),
(307,616,c),
(307,576,l),
(368,576,o),
(411,529,o),
(411,462,cs),
(411,387,o),
(342,348,o),
(228,348,cs),
(168,348,l),
(169,318,l)
);
},
{
closed = 1;
nodes = (
(452,0,o),
(540,79,o),
(540,191,cs),
(540,280,o),
(455,333,o),
(334,338,cs),
(150,346,l),
(150,314,l),
(172,314,o),
(184,314,o),
(221,314,cs),
(356,314,o),
(449,263,o),
(449,171,cs),
(449,94,o),
(397,40,o),
(327,40,c),
(327,0,l)
);
}
);
width = 603;
},
{
anchors = (
{
name = bottom;
pos = (276,0);
},
{
name = center;
pos = (132,154);
},
{
name = top;
pos = (276,616);
}
);
color = 2;
guides = (
{
angle = 270;
pos = (6,13);
}
);
layerId = m007;
shapes = (
{
closed = 1;
nodes = (
(6,0,l),
(297,0,l),
(297,40,l),
(252,40,o),
(211,34,o),
(192,50,cs),
(183,58,o),
(173,73,o),
(173,91,cs),
(173,307,o),
(173,377,o),
(173,574,c),
(190,576,o),
(254,576,o),
(277,576,c),
(277,616,l),
(6,616,l),
(6,591,l),
(42,586,o),
(66,582,o),
(80,572,cs),
(90,565,o),
(95,552,o),
(95,525,cs),
(96,341,o),
(97,253,o),
(97,312,cs),
(97,373,o),
(96,282,o),
(95,91,cs),
(95,65,o),
(89,51,o),
(80,43,cs),
(64,29,o),
(38,31,o),
(6,25,c)
);
},
{
closed = 1;
nodes = (
(165,318,o),
(177,318,o),
(205,318,cs),
(367,318,o),
(470,378,o),
(470,481,cs),
(470,560,o),
(390,616,o),
(277,616,c),
(277,576,l),
(338,576,o),
(381,529,o),
(381,462,cs),
(381,387,o),
(312,348,o),
(198,348,cs),
(138,348,l),
(139,318,l)
);
},
{
closed = 1;
nodes = (
(422,0,o),
(510,79,o),
(510,191,cs),
(510,280,o),
(425,333,o),
(304,338,cs),
(120,346,l),
(120,314,l),
(142,314,o),
(154,314,o),
(191,314,cs),
(326,314,o),
(419,263,o),
(419,171,cs),
(419,94,o),
(367,40,o),
(297,40,c),
(297,0,l)
);
}
);
width = 558;
}
);
unicode = 66;
},
{
glyphname = C;
lastChange = "2025-04-24 16:54:05 +0000";
layers = (
{
anchors = (
{
name = bottom;
pos = (404,0);
},
{
name = top;
pos = (404,616);
}
);
background = {
shapes = (
{
closed = 1;
nodes = (
(418,588,l),
(514,588,o),
(584,528,o),
(589,444,c),
(620,444,l),
(622,495,o),
(629,558,o),
(636,595,c),
(586,614,o),
(492,627,o),
(410,627,c)
);
}
);
};
backgroundImage = {
imagePath = "../../Desktop/Bildschirmfoto 2024-12-24 um 08.52.09.png";
pos = (714,-952);
scale = (-1.4,1.4);
};
color = 4;
layerId = m005;
shapes = (
{
closed = 1;
nodes = (
(479,-11,o),
(572,9,o),
(628,38,c),
(646,106,o),
(662,174,o),
(666,201,c),
(630,200,l),
(606,102,o),
(520,33,o),
(422,33,cs),
(268,33,o),
(149,158,o),
(149,335,cs),
(149,482,o),
(267,588,o),
(416,588,cs),
(514,588,o),
(585,528,o),
(589,444,c),
(620,444,l),
(622,489,o),
(629,551,o),
(636,595,c),
(586,614,o),
(490,627,o),
(404,627,cs),
(197,627,o),
(54,496,o),
(54,312,cs),
(54,123,o),
(197,-11,o),
(404,-11,cs)
);
}
);
width = 720;
},
{
anchors = (
{
name = bottom;
pos = (408,0);
},
{
name = top;
pos = (407,616);
}
);
associatedMasterId = m005;
background = {
shapes = (
{
closed = 1;
nodes = (
(418,588,l),
(514,588,o),
(584,528,o),
(589,444,c),
(620,444,l),
(622,495,o),
(629,558,o),
(636,595,c),
(586,614,o),
(492,627,o),
(410,627,c)
);
}
);
};
backgroundImage = {
imagePath = "../../Desktop/Bildschirmfoto 2024-12-24 um 08.52.09.png";
pos = (714,-952);
scale = (-1.4,1.4);
};
color = 4;
layerId = "A8205263-60D0-4B63-B521-8F6B441CF343";
name = "11. Jan. 25, 13:19";
shapes = (
{
closed = 1;
nodes = (
(479,-11,o),
(572,9,o),
(628,38,c),
(646,106,o),
(662,174,o),
(666,201,c),
(630,200,l),
(606,102,o),
(520,33,o),
(422,33,cs),
(268,33,o),
(156,158,o),
(156,335,cs),
(156,482,o),
(265,586,o),
(414,586,cs),
(506,586,o),
(582,522,o),
(597,432,c),
(637,432,l),
(634,599,l),
(584,573,l),
(551,605,o),
(477,627,o),
(404,627,cs),
(197,627,o),
(54,496,o),
(54,312,cs),
(54,123,o),
(197,-11,o),
(404,-11,cs)
);
}
);
width = 720;
},
{
anchors = (
{
name = bottom;
pos = (387,0);
},
{
name = top;
pos = (387,634);
}
);
background = {
shapes = (
{
closed = 1;
nodes = (
(409,588,l),
(505,588,o),
(575,528,o),
(580,444,c),
(611,444,l),
(613,495,o),
(620,558,o),
(627,595,c),
(577,614,o),
(483,627,o),
(401,627,c)
);
},
{
closed = 1;
nodes = (
(470,-11,o),
(563,9,o),
(619,38,c),
(637,106,o),
(653,174,o),
(657,201,c),
(621,200,l),
(597,102,o),
(511,33,o),
(413,33,cs),
(259,33,o),
(140,158,o),
(140,335,cs),
(140,482,o),
(258,588,o),
(407,588,cs),
(505,588,o),
(576,528,o),
(580,444,c),
(611,444,l),
(613,489,o),
(620,551,o),
(627,595,c),
(577,614,o),
(481,627,o),
(395,627,cs),
(188,627,o),
(45,496,o),
(45,312,cs),
(45,123,o),
(188,-11,o),
(395,-11,cs)
);
},
{
closed = 1;
nodes = (
(542,7,o),
(635,27,o),
(691,56,c),
(709,124,o),
(725,192,o),
(729,219,c),
(693,218,l),
(669,120,o),
(583,51,o),
(485,51,cs),
(331,51,o),
(212,176,o),
(212,353,cs),
(212,500,o),
(330,606,o),
(479,606,cs),
(577,606,o),
(648,546,o),
(652,462,c),
(683,462,l),
(685,507,o),
(692,569,o),
(699,613,c),
(649,632,o),
(553,645,o),
(467,645,cs),
(260,645,o),
(117,514,o),
(117,330,cs),
(117,141,o),
(260,7,o),
(467,7,cs)
);
}
);
};
backgroundImage = {
imagePath = "../../Desktop/Bildschirmfoto 2024-12-24 um 08.52.09.png";
pos = (705,-952);
scale = (-1.4,1.4);
};
color = 4;
layerId = m002;
shapes = (
{
closed = 1;
nodes = (
(528,-11,o),
(636,9,o),
(691,38,c),
(709,108,o),
(725,175,o),
(729,201,c),
(675,200,l),
(651,102,o),
(557,33,o),
(449,33,cs),
(310,33,o),
(212,158,o),
(212,335,cs),
(212,483,o),
(308,588,o),
(443,588,cs),
(550,588,o),
(629,528,o),
(633,408,c),
(683,408,l),
(686,502,o),
(700,564,o),
(717,595,c),
(650,614,o),
(531,627,o),
(431,627,cs),
(205,627,o),
(45,496,o),
(45,312,cs),
(45,123,o),
(205,-11,o),
(431,-11,cs)
);
}
);
width = 774;
},
{
anchors = (
{
name = bottom;
pos = (408,0);
},
{
name = top;
pos = (407,616);
}
);
associatedMasterId = m002;
background = {
shapes = (
{
closed = 1;
nodes = (
(418,588,l),
(514,588,o),
(584,528,o),
(589,444,c),
(620,444,l),
(622,495,o),
(629,558,o),
(636,595,c),
(586,614,o),
(492,627,o),
(410,627,c)
);
}
);
};
backgroundImage = {
imagePath = "../../Desktop/Bildschirmfoto 2024-12-24 um 08.52.09.png";
pos = (714,-952);
scale = (-1.4,1.4);
};
color = 4;
layerId = "9A3E0757-E8A1-446F-9B4D-CF8B795C0B9C";
name = "11. Jan. 25, 13:19";
shapes = (
{
closed = 1;
nodes = (
(479,-11,o),
(572,9,o),
(628,38,c),
(646,106,o),
(662,174,o),
(666,201,c),
(630,200,l),
(606,102,o),
(520,33,o),
(422,33,cs),
(268,33,o),
(156,158,o),
(156,335,cs),
(156,482,o),
(265,586,o),
(414,586,cs),
(506,586,o),
(582,522,o),
(597,432,c),
(637,432,l),
(634,599,l),
(584,573,l),
(551,605,o),
(477,627,o),
(404,627,cs),
(197,627,o),
(54,496,o),
(54,312,cs),
(54,123,o),
(197,-11,o),
(404,-11,cs)
);
}
);
width = 720;
},
{
anchors = (
{
name = bottom;
pos = (413,0);
},
{
name = top;
pos = (413,616);
}
);
background = {
shapes = (
{
closed = 1;
nodes = (
(427,588,l),
(523,588,o),
(593,528,o),
(598,444,c),
(629,444,l),
(631,495,o),
(638,558,o),
(645,595,c),
(595,614,o),
(501,627,o),
(419,627,c)
);
}
);
};
backgroundImage = {
imagePath = "../../Desktop/Bildschirmfoto 2024-12-24 um 08.52.09.png";
pos = (723,-952);
scale = (-1.4,1.4);
};
color = 4;
layerId = m006;
shapes = (
{
closed = 1;
nodes = (
(488,-11,o),
(581,9,o),
(637,38,c),
(655,106,o),
(671,174,o),
(675,201,c),
(639,200,l),
(615,102,o),
(529,33,o),
(431,33,cs),
(277,33,o),
(158,158,o),
(158,335,cs),
(158,482,o),
(276,588,o),
(425,588,cs),
(523,588,o),
(594,528,o),
(598,444,c),
(629,444,l),
(631,489,o),
(638,551,o),
(645,595,c),
(595,614,o),
(499,627,o),
(413,627,cs),
(206,627,o),
(63,496,o),
(63,312,cs),
(63,123,o),
(206,-11,o),
(413,-11,cs)
);
}
);
width = 738;
},
{
anchors = (
{
name = bottom;
pos = (408,0);
},
{
name = top;
pos = (407,616);
}
);
associatedMasterId = m006;
background = {
shapes = (
{
closed = 1;
nodes = (
(418,588,l),
(514,588,o),
(584,528,o),
(589,444,c),
(620,444,l),
(622,495,o),
(629,558,o),
(636,595,c),
(586,614,o),
(492,627,o),
(410,627,c)
);
}
);
};
backgroundImage = {
imagePath = "../../Desktop/Bildschirmfoto 2024-12-24 um 08.52.09.png";
pos = (714,-952);
scale = (-1.4,1.4);
};
color = 4;
layerId = "479D3C9E-6224-41EB-8E9D-2FCAB675798B";
name = "11. Jan. 25, 13:19";
shapes = (
{
closed = 1;
nodes = (
(479,-11,o),
(572,9,o),
(628,38,c),
(646,106,o),
(662,174,o),
(666,201,c),
(630,200,l),
(606,102,o),
(520,33,o),
(422,33,cs),
(268,33,o),
(156,158,o),
(156,335,cs),
(156,482,o),
(265,586,o),
(414,586,cs),
(506,586,o),
(582,522,o),
(597,432,c),
(637,432,l),
(634,599,l),
(584,573,l),
(551,605,o),
(477,627,o),
(404,627,cs),
(197,627,o),
(54,496,o),
(54,312,cs),
(54,123,o),
(197,-11,o),
(404,-11,cs)
);
}
);
width = 720;
},
{
anchors = (
{
name = bottom;
pos = (398,0);
},
{
name = top;
pos = (398,616);
}
);
background = {
shapes = (
{
closed = 1;
nodes = (
(412,588,l),
(508,588,o),
(578,528,o),
(583,444,c),
(614,444,l),
(616,495,o),
(623,558,o),
(630,595,c),
(580,614,o),
(486,627,o),
(404,627,c)
);
}
);
};
backgroundImage = {
imagePath = "../../Desktop/Bildschirmfoto 2024-12-24 um 08.52.09.png";
pos = (708,-952);
scale = (-1.4,1.4);
};
color = 4;
layerId = m007;
shapes = (
{
closed = 1;
nodes = (
(473,-11,o),
(566,9,o),
(622,38,c),
(640,106,o),
(656,174,o),
(660,201,c),
(624,200,l),
(600,102,o),
(514,33,o),
(416,33,cs),
(262,33,o),
(143,158,o),
(143,335,cs),
(143,482,o),
(261,588,o),
(410,588,cs),
(508,588,o),
(579,528,o),
(583,444,c),
(614,444,l),
(616,489,o),
(623,551,o),
(630,595,c),
(580,614,o),
(484,627,o),
(398,627,cs),
(191,627,o),
(48,496,o),
(48,312,cs),
(48,123,o),
(191,-11,o),
(398,-11,cs)
);
}
);
width = 708;
},
{
anchors = (
{
name = bottom;
pos = (408,0);
},
{
name = top;
pos = (407,616);
}
);
associatedMasterId = m007;
background = {
shapes = (
{
closed = 1;
nodes = (
(418,588,l),
(514,588,o),
(584,528,o),
(589,444,c),
(620,444,l),
(622,495,o),
(629,558,o),
(636,595,c),
(586,614,o),
(492,627,o),
(410,627,c)
);
}
);
};
backgroundImage = {
imagePath = "../../Desktop/Bildschirmfoto 2024-12-24 um 08.52.09.png";
pos = (714,-952);
scale = (-1.4,1.4);
};
color = 4;
layerId = "F73FC376-7152-41A3-987D-F3E3D8CF3CC2";
name = "11. Jan. 25, 13:19";
shapes = (
{
closed = 1;
nodes = (
(479,-11,o),
(572,9,o),
(628,38,c),
(646,106,o),
(662,174,o),
(666,201,c),
(630,200,l),
(606,102,o),
(520,33,o),
(422,33,cs),
(268,33,o),
(156,158,o),
(156,335,cs),
(156,482,o),
(265,586,o),
(414,586,cs),
(506,586,o),
(582,522,o),
(597,432,c),
(637,432,l),
(634,599,l),
(584,573,l),
(551,605,o),
(477,627,o),
(404,627,cs),
(197,627,o),
(54,496,o),
(54,312,cs),
(54,123,o),
(197,-11,o),
(404,-11,cs)
);
}
);
width = 720;
}
);
unicode = 67;
},
{
glyphname = D;
lastChange = "2025-04-24 16:54:05 +0000";
layers = (
{
anchors = (
{
name = bottom;
pos = (284,0);
},
{
name = center;
pos = (176,308);
},
{
name = top;
pos = (283,616);
}
);
background = {
shapes = (
{
closed = 1;
nodes = (
(20,0,l),
(303,0,l),
(303,40,l),
(258,40,o),
(223,38,o),
(204,54,cs),
(195,62,o),
(190,73,o),
(190,91,cs),
(188,307,o),
(187,377,o),
(191,574,c),
(208,576,o),
(260,576,o),
(283,576,c),
(283,616,l),
(20,616,l),
(20,591,l),
(54,581,o),
(78,582,o),
(92,572,cs),
(102,565,o),
(107,552,o),
(107,525,cs),
(108,341,o),
(109,253,o),
(109,312,cs),
(109,373,o),
(108,282,o),
(107,91,cs),
(107,65,o),
(101,51,o),
(92,43,cs),
(76,29,o),
(50,31,o),
(20,25,c)
);
}
);
};
backgroundImage = {
imagePath = "../../Desktop/Bildschirmfoto 2024-12-24 um 13.06.05.png";
pos = (759,-1011);
scale = (-1.4,1.4);
};
color = 2;
layerId = m005;
shapes = (
{
closed = 1;
nodes = (
(18,0,l),
(41,0,o),
(103,0,o),
(145,0,cs),
(145,0,o),
(186,1,o),
(304,-3,c),
(318,38,l),
(266,38,o),
(227,33,o),
(204,55,cs),
(195,63,o),
(190,74,o),
(190,91,cs),
(190,189,o),
(190,476,o),
(191,574,c),
(237,577,o),
(269,578,o),
(315,578,c),
(331,619,l),
(250,618,o),
(188,616,o),
(148,616,c),
(102,616,o),
(49,616,o),
(18,616,c),
(18,590,l),
(56,583,o),
(79,582,o),
(92,572,cs),
(103,565,o),
(107,552,o),
(107,525,cs),
(108,411,o),
(109,323,o),
(109,312,cs),
(109,302,o),
(108,210,o),
(107,91,cs),
(107,66,o),
(102,52,o),
(92,43,cs),
(78,31,o),
(53,30,o),
(18,25,c)
);
},
{
closed = 1;
nodes = (
(304,-3,l),
(505,-2,o),
(648,135,o),
(648,327,cs),
(648,498,o),
(517,619,o),
(331,619,c),
(315,578,l),
(456,578,o),
(555,462,o),
(555,298,cs),
(555,146,o),
(457,38,o),
(318,38,c)
);
}
);
width = 702;
},
{
anchors = (
{
name = bottom;
pos = (369,0);
},
{
name = center;
pos = (176,317);
},
{
name = top;
pos = (369,634);
}
);
background = {
shapes = (
{
closed = 1;
nodes = (
(2,0,l),
(285,0,l),
(285,40,l),
(240,40,o),
(205,38,o),
(186,54,cs),
(177,62,o),
(172,73,o),
(172,91,cs),
(170,307,o),
(169,377,o),
(173,574,c),
(190,576,o),
(242,576,o),
(265,576,c),
(265,616,l),
(2,616,l),
(2,591,l),
(36,581,o),
(60,582,o),
(74,572,cs),
(84,565,o),
(89,552,o),
(89,525,cs),
(90,341,o),
(91,253,o),
(91,312,cs),
(91,373,o),
(90,282,o),
(89,91,cs),
(89,65,o),
(83,51,o),
(74,43,cs),
(58,29,o),
(32,31,o),
(2,25,c)
);
},
{
closed = 1;
nodes = (
(0,0,l),
(23,0,o),
(85,0,o),
(127,0,cs),
(127,0,o),
(168,1,o),
(286,-3,c),
(300,38,l),
(248,38,o),
(209,33,o),
(186,55,cs),
(177,63,o),
(172,74,o),
(172,91,cs),
(172,189,o),
(172,476,o),
(173,574,c),
(219,577,o),
(251,578,o),
(297,578,c),
(313,619,l),
(232,618,o),
(170,616,o),
(130,616,c),
(84,616,o),
(31,616,o),
(0,616,c),
(0,590,l),
(38,583,o),
(61,582,o),
(74,572,cs),
(85,565,o),
(89,552,o),
(89,525,cs),
(90,411,o),
(91,323,o),
(91,312,cs),
(91,302,o),
(90,210,o),
(89,91,cs),
(89,66,o),
(84,52,o),
(74,43,cs),
(60,31,o),
(35,30,o),
(0,25,c)
);
},
{
closed = 1;
nodes = (
(286,-3,l),
(487,-2,o),
(630,135,o),
(630,327,cs),
(630,498,o),
(499,619,o),
(313,619,c),
(297,578,l),
(438,578,o),
(537,462,o),
(537,298,cs),
(537,146,o),
(439,38,o),
(300,38,c)
);
},
{
closed = 1;
nodes = (
(72,18,l),
(95,18,o),
(157,18,o),
(199,18,cs),
(199,18,o),
(240,19,o),
(358,15,c),
(372,56,l),
(320,56,o),
(281,51,o),
(258,73,cs),
(249,81,o),
(244,92,o),
(244,109,cs),
(244,207,o),
(244,494,o),
(245,592,c),
(291,595,o),
(323,596,o),
(369,596,c),
(385,637,l),
(304,636,o),
(242,634,o),
(202,634,c),
(156,634,o),
(103,634,o),
(72,634,c),
(72,608,l),
(110,601,o),
(133,600,o),
(146,590,cs),
(157,583,o),
(161,570,o),
(161,543,cs),
(162,429,o),
(163,341,o),
(163,330,cs),
(163,320,o),
(162,228,o),
(161,109,cs),
(161,84,o),
(156,70,o),
(146,61,cs),
(132,49,o),
(107,48,o),
(72,43,c)
);
},
{
closed = 1;
nodes = (
(358,15,l),
(559,16,o),
(702,153,o),
(702,345,cs),
(702,516,o),
(571,637,o),
(385,637,c),
(369,596,l),
(510,596,o),
(609,480,o),
(609,316,cs),
(609,164,o),
(511,56,o),
(372,56,c)
);
}
);
};
backgroundImage = {
imagePath = "../../Desktop/Bildschirmfoto 2024-12-24 um 13.06.05.png";
pos = (741,-1011);
scale = (-1.4,1.4);
};
color = 2;
layerId = m002;
shapes = (
{
closed = 1;
nodes = (
(0,0,l),
(23,0,o),
(121,0,o),
(163,0,cs),
(163,0,o),
(240,1,o),
(358,-3,c),
(372,38,l),
(320,38,o),
(281,33,o),
(258,55,cs),
(249,63,o),
(244,74,o),
(244,91,cs),
(244,189,o),
(244,494,o),
(245,592,c),
(291,595,o),
(323,596,o),
(369,596,c),
(385,637,l),
(304,636,o),
(278,634,o),
(166,634,c),
(120,634,o),
(31,634,o),
(0,634,c),
(0,608,l),
(38,601,o),
(61,600,o),
(74,591,cs),
(85,583,o),
(89,570,o),
(89,543,cs),
(90,429,o),
(91,341,o),
(91,330,cs),
(91,320,o),
(90,210,o),
(89,91,cs),
(89,66,o),
(84,52,o),
(74,43,cs),
(60,31,o),
(35,30,o),
(0,25,c)
);
},
{
closed = 1;
nodes = (
(358,-3,l),
(559,-2,o),
(702,142,o),
(702,345,cs),
(702,516,o),
(571,637,o),
(385,637,c),
(369,596,l),
(467,596,o),
(537,480,o),
(537,317,cs),
(537,154,o),
(469,38,o),
(372,38,c)
);
}
);
width = 747;
},
{
anchors = (
{
name = bottom;
pos = (302,0);
},
{
name = center;
pos = (194,308);
},
{
name = top;
pos = (301,616);
}
);
background = {
shapes = (
{
closed = 1;
nodes = (
(38,0,l),
(321,0,l),
(321,40,l),
(276,40,o),
(241,38,o),
(222,54,cs),
(213,62,o),
(208,73,o),
(208,91,cs),
(206,307,o),
(205,377,o),
(209,574,c),
(226,576,o),
(278,576,o),
(301,576,c),
(301,616,l),
(38,616,l),
(38,591,l),
(72,581,o),
(96,582,o),
(110,572,cs),
(120,565,o),
(125,552,o),
(125,525,cs),
(126,341,o),
(127,253,o),
(127,312,cs),
(127,373,o),
(126,282,o),
(125,91,cs),
(125,65,o),
(119,51,o),
(110,43,cs),
(94,29,o),
(68,31,o),
(38,25,c)
);
}
);
};
backgroundImage = {
imagePath = "../../Desktop/Bildschirmfoto 2024-12-24 um 13.06.05.png";
pos = (777,-1011);
scale = (-1.4,1.4);
};
color = 2;
layerId = m006;
shapes = (
{
closed = 1;
nodes = (
(36,0,l),
(59,0,o),
(121,0,o),
(163,0,cs),
(163,0,o),
(204,1,o),
(322,-3,c),
(336,38,l),
(284,38,o),
(245,33,o),
(222,55,cs),
(213,63,o),
(208,74,o),
(208,91,cs),
(208,189,o),
(208,476,o),
(209,574,c),
(255,577,o),
(287,578,o),
(333,578,c),
(349,619,l),
(268,618,o),
(206,616,o),
(166,616,c),
(120,616,o),
(67,616,o),
(36,616,c),
(36,590,l),
(74,583,o),
(97,582,o),
(110,572,cs),
(121,565,o),
(125,552,o),
(125,525,cs),
(126,411,o),
(127,323,o),
(127,312,cs),
(127,302,o),
(126,210,o),
(125,91,cs),
(125,66,o),
(120,52,o),
(110,43,cs),
(96,31,o),
(71,30,o),
(36,25,c)
);
},
{
closed = 1;
nodes = (
(322,-3,l),
(523,-2,o),
(666,135,o),
(666,327,cs),
(666,498,o),
(535,619,o),
(349,619,c),
(333,578,l),
(474,578,o),
(573,462,o),
(573,298,cs),
(573,146,o),
(475,38,o),
(336,38,c)
);
}
);
width = 729;
},
{
anchors = (
{
name = bottom;
pos = (272,0);
},
{
name = center;
pos = (164,308);
},
{
name = top;
pos = (271,616);
}
);
background = {
shapes = (
{
closed = 1;
nodes = (
(8,0,l),
(291,0,l),
(291,40,l),
(246,40,o),
(211,38,o),
(192,54,cs),
(183,62,o),
(178,73,o),
(178,91,cs),
(176,307,o),
(175,377,o),
(179,574,c),
(196,576,o),
(248,576,o),
(271,576,c),
(271,616,l),
(8,616,l),
(8,591,l),
(42,581,o),
(66,582,o),
(80,572,cs),
(90,565,o),
(95,552,o),
(95,525,cs),
(96,341,o),
(97,253,o),
(97,312,cs),
(97,373,o),
(96,282,o),
(95,91,cs),
(95,65,o),
(89,51,o),
(80,43,cs),
(64,29,o),
(38,31,o),
(8,25,c)
);
}
);
};
backgroundImage = {
imagePath = "../../Desktop/Bildschirmfoto 2024-12-24 um 13.06.05.png";
pos = (747,-1011);
scale = (-1.4,1.4);
};
color = 2;
layerId = m007;
shapes = (
{
closed = 1;
nodes = (
(6,0,l),
(29,0,o),
(91,0,o),
(133,0,cs),
(133,0,o),
(174,1,o),
(292,-3,c),
(306,38,l),
(254,38,o),
(215,33,o),
(192,55,cs),
(183,63,o),
(178,74,o),
(178,91,cs),
(178,189,o),
(178,476,o),
(179,574,c),
(225,577,o),
(257,578,o),
(303,578,c),
(319,619,l),
(238,618,o),
(176,616,o),
(136,616,c),
(90,616,o),
(37,616,o),
(6,616,c),
(6,590,l),
(44,583,o),
(67,582,o),
(80,572,cs),
(91,565,o),
(95,552,o),
(95,525,cs),
(96,411,o),
(97,323,o),
(97,312,cs),
(97,302,o),
(96,210,o),
(95,91,cs),
(95,66,o),
(90,52,o),
(80,43,cs),
(66,31,o),
(41,30,o),
(6,25,c)
);
},
{
closed = 1;
nodes = (
(292,-3,l),
(493,-2,o),
(636,135,o),
(636,327,cs),
(636,498,o),
(505,619,o),
(319,619,c),
(303,578,l),
(444,578,o),
(543,462,o),
(543,298,cs),
(543,146,o),
(445,38,o),
(306,38,c)
);
}
);
width = 684;
}
);
unicode = 68;
},
{
glyphname = Dcroat;
lastChange = "2025-03-23 19:29:39 +0000";
layers = (
{
layerId = m005;
shapes = (
{
closed = 1;
nodes = (
(43,260,l),
(270,343,l),
(255,388,l),
(27,305,l)
);
},
{
ref = D;
}
);
width = 702;
},
{
layerId = m002;
shapes = (
{
closed = 1;
nodes = (
(43,268,l),
(270,351,l),
(258,388,l),
(30,305,l)
);
},
{
ref = D;
}
);
width = 702;
},
{
layerId = m006;
shapes = (
{
closed = 1;
nodes = (
(43,260,l),
(270,343,l),
(255,388,l),
(27,305,l)
);
},
{
ref = D;
}
);
width = 702;
},
{
layerId = m007;
shapes = (
{
closed = 1;
nodes = (
(43,260,l),
(270,343,l),
(255,388,l),
(27,305,l)
);
},
{
ref = D;
}
);
width = 702;
}
);
unicode = 272;
},
{
glyphname = Dtail;
lastChange = "2025-03-23 19:29:39 +0000";
layers = (
{
layerId = m005;
shapes = (
{
ref = D;
},
{
closed = 1;
nodes = (
(36,298,l),
(261,299,l),
(261,344,l),
(36,344,l)
);
}
);
width = 702;
},
{
layerId = m002;
shapes = (
{
ref = D;
},
{
closed = 1;
nodes = (
(36,298,l),
(261,299,l),
(261,339,l),
(36,339,l)
);
}
);
width = 702;
},
{
layerId = m006;
shapes = (
{
ref = D;
},
{
closed = 1;
nodes = (
(36,298,l),
(261,299,l),
(261,344,l),
(36,344,l)
);
}
);
width = 702;
},
{
layerId = m007;
shapes = (
{
ref = D;
},
{
closed = 1;
nodes = (
(36,298,l),
(261,299,l),
(261,344,l),
(36,344,l)
);
}
);
width = 702;
}
);
unicode = 393;
},
{
glyphname = E;
lastChange = "2025-04-24 16:54:05 +0000";
layers = (
{
anchors = (
{
name = bottom;
pos = (270,2);
},
{
name = ogonek;
pos = (518,10);
},
{
name = top;
pos = (276,616);
},
{
name = topleft;
pos = (20,616);
}
);
background = {
shapes = (
{
closed = 1;
nodes = (
(20,0,l),
(303,0,l),
(303,40,l),
(258,40,o),
(223,38,o),
(204,54,cs),
(195,62,o),
(190,73,o),
(190,91,cs),
(188,307,o),
(187,377,o),
(191,574,c),
(208,576,o),
(260,576,o),
(283,576,c),
(283,616,l),
(20,616,l),
(20,591,l),
(54,581,o),
(78,582,o),
(92,572,cs),
(102,565,o),
(107,552,o),
(107,525,cs),
(108,341,o),
(109,253,o),
(109,312,cs),
(109,373,o),
(108,282,o),
(107,91,cs),
(107,65,o),
(101,51,o),
(92,43,cs),
(76,29,o),
(50,31,o),
(20,25,c)
);
}
);
};
color = 2;
layerId = m005;
shapes = (
{
closed = 1;
nodes = (
(528,44,o),
(538,110,o),
(540,157,c),
(511,157,l),
(499,90,o),
(460,43,o),
(417,40,cs),
(385,38,o),
(321,37,o),
(264,37,cs),
(230,37,o),
(214,42,o),
(203,52,cs),
(193,62,o),
(190,76,o),
(190,96,cs),
(190,265,o),
(189,416,o),
(191,576,c),
(228,578,o),
(257,578,o),
(279,578,cs),
(307,578,o),
(342,578,o),
(374,576,cs),
(399,574,o),
(422,544,o),
(430,499,c),
(464,499,l),
(465,536,o),
(470,586,o),
(477,619,c),
(412,617,o),
(269,616,o),
(148,616,cs),
(99,616,o),
(47,617,o),
(18,618,c),
(18,589,l),
(53,584,o),
(77,581,o),
(92,567,cs),
(101,558,o),
(107,544,o),
(107,521,cs),
(109,376,o),
(109,236,o),
(107,91,cs),
(107,67,o),
(102,52,o),
(92,42,cs),
(78,29,o),
(55,26,o),
(18,23,c),
(18,-2,l),
(138,0,ls),
(281,2,o),
(439,-1,o),
(516,-3,c)
);
},
{
closed = 1;
nodes = (
(398,206,l),
(393,272,o),
(393,364,o),
(398,430,c),
(372,430,l),
(371,424,o),
(366,410,o),
(361,396,c),
(344,360,o),
(321,336,o),
(261,336,cs),
(131,336,l),
(131,296,l),
(261,296,ls),
(328,296,o),
(350,274,o),
(362,242,cs),
(373,206,l)
);
}
);
width = 576;
},
{
anchors = (
{
name = bottom;
pos = (306,0);
},
{
name = ogonek;
pos = (565,10);
},
{
name = top;
pos = (306,634);
},
{
name = topleft;
pos = (2,634);
}
);
background = {
shapes = (
{
closed = 1;
nodes = (
(510,44,o),
(520,110,o),
(522,157,c),
(493,157,l),
(481,90,o),
(442,43,o),
(399,40,cs),
(367,38,o),
(303,37,o),
(246,37,cs),
(212,37,o),
(196,42,o),
(185,52,cs),
(175,62,o),
(172,76,o),
(172,96,cs),
(172,265,o),
(171,416,o),
(173,576,c),
(210,578,o),
(239,578,o),
(261,578,cs),
(289,578,o),
(324,578,o),
(356,576,cs),
(381,574,o),
(404,544,o),
(412,499,c),
(446,499,l),
(447,536,o),
(452,586,o),
(459,619,c),
(394,617,o),
(251,616,o),
(130,616,cs),
(81,616,o),
(29,617,o),
(0,618,c),
(0,589,l),
(35,584,o),
(59,581,o),
(74,567,cs),
(83,558,o),
(89,544,o),
(89,521,cs),
(91,376,o),
(91,236,o),
(89,91,cs),
(89,67,o),
(84,52,o),
(74,42,cs),
(60,29,o),
(37,26,o),
(0,23,c),
(0,-2,l),
(120,0,ls),
(263,2,o),
(421,-1,o),
(498,-3,c)
);
},
{
closed = 1;
nodes = (
(380,206,l),
(375,272,o),
(375,364,o),
(380,430,c),
(354,430,l),
(353,424,o),
(348,410,o),
(343,396,c),
(326,360,o),
(303,336,o),
(243,336,cs),
(113,336,l),
(113,296,l),
(243,296,ls),
(310,296,o),
(332,274,o),
(344,242,cs),
(355,206,l)
);
},
{
closed = 1;
nodes = (
(582,62,o),
(592,128,o),
(594,175,c),
(565,175,l),
(553,108,o),
(514,61,o),
(471,58,cs),
(439,56,o),
(375,55,o),
(318,55,cs),
(284,55,o),
(268,60,o),
(257,70,cs),
(247,80,o),
(244,94,o),
(244,114,cs),
(244,283,o),
(243,434,o),
(245,594,c),
(282,596,o),
(311,596,o),
(333,596,cs),
(361,596,o),
(396,596,o),
(428,594,cs),
(453,592,o),
(476,562,o),
(484,517,c),
(518,517,l),
(519,554,o),
(524,604,o),
(531,637,c),
(466,635,o),
(323,634,o),
(202,634,cs),
(153,634,o),
(101,635,o),
(72,636,c),
(72,607,l),
(107,602,o),
(131,599,o),
(146,585,cs),
(155,576,o),
(161,562,o),
(161,539,cs),
(163,394,o),
(163,254,o),
(161,109,cs),
(161,85,o),
(156,70,o),
(146,60,cs),
(132,47,o),
(109,44,o),
(72,41,c),
(72,16,l),
(192,18,ls),
(335,20,o),
(493,17,o),
(570,15,c)
);
},
{
closed = 1;
nodes = (
(452,224,l),
(447,290,o),
(447,382,o),
(452,448,c),
(426,448,l),
(425,442,o),
(420,428,o),
(415,414,c),
(398,378,o),
(375,354,o),
(315,354,cs),
(185,354,l),
(185,314,l),
(315,314,ls),
(382,314,o),
(404,292,o),
(416,260,cs),
(427,224,l)
);
}
);
};
color = 2;
layerId = m002;
shapes = (
{
closed = 1;
nodes = (
(582,44,o),
(592,110,o),
(594,157,c),
(547,157,l),
(535,90,o),
(496,43,o),
(453,40,cs),
(421,38,o),
(375,37,o),
(318,37,cs),
(284,37,o),
(268,42,o),
(257,52,cs),
(247,62,o),
(244,76,o),
(244,96,cs),
(244,265,o),
(243,416,o),
(245,594,c),
(282,596,o),
(311,596,o),
(333,596,cs),
(361,596,o),
(396,596,o),
(428,594,cs),
(453,592,o),
(476,562,o),
(484,481,c),
(536,481,l),
(537,554,o),
(542,604,o),
(549,637,c),
(484,635,o),
(323,634,o),
(130,634,cs),
(81,634,o),
(29,635,o),
(0,636,c),
(0,607,l),
(35,602,o),
(59,599,o),
(74,585,cs),
(83,576,o),
(89,562,o),
(89,539,cs),
(91,376,o),
(91,236,o),
(89,91,cs),
(89,67,o),
(84,52,o),
(74,42,cs),
(60,29,o),
(37,26,o),
(0,23,c),
(0,-2,l),
(120,0,ls),
(335,4,o),
(493,-1,o),
(570,-3,c)
);
},
{
closed = 1;
nodes = (
(439,206,l),
(433,272,o),
(433,364,o),
(439,430,c),
(386,430,l),
(385,424,o),
(380,410,o),
(375,396,c),
(358,360,o),
(299,336,o),
(257,336,cs),
(123,336,l),
(123,296,l),
(257,296,ls),
(342,296,o),
(364,274,o),
(376,242,cs),
(387,206,l)
);
}
);
width = 624;
},
{
anchors = (
{
name = bottom;
pos = (288,2);
},
{
name = ogonek;
pos = (536,10);
},
{
name = top;
pos = (294,616);
},
{
name = topleft;
pos = (38,616);
}
);
background = {
shapes = (
{
closed = 1;
nodes = (
(38,0,l),
(321,0,l),
(321,40,l),
(276,40,o),
(241,38,o),
(222,54,cs),
(213,62,o),
(208,73,o),
(208,91,cs),
(206,307,o),
(205,377,o),
(209,574,c),
(226,576,o),
(278,576,o),
(301,576,c),
(301,616,l),
(38,616,l),
(38,591,l),
(72,581,o),
(96,582,o),
(110,572,cs),
(120,565,o),
(125,552,o),
(125,525,cs),
(126,341,o),
(127,253,o),
(127,312,cs),
(127,373,o),
(126,282,o),
(125,91,cs),
(125,65,o),
(119,51,o),
(110,43,cs),
(94,29,o),
(68,31,o),
(38,25,c)
);
}
);
};
color = 2;
layerId = m006;
shapes = (
{
closed = 1;
nodes = (
(546,44,o),
(556,110,o),
(558,157,c),
(529,157,l),
(517,90,o),
(478,43,o),
(435,40,cs),
(403,38,o),
(339,37,o),
(282,37,cs),
(248,37,o),
(232,42,o),
(221,52,cs),
(211,62,o),
(208,76,o),
(208,96,cs),
(208,265,o),
(207,416,o),
(209,576,c),
(246,578,o),
(275,578,o),
(297,578,cs),
(325,578,o),
(360,578,o),
(392,576,cs),
(417,574,o),
(440,544,o),
(448,499,c),
(482,499,l),
(483,536,o),
(488,586,o),
(495,619,c),
(430,617,o),
(287,616,o),
(166,616,cs),
(117,616,o),
(65,617,o),
(36,618,c),
(36,589,l),
(71,584,o),
(95,581,o),
(110,567,cs),
(119,558,o),
(125,544,o),
(125,521,cs),
(127,376,o),
(127,236,o),
(125,91,cs),
(125,67,o),
(120,52,o),
(110,42,cs),
(96,29,o),
(73,26,o),
(36,23,c),
(36,-2,l),
(156,0,ls),
(299,2,o),
(457,-1,o),
(534,-3,c)
);
},
{
closed = 1;
nodes = (
(416,206,l),
(411,272,o),
(411,364,o),
(416,430,c),
(390,430,l),
(389,424,o),
(384,410,o),
(379,396,c),
(362,360,o),
(339,336,o),
(279,336,cs),
(149,336,l),
(149,296,l),
(279,296,ls),
(346,296,o),
(368,274,o),
(380,242,cs),
(391,206,l)
);
}
);
width = 600;
},
{
anchors = (
{
name = bottom;
pos = (258,2);
},
{
name = ogonek;
pos = (506,10);
},
{
name = top;
pos = (264,616);
},
{
name = topleft;
pos = (8,616);
}
);
background = {
shapes = (
{
closed = 1;
nodes = (
(8,0,l),
(291,0,l),
(291,40,l),
(246,40,o),
(211,38,o),
(192,54,cs),
(183,62,o),
(178,73,o),
(178,91,cs),
(176,307,o),
(175,377,o),
(179,574,c),
(196,576,o),
(248,576,o),
(271,576,c),
(271,616,l),
(8,616,l),
(8,591,l),
(42,581,o),
(66,582,o),
(80,572,cs),
(90,565,o),
(95,552,o),
(95,525,cs),
(96,341,o),
(97,253,o),
(97,312,cs),
(97,373,o),
(96,282,o),
(95,91,cs),
(95,65,o),
(89,51,o),
(80,43,cs),
(64,29,o),
(38,31,o),
(8,25,c)
);
}
);
};
color = 2;
layerId = m007;
shapes = (
{
closed = 1;
nodes = (
(516,44,o),
(526,110,o),
(528,157,c),
(499,157,l),
(487,90,o),
(448,43,o),
(405,40,cs),
(373,38,o),
(309,37,o),
(252,37,cs),
(218,37,o),
(202,42,o),
(191,52,cs),
(181,62,o),
(178,76,o),
(178,96,cs),
(178,265,o),
(177,416,o),
(179,576,c),
(216,578,o),
(245,578,o),
(267,578,cs),
(295,578,o),
(330,578,o),
(362,576,cs),
(387,574,o),
(410,544,o),
(418,499,c),
(452,499,l),
(453,536,o),
(458,586,o),
(465,619,c),
(400,617,o),
(257,616,o),
(136,616,cs),
(87,616,o),
(35,617,o),
(6,618,c),
(6,589,l),
(41,584,o),
(65,581,o),
(80,567,cs),
(89,558,o),
(95,544,o),
(95,521,cs),
(97,376,o),
(97,236,o),
(95,91,cs),
(95,67,o),
(90,52,o),
(80,42,cs),
(66,29,o),
(43,26,o),
(6,23,c),
(6,-2,l),
(126,0,ls),
(269,2,o),
(427,-1,o),
(504,-3,c)
);
},
{
closed = 1;
nodes = (
(386,206,l),
(381,272,o),
(381,364,o),
(386,430,c),
(360,430,l),
(359,424,o),
(354,410,o),
(349,396,c),
(332,360,o),
(309,336,o),
(249,336,cs),
(119,336,l),
(119,296,l),
(249,296,ls),
(316,296,o),
(338,274,o),
(350,242,cs),
(361,206,l)
);
}
);
width = 560;
}
);
unicode = 69;
},
{
glyphname = Eopen;
lastChange = "2025-03-23 19:29:39 +0000";
layers = (
{
anchors = (
{
name = bottom;
pos = (270,0);
},
{
name = top;
pos = (305,616);
}
);
layerId = m005;
shapes = (
{
closed = 1;
nodes = (
(347,-11,o),
(445,37,o),
(498,104,c),
(476,126,l),
(438,83,o),
(374,53,o),
(321,53,cs),
(215,53,o),
(140,110,o),
(140,191,cs),
(140,224,o),
(178,264,o),
(231,287,c),
(235,286,l),
(240,290,l),
(266,301,o),
(307,312,o),
(339,317,c),
(329,351,l),
(220,370,o),
(143,434,o),
(143,505,cs),
(143,554,o),
(206,589,o),
(294,589,cs),
(359,589,o),
(407,529,o),
(409,444,c),
(440,444,l),
(443,494,o),
(449,557,o),
(456,595,c),
(420,614,o),
(363,627,o),
(318,627,cs),
(173,627,o),
(70,554,o),
(70,451,cs),
(70,398,o),
(120,340,o),
(191,310,c),
(111,272,o),
(54,198,o),
(54,131,cs),
(54,48,o),
(141,-11,o),
(263,-11,cs)
);
}
);
width = 540;
},
{
anchors = (
{
name = bottom;
pos = (270,0);
},
{
name = top;
pos = (270,634);
}
);
layerId = m002;
shapes = (
{
closed = 1;
nodes = (
(347,-11,o),
(445,37,o),
(498,104,c),
(476,126,l),
(438,83,o),
(374,53,o),
(321,53,cs),
(215,53,o),
(140,110,o),
(140,191,cs),
(140,224,o),
(178,264,o),
(231,287,c),
(235,286,l),
(240,290,l),
(266,301,o),
(307,312,o),
(339,317,c),
(329,351,l),
(220,370,o),
(143,434,o),
(143,505,cs),
(143,554,o),
(206,589,o),
(294,589,cs),
(359,589,o),
(407,529,o),
(409,444,c),
(440,444,l),
(443,494,o),
(449,557,o),
(456,595,c),
(420,614,o),
(363,627,o),
(318,627,cs),
(173,627,o),
(70,554,o),
(70,451,cs),
(70,398,o),
(120,340,o),
(191,310,c),
(111,272,o),
(54,198,o),
(54,131,cs),
(54,48,o),
(141,-11,o),
(263,-11,cs)
);
}
);
width = 540;
},
{
anchors = (
{
name = bottom;
pos = (270,0);
},
{
name = top;
pos = (305,616);
}
);
layerId = m006;
shapes = (
{
closed = 1;
nodes = (
(347,-11,o),
(445,37,o),
(498,104,c),
(476,126,l),
(438,83,o),
(374,53,o),
(321,53,cs),
(215,53,o),
(140,110,o),
(140,191,cs),
(140,224,o),
(178,264,o),
(231,287,c),
(235,286,l),
(240,290,l),
(266,301,o),
(307,312,o),
(339,317,c),
(329,351,l),
(220,370,o),
(143,434,o),
(143,505,cs),
(143,554,o),
(206,589,o),
(294,589,cs),
(359,589,o),
(407,529,o),
(409,444,c),
(440,444,l),
(443,494,o),
(449,557,o),
(456,595,c),
(420,614,o),
(363,627,o),
(318,627,cs),
(173,627,o),
(70,554,o),
(70,451,cs),
(70,398,o),
(120,340,o),
(191,310,c),
(111,272,o),
(54,198,o),
(54,131,cs),
(54,48,o),
(141,-11,o),
(263,-11,cs)
);
}
);
width = 540;
},
{
anchors = (
{
name = bottom;
pos = (270,0);
},
{
name = top;
pos = (305,616);
}
);
layerId = m007;
shapes = (
{
closed = 1;
nodes = (
(347,-11,o),
(445,37,o),
(498,104,c),
(476,126,l),
(438,83,o),
(374,53,o),
(321,53,cs),
(215,53,o),
(140,110,o),
(140,191,cs),
(140,224,o),
(178,264,o),
(231,287,c),
(235,286,l),
(240,290,l),
(266,301,o),
(307,312,o),
(339,317,c),
(329,351,l),
(220,370,o),
(143,434,o),
(143,505,cs),
(143,554,o),
(206,589,o),
(294,589,cs),
(359,589,o),
(407,529,o),
(409,444,c),
(440,444,l),
(443,494,o),
(449,557,o),
(456,595,c),
(420,614,o),
(363,627,o),
(318,627,cs),
(173,627,o),
(70,554,o),
(70,451,cs),
(70,398,o),
(120,340,o),
(191,310,c),
(111,272,o),
(54,198,o),
(54,131,cs),
(54,48,o),
(141,-11,o),
(263,-11,cs)
);
}
);
width = 540;
}
);
unicode = 400;
},
{
glyphname = Schwa;
lastChange = "2025-03-23 19:29:39 +0000";
layers = (
{
anchors = (
{
name = bottom;
pos = (250,0);
},
{
name = top;
pos = (255,616);
}
);
layerId = m005;
shapes = (
{
closed = 1;
nodes = (
(77,529,l),
(113,551,o),
(176,566,o),
(229,566,cs),
(332,566,o),
(405,442,o),
(405,279,cs),
(405,133,o),
(357,30,o),
(267,30,cs),
(197,30,o),
(129,104,o),
(125,209,c),
(417,214,l),
(423,246,l),
(36,251,l),
(36,234,l),
(36,91,o),
(133,-11,o),
(248,-11,cs),
(397,-11,o),
(486,124,o),
(486,314,cs),
(486,497,o),
(391,626,o),
(256,626,cs),
(188,626,o),
(108,597,o),
(61,557,c)
);
}
);
width = 522;
},
{
anchors = (
{
name = bottom;
pos = (261,0);
},
{
name = top;
pos = (261,634);
}
);
layerId = m002;
shapes = (
{
closed = 1;
nodes = (
(77,529,l),
(113,551,o),
(176,566,o),
(229,566,cs),
(332,566,o),
(405,442,o),
(405,279,cs),
(405,133,o),
(357,30,o),
(267,30,cs),
(197,30,o),
(129,104,o),
(125,209,c),
(417,214,l),
(423,246,l),
(36,251,l),
(36,234,l),
(36,91,o),
(133,-11,o),
(248,-11,cs),
(397,-11,o),
(486,124,o),
(486,314,cs),
(486,497,o),
(391,626,o),
(256,626,cs),
(188,626,o),
(108,597,o),
(61,557,c)
);
}
);
width = 522;
},
{
anchors = (
{
name = bottom;
pos = (250,0);
},
{
name = top;
pos = (255,616);
}
);
layerId = m006;
shapes = (
{
closed = 1;
nodes = (
(77,529,l),
(113,551,o),
(176,566,o),
(229,566,cs),
(332,566,o),
(405,442,o),
(405,279,cs),
(405,133,o),
(357,30,o),
(267,30,cs),
(197,30,o),
(129,104,o),
(125,209,c),
(417,214,l),
(423,246,l),
(36,251,l),
(36,234,l),
(36,91,o),
(133,-11,o),
(248,-11,cs),
(397,-11,o),
(486,124,o),
(486,314,cs),
(486,497,o),
(391,626,o),
(256,626,cs),
(188,626,o),
(108,597,o),
(61,557,c)
);
}
);
width = 522;
},
{
anchors = (
{
name = bottom;
pos = (250,0);
},
{
name = top;
pos = (255,616);
}
);
layerId = m007;
shapes = (
{
closed = 1;
nodes = (
(77,529,l),
(113,551,o),
(176,566,o),
(229,566,cs),
(332,566,o),
(405,442,o),
(405,279,cs),
(405,133,o),
(357,30,o),
(267,30,cs),
(197,30,o),
(129,104,o),
(125,209,c),
(417,214,l),
(423,246,l),
(36,251,l),
(36,234,l),
(36,91,o),
(133,-11,o),
(248,-11,cs),
(397,-11,o),
(486,124,o),
(486,314,cs),
(486,497,o),
(391,626,o),
(256,626,cs),
(188,626,o),
(108,597,o),
(61,557,c)
);
}
);
width = 522;
}
);
unicode = 399;
},
{
glyphname = F;
lastChange = "2025-04-24 16:54:05 +0000";
layers = (
{
anchors = (
{
name = bottom;
pos = (243,0);
},
{
name = top;
pos = (283,616);
}
);
background = {
shapes = (
{
closed = 1;
nodes = (
(20,0,l),
(303,0,l),
(303,40,l),
(258,40,o),
(223,38,o),
(204,54,cs),
(195,62,o),
(190,73,o),
(190,91,cs),
(188,307,o),
(187,377,o),
(191,574,c),
(208,576,o),
(260,576,o),
(283,576,c),
(283,616,l),
(20,616,l),
(20,591,l),
(54,581,o),
(78,582,o),
(92,572,cs),
(102,565,o),
(107,552,o),
(107,525,cs),
(108,341,o),
(109,253,o),
(109,312,cs),
(109,373,o),
(108,282,o),
(107,91,cs),
(107,65,o),
(101,51,o),
(92,43,cs),
(76,29,o),
(50,31,o),
(20,25,c)
);
}
);
};
color = 2;
layerId = m005;
shapes = (
{
closed = 1;
nodes = (
(45,0,o),
(251,0,o),
(306,0,c),
(306,29,l),
(254,35,o),
(221,35,o),
(203,54,cs),
(194,64,o),
(189,79,o),
(189,103,cs),
(187,260,o),
(188,421,o),
(191,578,c),
(212,579,o),
(261,580,o),
(283,580,cs),
(311,580,o),
(333,580,o),
(365,578,cs),
(390,576,o),
(412,544,o),
(420,499,c),
(452,499,l),
(454,536,o),
(461,586,o),
(468,619,c),
(403,617,o),
(268,616,o),
(148,616,c),
(99,616,o),
(48,617,o),
(19,618,c),
(19,592,l),
(54,586,o),
(77,584,o),
(92,572,cs),
(101,563,o),
(107,550,o),
(107,525,cs),
(109,380,o),
(109,236,o),
(107,91,cs),
(107,67,o),
(103,53,o),
(94,44,cs),
(81,30,o),
(58,27,o),
(18,23,c),
(18,-1,l)
);
},
{
closed = 1;
nodes = (
(393,206,l),
(387,272,o),
(387,364,o),
(393,430,c),
(368,430,l),
(367,424,o),
(362,410,o),
(357,396,c),
(340,360,o),
(317,336,o),
(275,336,cs),
(141,336,l),
(141,296,l),
(275,296,ls),
(324,296,o),
(346,274,o),
(358,242,cs),
(369,206,l)
);
}
);
width = 486;
},
{
anchors = (
{
name = bottom;
pos = (261,0);
},
{
name = top;
pos = (261,634);
}
);
background = {
shapes = (
{
closed = 1;
nodes = (
(27,0,o),
(233,0,o),
(288,0,c),
(288,29,l),
(236,35,o),
(203,35,o),
(185,54,cs),
(176,64,o),
(171,79,o),
(171,103,cs),
(169,260,o),
(170,421,o),
(173,578,c),
(194,579,o),
(243,580,o),
(265,580,cs),
(293,580,o),
(315,580,o),
(347,578,cs),
(372,576,o),
(394,544,o),
(402,499,c),
(434,499,l),
(436,536,o),
(443,586,o),
(450,619,c),
(385,617,o),
(250,616,o),
(130,616,c),
(81,616,o),
(30,617,o),
(1,618,c),
(1,592,l),
(36,586,o),
(59,584,o),
(74,572,cs),
(83,563,o),
(89,550,o),
(89,525,cs),
(91,380,o),
(91,236,o),
(89,91,cs),
(89,67,o),
(85,53,o),
(76,44,cs),
(63,30,o),
(40,27,o),
(0,23,c),
(0,-1,l)
);
},
{
closed = 1;
nodes = (
(375,206,l),
(369,272,o),
(369,364,o),
(375,430,c),
(350,430,l),
(349,424,o),
(344,410,o),
(339,396,c),
(322,360,o),
(299,336,o),
(257,336,cs),
(123,336,l),
(123,296,l),
(257,296,ls),
(306,296,o),
(328,274,o),
(340,242,cs),
(351,206,l)
);
},
{
closed = 1;
nodes = (
(99,18,o),
(305,18,o),
(360,18,c),
(360,47,l),
(308,53,o),
(275,53,o),
(257,72,cs),
(248,82,o),
(243,97,o),
(243,121,cs),
(241,278,o),
(242,439,o),
(245,596,c),
(266,597,o),
(315,598,o),
(337,598,cs),
(365,598,o),
(387,598,o),
(419,596,cs),
(444,594,o),
(466,562,o),
(474,517,c),
(506,517,l),
(508,554,o),
(515,604,o),
(522,637,c),
(457,635,o),
(322,634,o),
(202,634,c),
(153,634,o),
(102,635,o),
(73,636,c),
(73,610,l),
(108,604,o),
(131,602,o),
(146,590,cs),
(155,581,o),
(161,568,o),
(161,543,cs),
(163,398,o),
(163,254,o),
(161,109,cs),
(161,85,o),
(157,71,o),
(148,62,cs),
(135,48,o),
(112,45,o),
(72,41,c),
(72,17,l)
);
},
{
closed = 1;
nodes = (
(447,224,l),
(441,290,o),
(441,382,o),
(447,448,c),
(422,448,l),
(421,442,o),
(416,428,o),
(411,414,c),
(394,378,o),
(371,354,o),
(329,354,cs),
(195,354,l),
(195,314,l),
(329,314,ls),
(378,314,o),
(400,292,o),
(412,260,cs),
(423,224,l)
);
}
);
};
color = 2;
layerId = m002;
shapes = (
{
closed = 1;
nodes = (
(27,0,o),
(305,0,o),
(360,0,c),
(360,29,l),
(308,35,o),
(275,35,o),
(257,54,cs),
(248,64,o),
(243,79,o),
(243,103,cs),
(241,260,o),
(242,421,o),
(245,596,c),
(266,597,o),
(315,598,o),
(337,598,cs),
(365,598,o),
(369,598,o),
(401,596,cs),
(426,594,o),
(448,562,o),
(456,481,c),
(506,481,l),
(508,554,o),
(515,604,o),
(522,637,c),
(457,635,o),
(322,634,o),
(130,634,c),
(81,634,o),
(30,635,o),
(1,636,c),
(1,610,l),
(36,604,o),
(59,602,o),
(73,589,cs),
(83,581,o),
(89,568,o),
(89,543,cs),
(91,380,o),
(91,236,o),
(89,91,cs),
(89,67,o),
(85,53,o),
(76,44,cs),
(63,30,o),
(40,27,o),
(0,23,c),
(0,-1,l)
);
},
{
closed = 1;
nodes = (
(439,206,l),
(433,272,o),
(433,364,o),
(439,430,c),
(386,430,l),
(385,424,o),
(380,410,o),
(375,396,c),
(358,360,o),
(299,336,o),
(257,336,cs),
(123,336,l),
(123,296,l),
(257,296,ls),
(342,296,o),
(364,274,o),
(376,242,cs),
(387,206,l)
);
}
);
width = 537;
},
{
anchors = (
{
name = bottom;
pos = (261,0);
},
{
name = top;
pos = (301,616);
}
);
background = {
shapes = (
{
closed = 1;
nodes = (
(38,0,l),
(321,0,l),
(321,40,l),
(276,40,o),
(241,38,o),
(222,54,cs),
(213,62,o),
(208,73,o),
(208,91,cs),
(206,307,o),
(205,377,o),
(209,574,c),
(226,576,o),
(278,576,o),
(301,576,c),
(301,616,l),
(38,616,l),
(38,591,l),
(72,581,o),
(96,582,o),
(110,572,cs),
(120,565,o),
(125,552,o),
(125,525,cs),
(126,341,o),
(127,253,o),
(127,312,cs),
(127,373,o),
(126,282,o),
(125,91,cs),
(125,65,o),
(119,51,o),
(110,43,cs),
(94,29,o),
(68,31,o),
(38,25,c)
);
}
);
};
color = 2;
layerId = m006;
shapes = (
{
closed = 1;
nodes = (
(63,0,o),
(269,0,o),
(324,0,c),
(324,29,l),
(272,35,o),
(239,35,o),
(221,54,cs),
(212,64,o),
(207,79,o),
(207,103,cs),
(205,260,o),
(206,421,o),
(209,578,c),
(230,579,o),
(279,580,o),
(301,580,cs),
(329,580,o),
(351,580,o),
(383,578,cs),
(408,576,o),
(430,544,o),
(438,499,c),
(470,499,l),
(472,536,o),
(479,586,o),
(486,619,c),
(421,617,o),
(286,616,o),
(166,616,c),
(117,616,o),
(66,617,o),
(37,618,c),
(37,592,l),
(72,586,o),
(95,584,o),
(110,572,cs),
(119,563,o),
(125,550,o),
(125,525,cs),
(127,380,o),
(127,236,o),
(125,91,cs),
(125,67,o),
(121,53,o),
(112,44,cs),
(99,30,o),
(76,27,o),
(36,23,c),
(36,-1,l)
);
},
{
closed = 1;
nodes = (
(411,206,l),
(405,272,o),
(405,364,o),
(411,430,c),
(386,430,l),
(385,424,o),
(380,410,o),
(375,396,c),
(358,360,o),
(335,336,o),
(293,336,cs),
(159,336,l),
(159,296,l),
(293,296,ls),
(342,296,o),
(364,274,o),
(376,242,cs),
(387,206,l)
);
}
);
width = 507;
},
{
anchors = (
{
name = bottom;
pos = (231,0);
},
{
name = top;
pos = (271,616);
}
);
background = {
shapes = (
{
closed = 1;
nodes = (
(8,0,l),
(291,0,l),
(291,40,l),
(246,40,o),
(211,38,o),
(192,54,cs),
(183,62,o),
(178,73,o),
(178,91,cs),
(176,307,o),
(175,377,o),
(179,574,c),
(196,576,o),
(248,576,o),
(271,576,c),
(271,616,l),
(8,616,l),
(8,591,l),
(42,581,o),
(66,582,o),
(80,572,cs),
(90,565,o),
(95,552,o),
(95,525,cs),
(96,341,o),
(97,253,o),
(97,312,cs),
(97,373,o),
(96,282,o),
(95,91,cs),
(95,65,o),
(89,51,o),
(80,43,cs),
(64,29,o),
(38,31,o),
(8,25,c)
);
}
);
};
color = 2;
layerId = m007;
shapes = (
{
closed = 1;
nodes = (
(33,0,o),
(239,0,o),
(294,0,c),
(294,29,l),
(242,35,o),
(209,35,o),
(191,54,cs),
(182,64,o),
(177,79,o),
(177,103,cs),
(175,260,o),
(176,421,o),
(179,578,c),
(200,579,o),
(249,580,o),
(271,580,cs),
(299,580,o),
(321,580,o),
(353,578,cs),
(378,576,o),
(400,544,o),
(408,499,c),
(440,499,l),
(442,536,o),
(449,586,o),
(456,619,c),
(391,617,o),
(256,616,o),
(136,616,c),
(87,616,o),
(36,617,o),
(7,618,c),
(7,592,l),
(42,586,o),
(65,584,o),
(80,572,cs),
(89,563,o),
(95,550,o),
(95,525,cs),
(97,380,o),
(97,236,o),
(95,91,cs),
(95,67,o),
(91,53,o),
(82,44,cs),
(69,30,o),
(46,27,o),
(6,23,c),
(6,-1,l)
);
},
{
closed = 1;
nodes = (
(381,206,l),
(375,272,o),
(375,364,o),
(381,430,c),
(356,430,l),
(355,424,o),
(350,410,o),
(345,396,c),
(328,360,o),
(305,336,o),
(263,336,cs),
(129,336,l),
(129,296,l),
(263,296,ls),
(312,296,o),
(334,274,o),
(346,242,cs),
(357,206,l)
);
}
);
width = 472;
}
);
unicode = 70;
},
{
glyphname = Fhook;
lastChange = "2025-03-23 19:29:39 +0000";
layers = (
{
layerId = m005;
shapes = (
{
closed = 1;
nodes = (
(189,148,l),
(187,305,o),
(188,421,o),
(191,578,c),
(212,579,o),
(261,580,o),
(283,580,cs),
(311,580,o),
(333,580,o),
(365,578,cs),
(390,576,o),
(412,544,o),
(420,499,c),
(452,499,l),
(454,536,o),
(461,586,o),
(468,619,c),
(403,617,o),
(268,616,o),
(148,616,c),
(99,616,o),
(48,617,o),
(19,618,c),
(19,592,l),
(54,586,o),
(77,584,o),
(92,572,cs),
(101,563,o),
(107,550,o),
(107,525,cs),
(109,380,o),
(110,226,o),
(108,81,c)
);
},
{
closed = 1;
nodes = (
(393,206,l),
(387,272,o),
(387,364,o),
(393,430,c),
(368,430,l),
(367,424,o),
(362,410,o),
(357,396,c),
(340,360,o),
(317,336,o),
(275,336,cs),
(141,336,l),
(141,296,l),
(275,296,ls),
(324,296,o),
(346,274,o),
(358,242,cs),
(369,206,l)
);
},
{
closed = 1;
nodes = (
(108,81,l),
(108,33,o),
(108,-90,o),
(77,-138,cs),
(70,-150,o),
(60,-157,o),
(48,-157,cs),
(29,-158,o),
(27,-135,o),
(8,-134,cs),
(-25,-134,o),
(-48,-163,o),
(-48,-205,cs),
(-48,-220,o),
(-30,-232,o),
(-4,-232,cs),
(30,-232,o),
(85,-190,o),
(103,-164,cs),
(150,-96,o),
(191,29,o),
(189,148,c)
);
}
);
width = 486;
},
{
layerId = m002;
shapes = (
{
closed = 1;
nodes = (
(189,148,l),
(187,305,o),
(188,421,o),
(191,578,c),
(212,579,o),
(261,580,o),
(283,580,cs),
(311,580,o),
(333,580,o),
(365,578,cs),
(390,576,o),
(412,544,o),
(420,499,c),
(452,499,l),
(454,536,o),
(461,586,o),
(468,619,c),
(403,617,o),
(268,616,o),
(148,616,c),
(99,616,o),
(48,617,o),
(19,618,c),
(19,592,l),
(54,586,o),
(77,584,o),
(92,572,cs),
(101,563,o),
(107,550,o),
(107,525,cs),
(109,380,o),
(110,226,o),
(108,81,c)
);
},
{
closed = 1;
nodes = (
(393,206,l),
(387,272,o),
(387,364,o),
(393,430,c),
(368,430,l),
(367,424,o),
(362,410,o),
(357,396,c),
(340,360,o),
(317,336,o),
(275,336,cs),
(141,336,l),
(141,296,l),
(275,296,ls),
(324,296,o),
(346,274,o),
(358,242,cs),
(369,206,l)
);
},
{
closed = 1;
nodes = (
(108,81,l),
(108,33,o),
(108,-90,o),
(77,-138,cs),
(70,-150,o),
(60,-157,o),
(48,-157,cs),
(29,-158,o),
(27,-135,o),
(8,-134,cs),
(-25,-134,o),
(-48,-163,o),
(-48,-205,cs),
(-48,-220,o),
(-30,-232,o),
(-4,-232,cs),
(30,-232,o),
(85,-190,o),
(103,-164,cs),
(150,-96,o),
(191,29,o),
(189,148,c)
);
}
);
width = 486;
},
{
layerId = m006;
shapes = (
{
closed = 1;
nodes = (
(189,148,l),
(187,305,o),
(188,421,o),
(191,578,c),
(212,579,o),
(261,580,o),
(283,580,cs),
(311,580,o),
(333,580,o),
(365,578,cs),
(390,576,o),
(412,544,o),
(420,499,c),
(452,499,l),
(454,536,o),
(461,586,o),
(468,619,c),
(403,617,o),
(268,616,o),
(148,616,c),
(99,616,o),
(48,617,o),
(19,618,c),
(19,592,l),
(54,586,o),
(77,584,o),
(92,572,cs),
(101,563,o),
(107,550,o),
(107,525,cs),
(109,380,o),
(110,226,o),
(108,81,c)
);
},
{
closed = 1;
nodes = (
(393,206,l),
(387,272,o),
(387,364,o),
(393,430,c),
(368,430,l),
(367,424,o),
(362,410,o),
(357,396,c),
(340,360,o),
(317,336,o),
(275,336,cs),
(141,336,l),
(141,296,l),
(275,296,ls),
(324,296,o),
(346,274,o),
(358,242,cs),
(369,206,l)
);
},
{
closed = 1;
nodes = (
(108,81,l),
(108,33,o),
(108,-90,o),
(77,-138,cs),
(70,-150,o),
(60,-157,o),
(48,-157,cs),
(29,-158,o),
(27,-135,o),
(8,-134,cs),
(-25,-134,o),
(-48,-163,o),
(-48,-205,cs),
(-48,-220,o),
(-30,-232,o),
(-4,-232,cs),
(30,-232,o),
(85,-190,o),
(103,-164,cs),
(150,-96,o),
(191,29,o),
(189,148,c)
);
}
);
width = 486;
},
{
layerId = m007;
shapes = (
{
closed = 1;
nodes = (
(189,148,l),
(187,305,o),
(188,421,o),
(191,578,c),
(212,579,o),
(261,580,o),
(283,580,cs),
(311,580,o),
(333,580,o),
(365,578,cs),
(390,576,o),
(412,544,o),
(420,499,c),
(452,499,l),
(454,536,o),
(461,586,o),
(468,619,c),
(403,617,o),
(268,616,o),
(148,616,c),
(99,616,o),
(48,617,o),
(19,618,c),
(19,592,l),
(54,586,o),
(77,584,o),
(92,572,cs),
(101,563,o),
(107,550,o),
(107,525,cs),
(109,380,o),
(110,226,o),
(108,81,c)
);
},
{
closed = 1;
nodes = (
(393,206,l),
(387,272,o),
(387,364,o),
(393,430,c),
(368,430,l),
(367,424,o),
(362,410,o),
(357,396,c),
(340,360,o),
(317,336,o),
(275,336,cs),
(141,336,l),
(141,296,l),
(275,296,ls),
(324,296,o),
(346,274,o),
(358,242,cs),
(369,206,l)
);
},
{
closed = 1;
nodes = (
(108,81,l),
(108,33,o),
(108,-90,o),
(77,-138,cs),
(70,-150,o),
(60,-157,o),
(48,-157,cs),
(29,-158,o),
(27,-135,o),
(8,-134,cs),
(-25,-134,o),
(-48,-163,o),
(-48,-205,cs),
(-48,-220,o),
(-30,-232,o),
(-4,-232,cs),
(30,-232,o),
(85,-190,o),
(103,-164,cs),
(150,-96,o),
(191,29,o),
(189,148,c)
);
}
);
width = 486;
}
);
unicode = 401;
},
{
glyphname = G;
lastChange = "2025-04-24 16:54:05 +0000";
layers = (
{
anchors = (
{
name = bottom;
pos = (404,0);
},
{
name = top;
pos = (410,616);
}
);
backgroundImage = {
imagePath = "../../Desktop/Bildschirmfoto 2024-12-23 um 19.38.00.png";
pos = (715,-876);
scale = (-1.37,1.3692);
};
color = 3;
layerId = m005;
shapes = (
{
closed = 1;
nodes = (
(488,-11,o),
(589,11,o),
(644,43,c),
(640,56,l),
(622,57,o),
(612,67,o),
(612,79,c),
(612,200,l),
(612,225,o),
(625,247,o),
(648,252,c),
(684,258,l),
(684,287,l),
(432,287,l),
(432,253,l),
(485,244,o),
(529,225,o),
(529,188,c),
(529,76,l),
(529,55,o),
(494,33,o),
(449,33,cs),
(267,33,o),
(149,141,o),
(149,333,cs),
(149,482,o),
(263,588,o),
(418,588,cs),
(514,588,o),
(584,528,o),
(589,444,c),
(620,444,l),
(622,495,o),
(629,558,o),
(636,595,c),
(586,614,o),
(492,627,o),
(410,627,cs),
(205,627,o),
(54,495,o),
(54,308,cs),
(54,121,o),
(203,-11,o),
(404,-11,cs)
);
}
);
width = 720;
},
{
anchors = (
{
name = bottom;
pos = (378,0);
},
{
name = top;
pos = (378,634);
}
);
background = {
shapes = (
{
closed = 1;
nodes = (
(479,-11,o),
(580,11,o),
(635,43,c),
(631,56,l),
(613,57,o),
(603,67,o),
(603,79,c),
(603,200,l),
(603,225,o),
(616,247,o),
(639,252,c),
(675,258,l),
(675,287,l),
(423,287,l),
(423,253,l),
(476,244,o),
(520,225,o),
(520,188,c),
(520,76,l),
(520,55,o),
(485,33,o),
(440,33,cs),
(258,33,o),
(140,141,o),
(140,333,cs),
(140,482,o),
(254,588,o),
(409,588,cs),
(505,588,o),
(575,528,o),
(580,444,c),
(611,444,l),
(613,495,o),
(620,558,o),
(627,595,c),
(577,614,o),
(483,627,o),
(401,627,cs),
(196,627,o),
(45,495,o),
(45,308,cs),
(45,121,o),
(194,-11,o),
(395,-11,cs)
);
},
{
closed = 1;
nodes = (
(551,7,o),
(652,29,o),
(707,61,c),
(703,74,l),
(685,75,o),
(675,85,o),
(675,97,c),
(675,218,l),
(675,243,o),
(688,265,o),
(711,270,c),
(747,276,l),
(747,305,l),
(495,305,l),
(495,271,l),
(548,262,o),
(592,243,o),
(592,206,c),
(592,94,l),
(592,73,o),
(557,51,o),
(512,51,cs),
(330,51,o),
(212,159,o),
(212,351,cs),
(212,500,o),
(326,606,o),
(481,606,cs),
(577,606,o),
(647,546,o),
(652,462,c),
(683,462,l),
(685,513,o),
(692,576,o),
(699,613,c),
(649,632,o),
(555,645,o),
(473,645,cs),
(268,645,o),
(117,513,o),
(117,326,cs),
(117,139,o),
(266,7,o),
(467,7,cs)
);
}
);
};
backgroundImage = {
imagePath = "../../Desktop/Bildschirmfoto 2024-12-23 um 19.38.00.png";
pos = (706,-876);
scale = (-1.37,1.3692);
};
color = 3;
layerId = m002;
shapes = (
{
closed = 1;
nodes = (
(538,-11,o),
(653,11,o),
(707,43,c),
(703,56,l),
(687,57,o),
(675,66,o),
(675,79,c),
(675,200,l),
(675,225,o),
(688,247,o),
(711,252,c),
(747,258,l),
(747,287,l),
(423,287,l),
(423,253,l),
(512,244,o),
(520,225,o),
(520,188,c),
(520,76,l),
(520,51,o),
(487,33,o),
(440,33,cs),
(306,33,o),
(212,165,o),
(212,351,cs),
(212,500,o),
(309,606,o),
(445,606,cs),
(551,606,o),
(629,546,o),
(634,426,c),
(683,426,l),
(685,525,o),
(700,587,o),
(717,613,c),
(650,632,o),
(534,645,o),
(437,645,cs),
(207,645,o),
(45,513,o),
(45,326,cs),
(45,129,o),
(205,-11,o),
(431,-11,cs)
);
}
);
width = 765;
},
{
anchors = (
{
name = bottom;
pos = (413,0);
},
{
name = top;
pos = (419,616);
}
);
backgroundImage = {
imagePath = "../../Desktop/Bildschirmfoto 2024-12-23 um 19.38.00.png";
pos = (724,-876);
scale = (-1.37,1.3692);
};
color = 3;
layerId = m006;
shapes = (
{
closed = 1;
nodes = (
(497,-11,o),
(598,11,o),
(653,43,c),
(649,56,l),
(631,57,o),
(621,67,o),
(621,79,c),
(621,200,l),
(621,225,o),
(634,247,o),
(657,252,c),
(693,258,l),
(693,287,l),
(441,287,l),
(441,253,l),
(494,244,o),
(538,225,o),
(538,188,c),
(538,76,l),
(538,55,o),
(503,33,o),
(458,33,cs),
(276,33,o),
(158,141,o),
(158,333,cs),
(158,482,o),
(272,588,o),
(427,588,cs),
(523,588,o),
(593,528,o),
(598,444,c),
(629,444,l),
(631,495,o),
(638,558,o),
(645,595,c),
(595,614,o),
(501,627,o),
(419,627,cs),
(214,627,o),
(63,495,o),
(63,308,cs),
(63,121,o),
(212,-11,o),
(413,-11,cs)
);
}
);
width = 747;
},
{
anchors = (
{
name = bottom;
pos = (398,0);
},
{
name = top;
pos = (404,616);
}
);
backgroundImage = {
imagePath = "../../Desktop/Bildschirmfoto 2024-12-23 um 19.38.00.png";
pos = (709,-876);
scale = (-1.37,1.3692);
};
color = 3;
layerId = m007;
shapes = (
{
closed = 1;
nodes = (
(482,-11,o),
(583,11,o),
(638,43,c),
(634,56,l),
(616,57,o),
(606,67,o),
(606,79,c),
(606,200,l),
(606,225,o),
(619,247,o),
(642,252,c),
(678,258,l),
(678,287,l),
(426,287,l),
(426,253,l),
(479,244,o),
(523,225,o),
(523,188,c),
(523,76,l),
(523,55,o),
(488,33,o),
(443,33,cs),
(261,33,o),
(143,141,o),
(143,333,cs),
(143,482,o),
(257,588,o),
(412,588,cs),
(508,588,o),
(578,528,o),
(583,444,c),
(614,444,l),
(616,495,o),
(623,558,o),
(630,595,c),
(580,614,o),
(486,627,o),
(404,627,cs),
(199,627,o),
(48,495,o),
(48,308,cs),
(48,121,o),
(197,-11,o),
(398,-11,cs)
);
}
);
width = 702;
}
);
unicode = 71;
},
{
glyphname = H;
lastChange = "2025-04-24 16:54:05 +0000";
layers = (
{
anchors = (
{
name = bottom;
pos = (378,0);
},
{
name = center;
pos = (378,462);
},
{
name = top;
pos = (378,616);
},
{
name = topleft;
pos = (20,616);
}
);
background = {
shapes = (
{
closed = 1;
nodes = (
(180,609,l,{
"Letterink-NibData" = {
AngleInDegrees = "0";
};
}),
(176,616,l,{
"Letterink-NibData" = {
AngleInDegrees = "360";
};
}),
(107,576,l),
(107,7,l,{
"Letterink-NibData" = {
AngleInDegrees = "360";
};
}),
(111,0,l,{
"Letterink-NibData" = {
AngleInDegrees = "360";
};
}),
(180,40,l),
(180,304,l),
(594,304,l),
(594,7,l,{
"Letterink-NibData" = {
AngleInDegrees = "360";
};
}),
(598,0,l,{
"Letterink-NibData" = {
AngleInDegrees = "360";
};
}),
(668,40,l),
(668,609,l,{
"Letterink-NibData" = {
AngleInDegrees = "0";
};
}),
(664,616,l,{
"Letterink-NibData" = {
AngleInDegrees = "359.99999";
};
}),
(594,576,l),
(594,351,l),
(180,351,l)
);
},
{
closed = 0;
nodes = (
(252,616,l),
(252,591,l),
(224,583,o),
(206,576,o),
(195,564,cs),
(186,553,o),
(182,538,o),
(182,512,cs)
);
}
);
};
color = 1;
layerId = m005;
shapes = (
{
closed = 1;
nodes = (
(288,0,l),
(288,25,l),
(257,33,o),
(214,39,o),
(203,51,cs),
(193,61,o),
(188,77,o),
(188,104,cs),
(187,178,o),
(187,252,o),
(186,326,cs),
(185,388,o),
(187,450,o),
(188,512,cs),
(188,539,o),
(194,556,o),
(203,565,cs),
(214,577,o),
(257,583,o),
(288,591,c),
(288,616,l),
(18,616,l),
(18,591,l),
(40,583,o),
(83,576,o),
(94,564,cs),
(103,553,o),
(107,538,o),
(107,512,cs),
(108,450,o),
(109,389,o),
(109,327,cs),
(109,253,o),
(108,178,o),
(107,104,cs),
(107,78,o),
(103,63,o),
(94,52,cs),
(83,40,o),
(40,33,o),
(18,25,c),
(18,0,l)
);
},
{
closed = 1;
nodes = (
(738,0,l),
(738,25,l),
(717,33,o),
(675,39,o),
(664,51,cs),
(654,61,o),
(649,77,o),
(649,104,cs),
(648,179,o),
(648,255,o),
(647,330,cs),
(646,391,o),
(648,451,o),
(649,512,cs),
(649,539,o),
(653,554,o),
(664,565,cs),
(675,577,o),
(717,583,o),
(738,591,c),
(738,616,l),
(468,616,l),
(468,591,l),
(500,583,o),
(544,576,o),
(555,564,cs),
(564,553,o),
(568,538,o),
(568,512,cs),
(569,451,o),
(570,390,o),
(570,329,cs),
(570,254,o),
(569,179,o),
(568,104,cs),
(568,78,o),
(564,63,o),
(555,52,cs),
(544,40,o),
(500,33,o),
(468,25,c),
(468,0,l)
);
},
{
closed = 1;
nodes = (
(601,304,l),
(601,349,l),
(154,349,l),
(154,304,l)
);
}
);
width = 756;
},
{
anchors = (
{
name = bottom;
pos = (396,0);
},
{
name = center;
pos = (396,476);
},
{
name = top;
pos = (396,634);
},
{
name = topleft;
pos = (2,634);
}
);
background = {
shapes = (
{
closed = 1;
nodes = (
(270,0,l),
(270,25,l),
(239,33,o),
(196,39,o),
(185,51,cs),
(175,61,o),
(170,77,o),
(170,104,cs),
(169,178,o),
(169,252,o),
(168,326,cs),
(167,388,o),
(169,450,o),
(170,512,cs),
(170,539,o),
(176,556,o),
(185,565,cs),
(196,577,o),
(239,583,o),
(270,591,c),
(270,616,l),
(0,616,l),
(0,591,l),
(22,583,o),
(65,576,o),
(76,564,cs),
(85,553,o),
(89,538,o),
(89,512,cs),
(90,450,o),
(91,389,o),
(91,327,cs),
(91,253,o),
(90,178,o),
(89,104,cs),
(89,78,o),
(85,63,o),
(76,52,cs),
(65,40,o),
(22,33,o),
(0,25,c),
(0,0,l)
);
},
{
closed = 1;
nodes = (
(720,0,l),
(720,25,l),
(699,33,o),
(657,39,o),
(646,51,cs),
(636,61,o),
(631,77,o),
(631,104,cs),
(630,179,o),
(630,255,o),
(629,330,cs),
(628,391,o),
(630,451,o),
(631,512,cs),
(631,539,o),
(635,554,o),
(646,565,cs),
(657,577,o),
(699,583,o),
(720,591,c),
(720,616,l),
(450,616,l),
(450,591,l),
(482,583,o),
(526,576,o),
(537,564,cs),
(546,553,o),
(550,538,o),
(550,512,cs),
(551,451,o),
(552,390,o),
(552,329,cs),
(552,254,o),
(551,179,o),
(550,104,cs),
(550,78,o),
(546,63,o),
(537,52,cs),
(526,40,o),
(482,33,o),
(450,25,c),
(450,0,l)
);
},
{
closed = 1;
nodes = (
(583,304,l),
(583,349,l),
(136,349,l),
(136,304,l)
);
},
{
closed = 1;
nodes = (
(342,18,l),
(342,43,l),
(311,51,o),
(268,57,o),
(257,69,cs),
(247,79,o),
(242,95,o),
(242,122,cs),
(241,196,o),
(241,270,o),
(240,344,cs),
(239,406,o),
(241,468,o),
(242,530,cs),
(242,557,o),
(248,574,o),
(257,583,cs),
(268,595,o),
(311,601,o),
(342,609,c),
(342,634,l),
(72,634,l),
(72,609,l),
(94,601,o),
(137,594,o),
(148,582,cs),
(157,571,o),
(161,556,o),
(161,530,cs),
(162,468,o),
(163,407,o),
(163,345,cs),
(163,271,o),
(162,196,o),
(161,122,cs),
(161,96,o),
(157,81,o),
(148,70,cs),
(137,58,o),
(94,51,o),
(72,43,c),
(72,18,l)
);
},
{
closed = 1;
nodes = (
(792,18,l),
(792,43,l),
(771,51,o),
(729,57,o),
(718,69,cs),
(708,79,o),
(703,95,o),
(703,122,cs),
(702,197,o),
(702,273,o),
(701,348,cs),
(700,409,o),
(702,469,o),
(703,530,cs),
(703,557,o),
(707,572,o),
(718,583,cs),
(729,595,o),
(771,601,o),
(792,609,c),
(792,634,l),
(522,634,l),
(522,609,l),
(554,601,o),
(598,594,o),
(609,582,cs),
(618,571,o),
(622,556,o),
(622,530,cs),
(623,469,o),
(624,408,o),
(624,347,cs),
(624,272,o),
(623,197,o),
(622,122,cs),
(622,96,o),
(618,81,o),
(609,70,cs),
(598,58,o),
(554,51,o),
(522,43,c),
(522,18,l)
);
},
{
closed = 1;
nodes = (
(655,322,l),
(655,367,l),
(208,367,l),
(208,322,l)
);
}
);
};
color = 1;
layerId = m002;
shapes = (
{
closed = 1;
nodes = (
(342,0,l),
(342,25,l),
(311,33,o),
(268,39,o),
(257,51,cs),
(247,61,o),
(242,77,o),
(242,104,cs),
(241,178,o),
(241,270,o),
(240,344,cs),
(239,406,o),
(241,468,o),
(242,530,cs),
(242,557,o),
(248,574,o),
(257,583,cs),
(268,595,o),
(311,601,o),
(342,609,c),
(342,634,l),
(0,634,l),
(0,609,l),
(22,601,o),
(65,594,o),
(76,582,cs),
(85,571,o),
(89,556,o),
(89,530,cs),
(90,468,o),
(91,407,o),
(91,345,cs),
(91,271,o),
(90,178,o),
(89,104,cs),
(89,78,o),
(85,63,o),
(76,52,cs),
(65,40,o),
(22,33,o),
(0,25,c),
(0,0,l)
);
},
{
closed = 1;
nodes = (
(792,0,l),
(792,25,l),
(771,33,o),
(729,39,o),
(718,51,cs),
(708,61,o),
(703,77,o),
(703,104,cs),
(702,179,o),
(702,273,o),
(701,348,cs),
(700,409,o),
(702,469,o),
(703,530,cs),
(703,557,o),
(707,572,o),
(718,583,cs),
(729,595,o),
(771,601,o),
(792,609,c),
(792,634,l),
(450,634,l),
(450,609,l),
(482,601,o),
(526,594,o),
(537,582,cs),
(546,571,o),
(550,556,o),
(550,530,cs),
(551,469,o),
(552,408,o),
(552,347,cs),
(552,272,o),
(551,179,o),
(550,104,cs),
(550,78,o),
(546,63,o),
(537,52,cs),
(526,40,o),
(482,33,o),
(450,25,c),
(450,0,l)
);
},
{
closed = 1;
nodes = (
(619,304,l),
(619,349,l),
(172,349,l),
(172,304,l)
);
}
);
width = 792;
},
{
anchors = (
{
name = bottom;
pos = (396,0);
},
{
name = center;
pos = (396,462);
},
{
name = top;
pos = (396,616);
},
{
name = topleft;
pos = (38,616);
}
);
background = {
shapes = (
{
closed = 1;
nodes = (
(198,609,l,{
"Letterink-NibData" = {
AngleInDegrees = "0";
};
}),
(194,616,l,{
"Letterink-NibData" = {
AngleInDegrees = "360";
};
}),
(125,576,l),
(125,7,l,{
"Letterink-NibData" = {
AngleInDegrees = "360";
};
}),
(129,0,l,{
"Letterink-NibData" = {
AngleInDegrees = "360";
};
}),
(198,40,l),
(198,304,l),
(612,304,l),
(612,7,l,{
"Letterink-NibData" = {
AngleInDegrees = "360";
};
}),
(616,0,l,{
"Letterink-NibData" = {
AngleInDegrees = "360";
};
}),
(686,40,l),
(686,609,l,{
"Letterink-NibData" = {
AngleInDegrees = "0";
};
}),
(682,616,l,{
"Letterink-NibData" = {
AngleInDegrees = "359.99999";
};
}),
(612,576,l),
(612,351,l),
(198,351,l)
);
},
{
closed = 0;
nodes = (
(270,616,l),
(270,591,l),
(242,583,o),
(224,576,o),
(213,564,cs),
(204,553,o),
(200,538,o),
(200,512,cs)
);
}
);
};
color = 1;
layerId = m006;
shapes = (
{
closed = 1;
nodes = (
(306,0,l),
(306,25,l),
(275,33,o),
(232,39,o),
(221,51,cs),
(211,61,o),
(206,77,o),
(206,104,cs),
(205,178,o),
(205,252,o),
(204,326,cs),
(203,388,o),
(205,450,o),
(206,512,cs),
(206,539,o),
(212,556,o),
(221,565,cs),
(232,577,o),
(275,583,o),
(306,591,c),
(306,616,l),
(36,616,l),
(36,591,l),
(58,583,o),
(101,576,o),
(112,564,cs),
(121,553,o),
(125,538,o),
(125,512,cs),
(126,450,o),
(127,389,o),
(127,327,cs),
(127,253,o),
(126,178,o),
(125,104,cs),
(125,78,o),
(121,63,o),
(112,52,cs),
(101,40,o),
(58,33,o),
(36,25,c),
(36,0,l)
);
},
{
closed = 1;
nodes = (
(792,0,l),
(792,25,l),
(771,33,o),
(729,39,o),
(718,51,cs),
(708,61,o),
(703,77,o),
(703,104,cs),
(702,179,o),
(702,255,o),
(701,330,cs),
(700,391,o),
(702,451,o),
(703,512,cs),
(703,539,o),
(707,554,o),
(718,565,cs),
(729,577,o),
(771,583,o),
(792,591,c),
(792,616,l),
(522,616,l),
(522,591,l),
(554,583,o),
(598,576,o),
(609,564,cs),
(618,553,o),
(622,538,o),
(622,512,cs),
(623,451,o),
(624,390,o),
(624,329,cs),
(624,254,o),
(623,179,o),
(622,104,cs),
(622,78,o),
(618,63,o),
(609,52,cs),
(598,40,o),
(554,33,o),
(522,25,c),
(522,0,l)
);
},
{
closed = 1;
nodes = (
(655,304,l),
(655,349,l),
(172,349,l),
(172,304,l)
);
}
);
width = 828;
},
{
anchors = (
{
name = bottom;
pos = (366,0);
},
{
name = center;
pos = (366,462);
},
{
name = top;
pos = (366,616);
},
{
name = topleft;
pos = (8,616);
}
);
background = {
shapes = (
{
closed = 1;
nodes = (
(168,609,l,{
"Letterink-NibData" = {
AngleInDegrees = "0";
};
}),
(164,616,l,{
"Letterink-NibData" = {
AngleInDegrees = "360";
};
}),
(95,576,l),
(95,7,l,{
"Letterink-NibData" = {
AngleInDegrees = "360";
};
}),
(99,0,l,{
"Letterink-NibData" = {
AngleInDegrees = "360";
};
}),
(168,40,l),
(168,304,l),
(582,304,l),
(582,7,l,{
"Letterink-NibData" = {
AngleInDegrees = "360";
};
}),
(586,0,l,{
"Letterink-NibData" = {
AngleInDegrees = "360";
};
}),
(656,40,l),
(656,609,l,{
"Letterink-NibData" = {
AngleInDegrees = "0";
};
}),
(652,616,l,{
"Letterink-NibData" = {
AngleInDegrees = "359.99999";
};
}),
(582,576,l),
(582,351,l),
(168,351,l)
);
},
{
closed = 0;
nodes = (
(240,616,l),
(240,591,l),
(212,583,o),
(194,576,o),
(183,564,cs),
(174,553,o),
(170,538,o),
(170,512,cs)
);
}
);
};
color = 1;
layerId = m007;
shapes = (
{
closed = 1;
nodes = (
(276,0,l),
(276,25,l),
(245,33,o),
(202,39,o),
(191,51,cs),
(181,61,o),
(176,77,o),
(176,104,cs),
(175,178,o),
(175,252,o),
(174,326,cs),
(173,388,o),
(175,450,o),
(176,512,cs),
(176,539,o),
(182,556,o),
(191,565,cs),
(202,577,o),
(245,583,o),
(276,591,c),
(276,616,l),
(6,616,l),
(6,591,l),
(28,583,o),
(71,576,o),
(82,564,cs),
(91,553,o),
(95,538,o),
(95,512,cs),
(96,450,o),
(97,389,o),
(97,327,cs),
(97,253,o),
(96,178,o),
(95,104,cs),
(95,78,o),
(91,63,o),
(82,52,cs),
(71,40,o),
(28,33,o),
(6,25,c),
(6,0,l)
);
},
{
closed = 1;
nodes = (
(690,0,l),
(690,25,l),
(669,33,o),
(627,39,o),
(616,51,cs),
(606,61,o),
(601,77,o),
(601,104,cs),
(600,179,o),
(600,255,o),
(599,330,cs),
(598,391,o),
(600,451,o),
(601,512,cs),
(601,539,o),
(605,554,o),
(616,565,cs),
(627,577,o),
(669,583,o),
(690,591,c),
(690,616,l),
(420,616,l),
(420,591,l),
(452,583,o),
(496,576,o),
(507,564,cs),
(516,553,o),
(520,538,o),
(520,512,cs),
(521,451,o),
(522,390,o),
(522,329,cs),
(522,254,o),
(521,179,o),
(520,104,cs),
(520,78,o),
(516,63,o),
(507,52,cs),
(496,40,o),
(452,33,o),
(420,25,c),
(420,0,l)
);
},
{
closed = 1;
nodes = (
(553,304,l),
(553,349,l),
(142,349,l),
(142,304,l)
);
}
);
width = 696;
}
);
note = H;
unicode = 72;
},
{
glyphname = Hbar;
lastChange = "2025-03-23 19:29:39 +0000";
layers = (
{
layerId = m005;
shapes = (
{
ref = H;
},
{
closed = 1;
nodes = (
(55,464,l),
(703,464,l),
(703,509,l),
(55,509,l)
);
}
);
width = 756;
},
{
layerId = m002;
shapes = (
{
ref = H;
},
{
closed = 1;
nodes = (
(55,469,l),
(703,469,l),
(703,509,l),
(55,509,l)
);
}
);
width = 756;
},
{
layerId = m006;
shapes = (
{
ref = H;
},
{
closed = 1;
nodes = (
(55,464,l),
(703,464,l),
(703,509,l),
(55,509,l)
);
}
);
width = 756;
},
{
layerId = m007;
shapes = (
{
ref = H;
},
{
closed = 1;
nodes = (
(55,464,l),
(703,464,l),
(703,509,l),
(55,509,l)
);
}
);
width = 756;
}
);
unicode = 294;
},
{
glyphname = I;
lastChange = "2025-04-24 16:54:05 +0000";
layers = (
{
anchors = (
{
name = bottom;
pos = (148,0);
},
{
name = ogonek;
pos = (259,10);
},
{
name = top;
pos = (145,616);
},
{
name = topleft;
pos = (20,616);
}
);
background = {
shapes = (
{
closed = 1;
nodes = (
(182,40,l),
(182,609,l,{
"Letterink-NibData" = {
AngleInDegrees = "0";
};
}),
(178,616,l,{
"Letterink-NibData" = {
AngleInDegrees = "360";
};
}),
(109,576,l),
(109,7,l,{
"Letterink-NibData" = {
AngleInDegrees = "360";
};
}),
(113,0,l,{
"Letterink-NibData" = {
AngleInDegrees = "360";
};
})
);
}
);
};
color = 1;
layerId = m005;
shapes = (
{
closed = 1;
nodes = (
(18,0,l),
(270,0,l),
(270,25,l),
(231,31,o),
(208,32,o),
(196,41,cs),
(185,49,o),
(181,63,o),
(181,91,cs),
(179,217,o),
(181,327,o),
(181,525,cs),
(181,555,o),
(190,570,o),
(205,577,cs),
(222,586,o),
(246,586,o),
(270,591,c),
(270,616,l),
(18,616,l),
(18,593,l),
(55,587,o),
(79,586,o),
(92,575,cs),
(102,566,o),
(107,552,o),
(107,525,cs),
(109,382,o),
(109,234,o),
(107,91,cs),
(107,62,o),
(103,47,o),
(93,39,cs),
(78,27,o),
(53,30,o),
(18,25,c)
);
}
);
width = 288;
},
{
anchors = (
{
name = bottom;
pos = (162,0);
},
{
name = ogonek;
pos = (306,10);
},
{
name = top;
pos = (162,634);
},
{
name = topleft;
pos = (2,634);
}
);
background = {
shapes = (
{
closed = 1;
nodes = (
(164,40,l),
(164,609,l,{
"Letterink-NibData" = {
AngleInDegrees = "0";
};
}),
(160,616,l,{
"Letterink-NibData" = {
AngleInDegrees = "360";
};
}),
(91,576,l),
(91,7,l,{
"Letterink-NibData" = {
AngleInDegrees = "360";
};
}),
(95,0,l,{
"Letterink-NibData" = {
AngleInDegrees = "360";
};
})
);
},
{
closed = 1;
nodes = (
(0,0,l),
(252,0,l),
(252,25,l),
(213,31,o),
(190,32,o),
(178,41,cs),
(167,49,o),
(163,63,o),
(163,91,cs),
(161,217,o),
(163,327,o),
(163,525,cs),
(163,555,o),
(172,570,o),
(187,577,cs),
(204,586,o),
(228,586,o),
(252,591,c),
(252,616,l),
(0,616,l),
(0,593,l),
(37,587,o),
(61,586,o),
(74,575,cs),
(84,566,o),
(89,552,o),
(89,525,cs),
(91,382,o),
(91,234,o),
(89,91,cs),
(89,62,o),
(85,47,o),
(75,39,cs),
(60,27,o),
(35,30,o),
(0,25,c)
);
},
{
closed = 1;
nodes = (
(72,18,l),
(324,18,l),
(324,43,l),
(285,49,o),
(262,50,o),
(250,59,cs),
(239,67,o),
(235,81,o),
(235,109,cs),
(233,235,o),
(235,345,o),
(235,543,cs),
(235,573,o),
(244,588,o),
(259,595,cs),
(276,604,o),
(300,604,o),
(324,609,c),
(324,634,l),
(72,634,l),
(72,611,l),
(109,605,o),
(133,604,o),
(146,593,cs),
(156,584,o),
(161,570,o),
(161,543,cs),
(163,400,o),
(163,252,o),
(161,109,cs),
(161,80,o),
(157,65,o),
(147,57,cs),
(132,45,o),
(107,48,o),
(72,43,c)
);
}
);
};
color = 1;
layerId = m002;
shapes = (
{
closed = 1;
nodes = (
(0,0,l),
(324,0,l),
(324,25,l),
(285,31,o),
(262,32,o),
(250,41,cs),
(239,49,o),
(235,63,o),
(235,91,cs),
(233,217,o),
(235,345,o),
(235,543,cs),
(235,573,o),
(244,588,o),
(259,595,cs),
(276,604,o),
(300,604,o),
(324,609,c),
(324,634,l),
(0,634,l),
(0,611,l),
(37,605,o),
(61,604,o),
(74,593,cs),
(84,584,o),
(89,570,o),
(89,543,cs),
(91,400,o),
(91,234,o),
(89,91,cs),
(89,62,o),
(85,47,o),
(75,39,cs),
(60,27,o),
(35,30,o),
(0,25,c)
);
}
);
width = 324;
},
{
anchors = (
{
name = bottom;
pos = (166,0);
},
{
name = ogonek;
pos = (277,10);
},
{
name = top;
pos = (163,616);
},
{
name = topleft;
pos = (38,616);
}
);
background = {
shapes = (
{
closed = 1;
nodes = (
(200,40,l),
(200,609,l,{
"Letterink-NibData" = {
AngleInDegrees = "0";
};
}),
(196,616,l,{
"Letterink-NibData" = {
AngleInDegrees = "360";
};
}),
(127,576,l),
(127,7,l,{
"Letterink-NibData" = {
AngleInDegrees = "360";
};
}),
(131,0,l,{
"Letterink-NibData" = {
AngleInDegrees = "360";
};
})
);
}
);
};
color = 1;
layerId = m006;
shapes = (
{
closed = 1;
nodes = (
(36,0,l),
(288,0,l),
(288,25,l),
(249,31,o),
(226,32,o),
(214,41,cs),
(203,49,o),
(199,63,o),
(199,91,cs),
(197,217,o),
(199,327,o),
(199,525,cs),
(199,555,o),
(208,570,o),
(223,577,cs),
(240,586,o),
(264,586,o),
(288,591,c),
(288,616,l),
(36,616,l),
(36,593,l),
(73,587,o),
(97,586,o),
(110,575,cs),
(120,566,o),
(125,552,o),
(125,525,cs),
(127,382,o),
(127,234,o),
(125,91,cs),
(125,62,o),
(121,47,o),
(111,39,cs),
(96,27,o),
(71,30,o),
(36,25,c)
);
}
);
width = 324;
},
{
anchors = (
{
name = bottom;
pos = (136,0);
},
{
name = ogonek;
pos = (247,10);
},
{
name = top;
pos = (133,616);
},
{
name = topleft;
pos = (8,616);
}
);
background = {
shapes = (
{
closed = 1;
nodes = (
(170,40,l),
(170,609,l,{
"Letterink-NibData" = {
AngleInDegrees = "0";
};
}),
(166,616,l,{
"Letterink-NibData" = {
AngleInDegrees = "360";
};
}),
(97,576,l),
(97,7,l,{
"Letterink-NibData" = {
AngleInDegrees = "360";
};
}),
(101,0,l,{
"Letterink-NibData" = {
AngleInDegrees = "360";
};
})
);
}
);
};
color = 1;
layerId = m007;
shapes = (
{
closed = 1;
nodes = (
(6,0,l),
(258,0,l),
(258,25,l),
(219,31,o),
(196,32,o),
(184,41,cs),
(173,49,o),
(169,63,o),
(169,91,cs),
(167,217,o),
(169,327,o),
(169,525,cs),
(169,555,o),
(178,570,o),
(193,577,cs),
(210,586,o),
(234,586,o),
(258,591,c),
(258,616,l),
(6,616,l),
(6,593,l),
(43,587,o),
(67,586,o),
(80,575,cs),
(90,566,o),
(95,552,o),
(95,525,cs),
(97,382,o),
(97,234,o),
(95,91,cs),
(95,62,o),
(91,47,o),
(81,39,cs),
(66,27,o),
(41,30,o),
(6,25,c)
);
}
);
width = 264;
}
);
note = I;
unicode = 73;
},
{
glyphname = J;
lastChange = "2025-04-24 16:54:05 +0000";
layers = (
{
anchors = (
{
name = bottom;
pos = (135,0);
},
{
name = top;
pos = (142,616);
}
);
color = 1;
layerId = m005;
shapes = (
{
closed = 1;
nodes = (
(30,-232,o),
(85,-190,o),
(103,-164,cs),
(150,-96,o),
(183,29,o),
(181,148,cs),
(179,341,o),
(179,332,o),
(181,525,cs),
(181,555,o),
(186,569,o),
(199,577,cs),
(213,584,o),
(236,585,o),
(270,591,c),
(270,616,l),
(18,616,l),
(18,591,l),
(53,587,o),
(77,586,o),
(92,574,cs),
(103,565,o),
(108,551,o),
(108,525,cs),
(108,81,ls),
(108,33,o),
(108,-90,o),
(77,-138,cs),
(70,-150,o),
(60,-157,o),
(48,-157,cs),
(29,-158,o),
(27,-135,o),
(8,-134,cs),
(-25,-134,o),
(-48,-163,o),
(-48,-205,cs),
(-48,-220,o),
(-30,-232,o),
(-4,-232,cs)
);
}
);
width = 271;
},
{
anchors = (
{
name = bottom;
pos = (153,0);
},
{
name = top;
pos = (153,634);
}
);
background = {
shapes = (
{
closed = 1;
nodes = (
(12,-232,o),
(67,-190,o),
(85,-164,cs),
(132,-96,o),
(165,29,o),
(163,148,cs),
(161,341,o),
(161,332,o),
(163,525,cs),
(163,555,o),
(168,569,o),
(181,577,cs),
(195,584,o),
(218,585,o),
(252,591,c),
(252,616,l),
(0,616,l),
(0,591,l),
(35,587,o),
(59,586,o),
(74,574,cs),
(85,565,o),
(90,551,o),
(90,525,cs),
(90,81,ls),
(90,33,o),
(90,-90,o),
(59,-138,cs),
(52,-150,o),
(42,-157,o),
(30,-157,cs),
(11,-158,o),
(9,-135,o),
(-10,-134,cs),
(-43,-134,o),
(-66,-163,o),
(-66,-205,cs),
(-66,-220,o),
(-48,-232,o),
(-22,-232,cs)
);
},
{
closed = 1;
nodes = (
(84,-214,o),
(139,-172,o),
(157,-146,cs),
(204,-78,o),
(237,47,o),
(235,166,cs),
(233,359,o),
(233,350,o),
(235,543,cs),
(235,573,o),
(240,587,o),
(253,595,cs),
(267,602,o),
(290,603,o),
(324,609,c),
(324,634,l),
(72,634,l),
(72,609,l),
(107,605,o),
(131,604,o),
(146,592,cs),
(157,583,o),
(162,569,o),
(162,543,cs),
(162,99,ls),
(162,51,o),
(162,-72,o),
(131,-120,cs),
(124,-132,o),
(114,-139,o),
(102,-139,cs),
(83,-140,o),
(81,-117,o),
(62,-116,cs),
(29,-116,o),
(6,-145,o),
(6,-187,cs),
(6,-202,o),
(24,-214,o),
(50,-214,cs)
);
}
);
};
color = 1;
layerId = m002;
shapes = (
{
closed = 1;
nodes = (
(49,-232,o),
(93,-204,o),
(121,-164,cs),
(189,-66,o),
(236,79,o),
(235,184,cs),
(234,274,o),
(234,415,o),
(235,543,cs),
(235,567,o),
(242,589,o),
(253,595,cs),
(256,596,o),
(285,602,o),
(324,609,c),
(324,634,l),
(0,634,l),
(0,609,l),
(36,605,o),
(67,598,o),
(74,592,cs),
(83,584,o),
(90,564,o),
(90,543,cs),
(90,117,ls),
(90,-4,o),
(77,-110,o),
(59,-138,cs),
(53,-149,o),
(41,-157,o),
(30,-157,cs),
(11,-158,o),
(9,-135,o),
(-10,-134,cs),
(-43,-134,o),
(-66,-163,o),
(-66,-205,cs),
(-66,-221,o),
(-33,-232,o),
(14,-232,cs)
);
}
);
width = 310;
},
{
anchors = (
{
name = bottom;
pos = (153,0);
},
{
name = top;
pos = (160,616);
}
);
color = 1;
layerId = m006;
shapes = (
{
closed = 1;
nodes = (
(48,-232,o),
(103,-190,o),
(121,-164,cs),
(168,-96,o),
(201,29,o),
(199,148,cs),
(197,341,o),
(197,332,o),
(199,525,cs),
(199,555,o),
(204,569,o),
(217,577,cs),
(231,584,o),
(254,585,o),
(288,591,c),
(288,616,l),
(36,616,l),
(36,591,l),
(71,587,o),
(95,586,o),
(110,574,cs),
(121,565,o),
(126,551,o),
(126,525,cs),
(126,81,ls),
(126,33,o),
(126,-90,o),
(95,-138,cs),
(88,-150,o),
(78,-157,o),
(66,-157,cs),
(47,-158,o),
(45,-135,o),
(26,-134,cs),
(-7,-134,o),
(-30,-163,o),
(-30,-205,cs),
(-30,-220,o),
(-12,-232,o),
(14,-232,cs)
);
}
);
width = 304;
},
{
anchors = (
{
name = bottom;
pos = (123,0);
},
{
name = top;
pos = (130,616);
}
);
color = 1;
layerId = m007;
shapes = (
{
closed = 1;
nodes = (
(18,-232,o),
(73,-190,o),
(91,-164,cs),
(138,-96,o),
(171,29,o),
(169,148,cs),
(167,341,o),
(167,332,o),
(169,525,cs),
(169,555,o),
(174,569,o),
(187,577,cs),
(201,584,o),
(224,585,o),
(258,591,c),
(258,616,l),
(6,616,l),
(6,591,l),
(41,587,o),
(65,586,o),
(80,574,cs),
(91,565,o),
(96,551,o),
(96,525,cs),
(96,81,ls),
(96,33,o),
(96,-90,o),
(65,-138,cs),
(58,-150,o),
(48,-157,o),
(36,-157,cs),
(17,-158,o),
(15,-135,o),
(-4,-134,cs),
(-37,-134,o),
(-60,-163,o),
(-60,-205,cs),
(-60,-220,o),
(-42,-232,o),
(-16,-232,cs)
);
}
);
width = 249;
}
);
unicode = 74;
},
{
glyphname = K;
lastChange = "2025-04-24 16:54:05 +0000";
layers = (
{
anchors = (
{
name = bottom;
pos = (333,0);
},
{
name = top;
pos = (311,616);
}
);
background = {
shapes = (
{
closed = 0;
nodes = (
(471,91,l),
(471,55,o),
(465,41,o),
(444,31,cs),
(433,26,o),
(415,25,o),
(388,18,c),
(388,0,l),
(633,0,l),
(633,18,l),
(587,31,o),
(564,33,o),
(555,51,cs),
(551,60,o),
(549,73,o),
(549,91,c)
);
},
{
closed = 0;
nodes = (
(493,525,l),
(493,561,o),
(499,575,o),
(520,585,cs),
(531,590,o),
(549,591,o),
(576,598,c),
(576,616,l),
(331,616,l),
(331,598,l),
(377,585,o),
(400,583,o),
(409,565,cs),
(413,556,o),
(415,543,o),
(415,525,cs)
);
}
);
};
color = 2;
layerId = m005;
shapes = (
{
closed = 1;
nodes = (
(18,0,l),
(270,0,l),
(270,18,l),
(235,27,o),
(215,29,o),
(204,36,cs),
(192,44,o),
(184,58,o),
(184,91,cs),
(183,156,o),
(184,424,o),
(185,525,cs),
(185,556,o),
(191,572,o),
(204,581,cs),
(217,590,o),
(238,594,o),
(270,598,c),
(270,616,l),
(18,616,l),
(18,592,l),
(69,585,o),
(92,583,o),
(101,565,cs),
(105,556,o),
(107,543,o),
(107,525,cs),
(109,382,o),
(109,234,o),
(107,91,cs),
(107,66,o),
(102,52,o),
(92,44,cs),
(78,33,o),
(54,33,o),
(18,25,c)
);
},
{
closed = 1;
nodes = (
(417,503,l),
(453,540,o),
(498,574,o),
(526,586,cs),
(540,592,o),
(570,597,o),
(576,598,c),
(576,616,l),
(342,616,l),
(342,598,l),
(366,593,o),
(390,580,o),
(390,557,cs),
(390,543,o),
(381,526,o),
(363,505,c),
(138,267,l),
(161,240,l)
);
},
{
closed = 1;
nodes = (
(630,18,l),
(567,34,o),
(535,48,o),
(485,99,c),
(250,362,l),
(193,301,l),
(265,217,o),
(393,72,o),
(422,40,cs),
(451,8,o),
(477,-4,o),
(520,-3,cs),
(630,0,l)
);
}
);
width = 630;
},
{
anchors = (
{
name = bottom;
pos = (342,0);
},
{
name = top;
pos = (342,634);
}
);
background = {
shapes = (
{
closed = 1;
nodes = (
(0,0,l),
(252,0,l),
(252,18,l),
(217,27,o),
(197,29,o),
(186,36,cs),
(174,44,o),
(166,58,o),
(166,91,cs),
(165,156,o),
(166,424,o),
(167,525,cs),
(167,556,o),
(173,572,o),
(186,581,cs),
(199,590,o),
(220,594,o),
(252,598,c),
(252,616,l),
(0,616,l),
(0,592,l),
(51,585,o),
(74,583,o),
(83,565,cs),
(87,556,o),
(89,543,o),
(89,525,cs),
(91,382,o),
(91,234,o),
(89,91,cs),
(89,66,o),
(84,52,o),
(74,44,cs),
(60,33,o),
(36,33,o),
(0,25,c)
);
},
{
closed = 1;
nodes = (
(435,503,l),
(471,540,o),
(516,574,o),
(544,586,cs),
(558,592,o),
(588,597,o),
(594,598,c),
(594,616,l),
(360,616,l),
(360,598,l),
(384,593,o),
(408,580,o),
(408,557,cs),
(408,543,o),
(399,526,o),
(381,505,c),
(156,267,l),
(179,240,l)
);
},
{
closed = 1;
nodes = (
(648,18,l),
(585,34,o),
(553,48,o),
(503,99,c),
(268,362,l),
(211,301,l),
(283,217,o),
(411,72,o),
(440,40,cs),
(469,8,o),
(495,-4,o),
(538,-3,cs),
(648,0,l)
);
},
{
closed = 1;
nodes = (
(72,18,l),
(324,18,l),
(324,36,l),
(289,45,o),
(269,47,o),
(258,54,cs),
(246,62,o),
(238,76,o),
(238,109,cs),
(237,174,o),
(238,442,o),
(239,543,cs),
(239,574,o),
(245,590,o),
(258,599,cs),
(271,608,o),
(292,612,o),
(324,616,c),
(324,634,l),
(72,634,l),
(72,610,l),
(123,603,o),
(146,601,o),
(155,583,cs),
(159,574,o),
(161,561,o),
(161,543,cs),
(163,400,o),
(163,252,o),
(161,109,cs),
(161,84,o),
(156,70,o),
(146,62,cs),
(132,51,o),
(108,51,o),
(72,43,c)
);
},
{
closed = 1;
nodes = (
(507,521,l),
(543,558,o),
(588,592,o),
(616,604,cs),
(630,610,o),
(660,615,o),
(666,616,c),
(666,634,l),
(432,634,l),
(432,616,l),
(456,611,o),
(480,598,o),
(480,575,cs),
(480,561,o),
(471,544,o),
(453,523,c),
(228,285,l),
(251,258,l)
);
},
{
closed = 1;
nodes = (
(720,36,l),
(657,52,o),
(625,66,o),
(575,117,c),
(340,380,l),
(283,319,l),
(355,235,o),
(483,90,o),
(512,58,cs),
(541,26,o),
(567,14,o),
(610,15,cs),
(720,18,l)
);
}
);
};
color = 2;
layerId = m002;
shapes = (
{
closed = 1;
nodes = (
(0,0,l),
(324,0,l),
(324,18,l),
(289,27,o),
(269,29,o),
(258,36,cs),
(246,44,o),
(238,58,o),
(238,91,cs),
(237,156,o),
(238,424,o),
(239,543,cs),
(239,574,o),
(245,590,o),
(258,599,cs),
(271,608,o),
(292,612,o),
(324,616,c),
(324,634,l),
(0,634,l),
(0,610,l),
(51,603,o),
(74,601,o),
(83,583,cs),
(87,574,o),
(89,561,o),
(89,543,cs),
(91,382,o),
(91,234,o),
(89,91,cs),
(89,66,o),
(84,52,o),
(74,44,cs),
(60,33,o),
(36,33,o),
(0,25,c)
);
},
{
closed = 1;
nodes = (
(507,521,l),
(543,558,o),
(584,592,o),
(612,604,cs),
(626,610,o),
(656,615,o),
(662,616,c),
(662,634,l),
(384,634,l),
(384,616,l),
(408,611,o),
(432,598,o),
(432,575,cs),
(432,561,o),
(423,544,o),
(405,523,c),
(184,267,l),
(222,217,l)
);
},
{
closed = 1;
nodes = (
(712,18,l),
(649,34,o),
(636,48,o),
(586,99,c),
(351,362,l),
(217,301,l),
(289,217,o),
(417,72,o),
(446,40,cs),
(475,8,o),
(523,-4,o),
(566,-3,cs),
(712,0,l)
);
}
);
width = 712;
},
{
anchors = (
{
name = bottom;
pos = (351,0);
},
{
name = top;
pos = (329,616);
}
);
background = {
shapes = (
{
closed = 0;
nodes = (
(489,91,l),
(489,55,o),
(483,41,o),
(462,31,cs),
(451,26,o),
(433,25,o),
(406,18,c),
(406,0,l),
(651,0,l),
(651,18,l),
(605,31,o),
(582,33,o),
(573,51,cs),
(569,60,o),
(567,73,o),
(567,91,c)
);
},
{
closed = 0;
nodes = (
(511,525,l),
(511,561,o),
(517,575,o),
(538,585,cs),
(549,590,o),
(567,591,o),
(594,598,c),
(594,616,l),
(349,616,l),
(349,598,l),
(395,585,o),
(418,583,o),
(427,565,cs),
(431,556,o),
(433,543,o),
(433,525,cs)
);
}
);
};
color = 2;
layerId = m006;
shapes = (
{
closed = 1;
nodes = (
(36,0,l),
(288,0,l),
(288,18,l),
(253,27,o),
(233,29,o),
(222,36,cs),
(210,44,o),
(202,58,o),
(202,91,cs),
(201,156,o),
(202,424,o),
(203,525,cs),
(203,556,o),
(209,572,o),
(222,581,cs),
(235,590,o),
(256,594,o),
(288,598,c),
(288,616,l),
(36,616,l),
(36,592,l),
(87,585,o),
(110,583,o),
(119,565,cs),
(123,556,o),
(125,543,o),
(125,525,cs),
(127,382,o),
(127,234,o),
(125,91,cs),
(125,66,o),
(120,52,o),
(110,44,cs),
(96,33,o),
(72,33,o),
(36,25,c)
);
},
{
closed = 1;
nodes = (
(435,503,l),
(471,540,o),
(516,574,o),
(544,586,cs),
(558,592,o),
(588,597,o),
(594,598,c),
(594,616,l),
(360,616,l),
(360,598,l),
(384,593,o),
(408,580,o),
(408,557,cs),
(408,543,o),
(399,526,o),
(381,505,c),
(156,267,l),
(179,240,l)
);
},
{
closed = 1;
nodes = (
(648,18,l),
(585,34,o),
(553,48,o),
(503,99,c),
(268,362,l),
(211,301,l),
(283,217,o),
(411,72,o),
(440,40,cs),
(469,8,o),
(495,-4,o),
(538,-3,cs),
(648,0,l)
);
}
);
width = 648;
},
{
anchors = (
{
name = bottom;
pos = (321,0);
},
{
name = top;
pos = (299,616);
}
);
background = {
shapes = (
{
closed = 0;
nodes = (
(459,91,l),
(459,55,o),
(453,41,o),
(432,31,cs),
(421,26,o),
(403,25,o),
(376,18,c),
(376,0,l),
(621,0,l),
(621,18,l),
(575,31,o),
(552,33,o),
(543,51,cs),
(539,60,o),
(537,73,o),
(537,91,c)
);
},
{
closed = 0;
nodes = (
(481,525,l),
(481,561,o),
(487,575,o),
(508,585,cs),
(519,590,o),
(537,591,o),
(564,598,c),
(564,616,l),
(319,616,l),
(319,598,l),
(365,585,o),
(388,583,o),
(397,565,cs),
(401,556,o),
(403,543,o),
(403,525,cs)
);
}
);
};
color = 2;
layerId = m007;
shapes = (
{
closed = 1;
nodes = (
(6,0,l),
(258,0,l),
(258,18,l),
(223,27,o),
(203,29,o),
(192,36,cs),
(180,44,o),
(172,58,o),
(172,91,cs),
(171,156,o),
(172,424,o),
(173,525,cs),
(173,556,o),
(179,572,o),
(192,581,cs),
(205,590,o),
(226,594,o),
(258,598,c),
(258,616,l),
(6,616,l),
(6,592,l),
(57,585,o),
(80,583,o),
(89,565,cs),
(93,556,o),
(95,543,o),
(95,525,cs),
(97,382,o),
(97,234,o),
(95,91,cs),
(95,66,o),
(90,52,o),
(80,44,cs),
(66,33,o),
(42,33,o),
(6,25,c)
);
},
{
closed = 1;
nodes = (
(405,503,l),
(441,540,o),
(486,574,o),
(514,586,cs),
(528,592,o),
(558,597,o),
(564,598,c),
(564,616,l),
(330,616,l),
(330,598,l),
(354,593,o),
(378,580,o),
(378,557,cs),
(378,543,o),
(369,526,o),
(351,505,c),
(126,267,l),
(149,240,l)
);
},
{
closed = 1;
nodes = (
(618,18,l),
(555,34,o),
(523,48,o),
(473,99,c),
(238,362,l),
(181,301,l),
(253,217,o),
(381,72,o),
(410,40,cs),
(439,8,o),
(465,-4,o),
(508,-3,cs),
(618,0,l)
);
}
);
width = 618;
}
);
unicode = 75;
},
{
glyphname = L;
lastChange = "2025-04-24 16:54:05 +0000";
layers = (
{
anchors = (
{
name = bottom;
pos = (301,0);
},
{
name = center;
pos = (306,308);
},
{
name = top;
pos = (152,616);
},
{
name = topright;
pos = (269,616);
}
);
color = 2;
layerId = m005;
shapes = (
{
closed = 1;
nodes = (
(18,-3,l),
(108,-1,o),
(188,0,o),
(268,0,c),
(268,41,l),
(206,43,o),
(189,43,o),
(189,105,cs),
(187,234,o),
(186,318,o),
(189,517,cs),
(189,553,o),
(191,567,o),
(212,577,cs),
(223,582,o),
(241,585,o),
(270,588,c),
(270,616,l),
(20,616,l),
(20,592,l),
(55,587,o),
(78,585,o),
(91,576,cs),
(102,568,o),
(106,554,o),
(107,525,cs),
(110,382,o),
(109,234,o),
(106,91,cs),
(105,63,o),
(102,49,o),
(92,40,cs),
(79,30,o),
(57,29,o),
(18,23,c)
);
},
{
closed = 1;
nodes = (
(330,2,o),
(441,1,o),
(510,-3,c),
(546,102,o),
(576,177,o),
(576,177,c),
(549,189,l),
(508,98,o),
(428,47,o),
(356,45,c),
(312,44,o),
(289,41,o),
(268,41,c),
(268,0,l)
);
}
);
width = 612;
},
{
anchors = (
{
name = bottom;
pos = (297,0);
},
{
name = center;
pos = (297,317);
},
{
name = top;
pos = (297,634);
},
{
name = topright;
pos = (592,634);
}
);
background = {
shapes = (
{
closed = 1;
nodes = (
(0,-3,l),
(90,-1,o),
(170,0,o),
(250,0,c),
(250,41,l),
(188,43,o),
(171,43,o),
(171,105,cs),
(169,234,o),
(168,318,o),
(171,517,cs),
(171,553,o),
(173,567,o),
(194,577,cs),
(205,582,o),
(223,585,o),
(252,588,c),
(252,616,l),
(2,616,l),
(2,592,l),
(37,587,o),
(60,585,o),
(73,576,cs),
(84,568,o),
(88,554,o),
(89,525,cs),
(92,382,o),
(91,234,o),
(88,91,cs),
(87,63,o),
(84,49,o),
(74,40,cs),
(61,30,o),
(39,29,o),
(0,23,c)
);
},
{
closed = 1;
nodes = (
(312,2,o),
(423,1,o),
(492,-3,c),
(528,102,o),
(558,177,o),
(558,177,c),
(531,189,l),
(490,98,o),
(410,47,o),
(338,45,c),
(294,44,o),
(271,41,o),
(250,41,c),
(250,0,l)
);
},
{
closed = 1;
nodes = (
(0,-3,l),
(90,-1,o),
(170,0,o),
(250,0,c),
(250,41,l),
(188,43,o),
(171,43,o),
(171,105,cs),
(169,234,o),
(168,318,o),
(171,517,cs),
(171,553,o),
(173,567,o),
(194,577,cs),
(205,582,o),
(223,585,o),
(252,588,c),
(252,616,l),
(2,616,l),
(2,592,l),
(37,587,o),
(60,585,o),
(73,576,cs),
(84,568,o),
(88,554,o),
(89,525,cs),
(92,382,o),
(91,234,o),
(88,91,cs),
(87,63,o),
(84,49,o),
(74,40,cs),
(61,30,o),
(39,29,o),
(0,23,c)
);
},
{
closed = 1;
nodes = (
(312,2,o),
(423,1,o),
(492,-3,c),
(528,102,o),
(558,177,o),
(558,177,c),
(531,189,l),
(490,98,o),
(410,47,o),
(338,45,c),
(294,44,o),
(271,41,o),
(250,41,c),
(250,0,l)
);
},
{
closed = 1;
nodes = (
(72,15,l),
(162,17,o),
(242,18,o),
(322,18,c),
(322,59,l),
(260,61,o),
(243,61,o),
(243,123,cs),
(241,252,o),
(240,336,o),
(243,535,cs),
(243,571,o),
(245,585,o),
(266,595,cs),
(277,600,o),
(295,603,o),
(324,606,c),
(324,634,l),
(74,634,l),
(74,610,l),
(109,605,o),
(132,603,o),
(145,594,cs),
(156,586,o),
(160,572,o),
(161,543,cs),
(164,400,o),
(163,252,o),
(160,109,cs),
(159,81,o),
(156,67,o),
(146,58,cs),
(133,48,o),
(111,47,o),
(72,41,c)
);
},
{
closed = 1;
nodes = (
(384,20,o),
(495,19,o),
(564,15,c),
(600,120,o),
(630,195,o),
(630,195,c),
(603,207,l),
(562,116,o),
(482,65,o),
(410,63,c),
(366,62,o),
(343,59,o),
(322,59,c),
(322,18,l)
);
}
);
};
color = 2;
layerId = m002;
shapes = (
{
closed = 1;
nodes = (
(0,-3,l),
(90,-1,o),
(242,0,o),
(322,0,c),
(322,41,l),
(260,43,o),
(243,43,o),
(243,105,cs),
(241,234,o),
(240,319,o),
(243,536,cs),
(243,572,o),
(245,586,o),
(266,596,cs),
(277,601,o),
(295,604,o),
(324,607,c),
(324,635,l),
(2,635,l),
(2,611,l),
(37,606,o),
(60,604,o),
(73,595,cs),
(84,587,o),
(88,573,o),
(89,544,cs),
(92,401,o),
(91,234,o),
(88,91,cs),
(87,63,o),
(84,49,o),
(74,40,cs),
(61,30,o),
(39,29,o),
(0,23,c)
);
},
{
closed = 1;
nodes = (
(384,2,o),
(459,1,o),
(546,-3,c),
(564,120,o),
(594,195,o),
(594,195,c),
(531,207,l),
(508,116,o),
(446,47,o),
(410,45,c),
(366,44,o),
(343,41,o),
(322,41,c),
(322,0,l)
);
}
);
width = 624;
},
{
anchors = (
{
name = bottom;
pos = (319,0);
},
{
name = center;
pos = (324,308);
},
{
name = top;
pos = (170,616);
},
{
name = topright;
pos = (287,616);
}
);
color = 2;
layerId = m006;
shapes = (
{
closed = 1;
nodes = (
(36,-3,l),
(126,-1,o),
(206,0,o),
(286,0,c),
(286,41,l),
(224,43,o),
(207,43,o),
(207,105,cs),
(205,234,o),
(204,318,o),
(207,517,cs),
(207,553,o),
(209,567,o),
(230,577,cs),
(241,582,o),
(259,585,o),
(288,588,c),
(288,616,l),
(38,616,l),
(38,592,l),
(73,587,o),
(96,585,o),
(109,576,cs),
(120,568,o),
(124,554,o),
(125,525,cs),
(128,382,o),
(127,234,o),
(124,91,cs),
(123,63,o),
(120,49,o),
(110,40,cs),
(97,30,o),
(75,29,o),
(36,23,c)
);
},
{
closed = 1;
nodes = (
(348,2,o),
(459,1,o),
(528,-3,c),
(564,102,o),
(594,177,o),
(594,177,c),
(567,189,l),
(526,98,o),
(446,47,o),
(374,45,c),
(330,44,o),
(307,41,o),
(286,41,c),
(286,0,l)
);
}
);
width = 636;
},
{
anchors = (
{
name = bottom;
pos = (289,0);
},
{
name = center;
pos = (294,308);
},
{
name = top;
pos = (140,616);
},
{
name = topright;
pos = (257,616);
}
);
color = 2;
layerId = m007;
shapes = (
{
closed = 1;
nodes = (
(6,-3,l),
(96,-1,o),
(176,0,o),
(256,0,c),
(256,41,l),
(194,43,o),
(177,43,o),
(177,105,cs),
(175,234,o),
(174,318,o),
(177,517,cs),
(177,553,o),
(179,567,o),
(200,577,cs),
(211,582,o),
(229,585,o),
(258,588,c),
(258,616,l),
(8,616,l),
(8,592,l),
(43,587,o),
(66,585,o),
(79,576,cs),
(90,568,o),
(94,554,o),
(95,525,cs),
(98,382,o),
(97,234,o),
(94,91,cs),
(93,63,o),
(90,49,o),
(80,40,cs),
(67,30,o),
(45,29,o),
(6,23,c)
);
},
{
closed = 1;
nodes = (
(318,2,o),
(429,1,o),
(498,-3,c),
(534,102,o),
(564,177,o),
(564,177,c),
(537,189,l),
(496,98,o),
(416,47,o),
(344,45,c),
(300,44,o),
(277,41,o),
(256,41,c),
(256,0,l)
);
}
);
width = 596;
}
);
unicode = 76;
},
{
glyphname = Lslash;
lastChange = "2025-03-23 19:29:39 +0000";
layers = (
{
layerId = m005;
shapes = (
{
ref = L;
},
{
closed = 1;
nodes = (
(43,268,l),
(270,351,l),
(255,397,l),
(27,314,l)
);
}
);
width = 612;
},
{
layerId = m002;
shapes = (
{
ref = L;
},
{
closed = 1;
nodes = (
(43,268,l),
(270,351,l),
(258,388,l),
(30,305,l)
);
}
);
width = 612;
},
{
layerId = m006;
shapes = (
{
ref = L;
},
{
closed = 1;
nodes = (
(43,268,l),
(270,351,l),
(255,397,l),
(27,314,l)
);
}
);
width = 612;
},
{
layerId = m007;
shapes = (
{
ref = L;
},
{
closed = 1;
nodes = (
(43,268,l),
(270,351,l),
(255,397,l),
(27,314,l)
);
}
);
width = 612;
}
);
unicode = 321;
},
{
glyphname = M;
lastChange = "2025-04-24 16:54:05 +0000";
layers = (
{
anchors = (
{
name = bottom;
pos = (414,46);
},
{
name = top;
pos = (427,616);
}
);
backgroundImage = {
angle = -0.3;
imagePath = "../../Desktop/Bildschirmfoto 2024-12-24 um 15.40.08.png";
pos = (848,-1015);
scale = (-1.4,1.4);
};
color = 1;
layerId = m005;
shapes = (
{
closed = 1;
nodes = (
(703,586,l),
(673,616,l),
(420,107,l),
(438,117,l),
(214,616,l),
(37,616,l),
(37,591,l),
(85,587,ls),
(114,584,o),
(144,565,o),
(155,540,cs),
(406,-16,l)
);
},
{
closed = 1;
nodes = (
(253,0,l),
(253,25,l),
(217,33,o),
(169,40,o),
(158,52,cs),
(149,63,o),
(144,79,o),
(145,105,cs),
(165,561,l),
(125,591,l),
(105,105,ls),
(104,78,o),
(99,60,o),
(90,51,cs),
(79,39,o),
(42,33,o),
(19,25,c),
(19,0,l)
);
},
{
closed = 1;
nodes = (
(847,0,l),
(847,25,l),
(807,33,o),
(783,41,o),
(773,51,cs),
(759,65,o),
(760,82,o),
(760,104,cs),
(758,216,o),
(756,401,o),
(756,529,cs),
(756,544,o),
(760,556,o),
(769,566,cs),
(781,578,o),
(799,586,o),
(829,591,c),
(829,616,l),
(673,616,l),
(680,104,ls),
(680,80,o),
(680,63,o),
(667,50,cs),
(651,34,o),
(614,27,o),
(595,25,c),
(595,0,l)
);
}
);
width = 867;
},
{
anchors = (
{
name = bottom;
pos = (464,0);
},
{
name = top;
pos = (464,634);
}
);
background = {
shapes = (
{
closed = 1;
nodes = (
(734,586,l),
(704,616,l),
(415,107,l),
(433,117,l),
(173,616,l),
(-4,616,l),
(-4,591,l),
(44,587,ls),
(73,584,o),
(101,565,o),
(114,540,cs),
(401,-16,l)
);
},
{
closed = 1;
nodes = (
(212,0,l),
(212,25,l),
(176,33,o),
(128,40,o),
(117,52,cs),
(108,63,o),
(103,79,o),
(104,105,cs),
(124,561,l),
(84,591,l),
(64,105,ls),
(63,78,o),
(58,60,o),
(49,51,cs),
(38,39,o),
(1,33,o),
(-22,25,c),
(-22,0,l)
);
},
{
closed = 1;
nodes = (
(878,0,l),
(878,25,l),
(838,33,o),
(814,41,o),
(804,51,cs),
(790,65,o),
(791,82,o),
(791,104,cs),
(789,216,o),
(787,401,o),
(787,529,cs),
(787,544,o),
(791,556,o),
(800,566,cs),
(812,578,o),
(830,586,o),
(860,591,c),
(860,616,l),
(704,616,l),
(711,104,ls),
(711,80,o),
(711,63,o),
(698,50,cs),
(682,34,o),
(645,27,o),
(626,25,c),
(626,0,l)
);
},
{
closed = 1;
nodes = (
(806,604,l),
(776,634,l),
(487,125,l),
(505,135,l),
(245,634,l),
(68,634,l),
(68,609,l),
(116,605,ls),
(145,602,o),
(173,583,o),
(186,558,cs),
(473,2,l)
);
},
{
closed = 1;
nodes = (
(284,18,l),
(284,43,l),
(248,51,o),
(200,58,o),
(189,70,cs),
(180,81,o),
(175,97,o),
(176,123,cs),
(196,579,l),
(156,609,l),
(136,123,ls),
(135,96,o),
(130,78,o),
(121,69,cs),
(110,57,o),
(73,51,o),
(50,43,c),
(50,18,l)
);
},
{
closed = 1;
nodes = (
(950,18,l),
(950,43,l),
(910,51,o),
(886,59,o),
(876,69,cs),
(862,83,o),
(863,100,o),
(863,122,cs),
(861,234,o),
(859,419,o),
(859,547,cs),
(859,562,o),
(863,574,o),
(872,584,cs),
(884,596,o),
(902,604,o),
(932,609,c),
(932,634,l),
(776,634,l),
(783,122,ls),
(783,98,o),
(783,81,o),
(770,68,cs),
(754,52,o),
(717,45,o),
(698,43,c),
(698,18,l)
);
}
);
};
backgroundImage = {
angle = -0.3;
imagePath = "../../Desktop/Bildschirmfoto 2024-12-24 um 15.40.08.png";
pos = (807,-1015);
scale = (-1.4,1.4);
};
color = 1;
layerId = m002;
shapes = (
{
closed = 1;
nodes = (
(770,604,l),
(714,634,l),
(416,108,l),
(490,164,l),
(245,634,l),
(-4,634,l),
(-4,609,l),
(44,605,ls),
(73,602,o),
(100,583,o),
(114,558,cs),
(437,-16,l)
);
},
{
closed = 1;
nodes = (
(284,0,l),
(284,25,l),
(248,33,o),
(200,40,o),
(189,52,cs),
(180,63,o),
(152,79,o),
(153,105,cs),
(173,579,l),
(107,609,l),
(87,105,ls),
(86,78,o),
(58,60,o),
(49,51,cs),
(38,39,o),
(1,33,o),
(-22,25,c),
(-22,0,l)
);
},
{
closed = 1;
nodes = (
(950,0,l),
(950,25,l),
(910,33,o),
(886,41,o),
(876,51,cs),
(862,65,o),
(863,82,o),
(863,104,cs),
(861,216,o),
(859,419,o),
(859,547,cs),
(859,562,o),
(863,574,o),
(872,584,cs),
(884,596,o),
(902,604,o),
(932,609,c),
(932,634,l),
(714,634,l),
(711,104,ls),
(711,80,o),
(711,63,o),
(698,50,cs),
(682,34,o),
(645,27,o),
(626,25,c),
(626,0,l)
);
}
);
width = 952;
},
{
anchors = (
{
name = bottom;
pos = (432,46);
},
{
name = top;
pos = (445,616);
}
);
backgroundImage = {
angle = -0.3;
imagePath = "../../Desktop/Bildschirmfoto 2024-12-24 um 15.40.08.png";
pos = (866,-1015);
scale = (-1.4,1.4);
};
color = 1;
layerId = m006;
shapes = (
{
closed = 1;
nodes = (
(721,586,l),
(691,616,l),
(438,107,l),
(456,117,l),
(232,616,l),
(55,616,l),
(55,591,l),
(103,587,ls),
(132,584,o),
(162,565,o),
(173,540,cs),
(424,-16,l)
);
},
{
closed = 1;
nodes = (
(271,0,l),
(271,25,l),
(235,33,o),
(187,40,o),
(176,52,cs),
(167,63,o),
(162,79,o),
(163,105,cs),
(183,561,l),
(143,591,l),
(123,105,ls),
(122,78,o),
(117,60,o),
(108,51,cs),
(97,39,o),
(60,33,o),
(37,25,c),
(37,0,l)
);
},
{
closed = 1;
nodes = (
(865,0,l),
(865,25,l),
(825,33,o),
(801,41,o),
(791,51,cs),
(777,65,o),
(778,82,o),
(778,104,cs),
(776,216,o),
(774,401,o),
(774,529,cs),
(774,544,o),
(778,556,o),
(787,566,cs),
(799,578,o),
(817,586,o),
(847,591,c),
(847,616,l),
(691,616,l),
(698,104,ls),
(698,80,o),
(698,63,o),
(685,50,cs),
(669,34,o),
(632,27,o),
(613,25,c),
(613,0,l)
);
}
);
width = 903;
},
{
anchors = (
{
name = bottom;
pos = (402,46);
},
{
name = top;
pos = (415,616);
}
);
backgroundImage = {
angle = -0.3;
imagePath = "../../Desktop/Bildschirmfoto 2024-12-24 um 15.40.08.png";
pos = (836,-1015);
scale = (-1.4,1.4);
};
color = 1;
layerId = m007;
shapes = (
{
closed = 1;
nodes = (
(691,586,l),
(661,616,l),
(408,107,l),
(426,117,l),
(202,616,l),
(25,616,l),
(25,591,l),
(73,587,ls),
(102,584,o),
(132,565,o),
(143,540,cs),
(394,-16,l)
);
},
{
closed = 1;
nodes = (
(241,0,l),
(241,25,l),
(205,33,o),
(157,40,o),
(146,52,cs),
(137,63,o),
(132,79,o),
(133,105,cs),
(153,561,l),
(113,591,l),
(93,105,ls),
(92,78,o),
(87,60,o),
(78,51,cs),
(67,39,o),
(30,33,o),
(7,25,c),
(7,0,l)
);
},
{
closed = 1;
nodes = (
(835,0,l),
(835,25,l),
(795,33,o),
(771,41,o),
(761,51,cs),
(747,65,o),
(748,82,o),
(748,104,cs),
(746,216,o),
(744,401,o),
(744,529,cs),
(744,544,o),
(748,556,o),
(757,566,cs),
(769,578,o),
(787,586,o),
(817,591,c),
(817,616,l),
(661,616,l),
(668,104,ls),
(668,80,o),
(668,63,o),
(655,50,cs),
(639,34,o),
(602,27,o),
(583,25,c),
(583,0,l)
);
}
);
width = 843;
}
);
unicode = 77;
},
{
glyphname = N;
lastChange = "2025-04-24 16:54:05 +0000";
layers = (
{
anchors = (
{
name = bottom;
pos = (369,0);
},
{
name = top;
pos = (357,616);
}
);
color = 1;
layerId = m005;
shapes = (
{
closed = 1;
nodes = (
(648,-11,l),
(648,157,o),
(648,443,o),
(648,512,c),
(608,512,l),
(608,97,l),
(629,106,l),
(150,616,l),
(18,616,l),
(18,591,l),
(41,587,o),
(62,579,o),
(76,566,cs),
(95,548,o),
(129,514,o),
(129,514,c),
(622,-11,l)
);
},
{
closed = 1;
nodes = (
(252,0,l),
(252,25,l),
(216,28,o),
(175,35,o),
(161,52,cs),
(148,68,o),
(148,78,o),
(148,104,c),
(108,104,l),
(108,77,o),
(107,65,o),
(93,51,cs),
(76,34,o),
(39,33,o),
(18,25,c),
(18,0,l)
);
},
{
closed = 1;
nodes = (
(148,104,l),
(148,561,l),
(108,591,l),
(108,104,l)
);
},
{
closed = 1;
nodes = (
(648,512,l),
(648,542,o),
(653,558,o),
(665,567,cs),
(677,577,o),
(697,581,o),
(720,588,c),
(720,616,l),
(504,616,l),
(504,591,l),
(550,584,o),
(577,582,o),
(592,568,cs),
(603,557,o),
(608,541,o),
(608,512,c)
);
}
);
width = 738;
},
{
anchors = (
{
name = bottom;
pos = (369,0);
},
{
name = top;
pos = (369,634);
}
);
background = {
shapes = (
{
closed = 1;
nodes = (
(630,-11,l),
(630,157,o),
(630,443,o),
(630,512,c),
(590,512,l),
(590,97,l),
(611,106,l),
(132,616,l),
(0,616,l),
(0,591,l),
(23,587,o),
(44,579,o),
(58,566,cs),
(77,548,o),
(111,514,o),
(111,514,c),
(604,-11,l)
);
},
{
closed = 1;
nodes = (
(234,0,l),
(234,25,l),
(198,28,o),
(157,35,o),
(143,52,cs),
(130,68,o),
(130,78,o),
(130,104,c),
(90,104,l),
(90,77,o),
(89,65,o),
(75,51,cs),
(58,34,o),
(21,33,o),
(0,25,c),
(0,0,l)
);
},
{
closed = 1;
nodes = (
(130,104,l),
(130,561,l),
(90,591,l),
(90,104,l)
);
},
{
closed = 1;
nodes = (
(630,512,l),
(630,542,o),
(635,558,o),
(647,567,cs),
(659,577,o),
(679,581,o),
(702,588,c),
(702,616,l),
(486,616,l),
(486,591,l),
(532,584,o),
(559,582,o),
(574,568,cs),
(585,557,o),
(590,541,o),
(590,512,c)
);
},
{
closed = 1;
nodes = (
(702,7,l),
(702,175,o),
(702,461,o),
(702,530,c),
(662,530,l),
(662,115,l),
(683,124,l),
(204,634,l),
(72,634,l),
(72,609,l),
(95,605,o),
(116,597,o),
(130,584,cs),
(149,566,o),
(183,532,o),
(183,532,c),
(676,7,l)
);
},
{
closed = 1;
nodes = (
(306,18,l),
(306,43,l),
(270,46,o),
(229,53,o),
(215,70,cs),
(202,86,o),
(202,96,o),
(202,122,c),
(162,122,l),
(162,95,o),
(161,83,o),
(147,69,cs),
(130,52,o),
(93,51,o),
(72,43,c),
(72,18,l)
);
},
{
closed = 1;
nodes = (
(202,122,l),
(202,579,l),
(162,609,l),
(162,122,l)
);
},
{
closed = 1;
nodes = (
(702,530,l),
(702,560,o),
(707,576,o),
(719,585,cs),
(731,595,o),
(751,599,o),
(774,606,c),
(774,634,l),
(558,634,l),
(558,609,l),
(604,602,o),
(631,600,o),
(646,586,cs),
(657,575,o),
(662,559,o),
(662,530,c)
);
}
);
};
color = 1;
layerId = m002;
shapes = (
{
closed = 1;
nodes = (
(674,-11,l),
(674,157,o),
(674,461,o),
(674,530,c),
(608,530,l),
(608,97,l),
(655,142,l),
(204,634,l),
(0,634,l),
(0,609,l),
(23,605,o),
(44,597,o),
(58,584,cs),
(77,566,o),
(147,496,o),
(147,496,c),
(604,-11,l)
);
},
{
closed = 1;
nodes = (
(260,0,l),
(260,25,l),
(224,28,o),
(183,35,o),
(169,52,cs),
(156,68,o),
(156,78,o),
(156,104,c),
(90,104,l),
(90,77,o),
(89,65,o),
(75,51,cs),
(58,34,o),
(21,33,o),
(0,25,c),
(0,0,l)
);
},
{
closed = 1;
nodes = (
(156,104,l),
(156,579,l),
(90,609,l),
(90,104,l)
);
},
{
closed = 1;
nodes = (
(674,530,l),
(674,560,o),
(679,576,o),
(691,585,cs),
(703,595,o),
(723,599,o),
(746,606,c),
(746,634,l),
(504,634,l),
(504,609,l),
(550,602,o),
(577,600,o),
(592,586,cs),
(603,575,o),
(608,559,o),
(608,530,c)
);
}
);
width = 749;
},
{
anchors = (
{
name = bottom;
pos = (387,0);
},
{
name = top;
pos = (375,616);
}
);
color = 1;
layerId = m006;
shapes = (
{
closed = 1;
nodes = (
(666,-11,l),
(666,157,o),
(666,443,o),
(666,512,c),
(626,512,l),
(626,97,l),
(647,106,l),
(168,616,l),
(36,616,l),
(36,591,l),
(59,587,o),
(80,579,o),
(94,566,cs),
(113,548,o),
(147,514,o),
(147,514,c),
(640,-11,l)
);
},
{
closed = 1;
nodes = (
(270,0,l),
(270,25,l),
(234,28,o),
(193,35,o),
(179,52,cs),
(166,68,o),
(166,78,o),
(166,104,c),
(126,104,l),
(126,77,o),
(125,65,o),
(111,51,cs),
(94,34,o),
(57,33,o),
(36,25,c),
(36,0,l)
);
},
{
closed = 1;
nodes = (
(166,104,l),
(166,561,l),
(126,591,l),
(126,104,l)
);
},
{
closed = 1;
nodes = (
(666,512,l),
(666,542,o),
(671,558,o),
(683,567,cs),
(695,577,o),
(715,581,o),
(738,588,c),
(738,616,l),
(522,616,l),
(522,591,l),
(568,584,o),
(595,582,o),
(610,568,cs),
(621,557,o),
(626,541,o),
(626,512,c)
);
}
);
width = 771;
},
{
anchors = (
{
name = bottom;
pos = (357,0);
},
{
name = top;
pos = (345,616);
}
);
color = 1;
layerId = m007;
shapes = (
{
closed = 1;
nodes = (
(636,-11,l),
(636,157,o),
(636,443,o),
(636,512,c),
(596,512,l),
(596,97,l),
(617,106,l),
(138,616,l),
(6,616,l),
(6,591,l),
(29,587,o),
(50,579,o),
(64,566,cs),
(83,548,o),
(117,514,o),
(117,514,c),
(610,-11,l)
);
},
{
closed = 1;
nodes = (
(240,0,l),
(240,25,l),
(204,28,o),
(163,35,o),
(149,52,cs),
(136,68,o),
(136,78,o),
(136,104,c),
(96,104,l),
(96,77,o),
(95,65,o),
(81,51,cs),
(64,34,o),
(27,33,o),
(6,25,c),
(6,0,l)
);
},
{
closed = 1;
nodes = (
(136,104,l),
(136,561,l),
(96,591,l),
(96,104,l)
);
},
{
closed = 1;
nodes = (
(636,512,l),
(636,542,o),
(641,558,o),
(653,567,cs),
(665,577,o),
(685,581,o),
(708,588,c),
(708,616,l),
(492,616,l),
(492,591,l),
(538,584,o),
(565,582,o),
(580,568,cs),
(591,557,o),
(596,541,o),
(596,512,c)
);
}
);
width = 716;
}
);
unicode = 78;
},
{
glyphname = Eng;
lastChange = "2025-03-23 19:29:39 +0000";
layers = (
{
anchors = (
{
name = bottom;
pos = (369,-232);
},
{
name = top;
pos = (369,616);
}
);
layerId = m005;
shapes = (
{
closed = 1;
nodes = (
(628,96,l),
(149,616,l),
(18,616,l),
(18,591,l),
(41,587,o),
(62,579,o),
(76,566,cs),
(129,514,l),
(622,-11,l)
);
},
{
closed = 1;
nodes = (
(252,0,l),
(252,25,l),
(216,28,o),
(175,35,o),
(161,52,cs),
(148,68,o),
(148,78,o),
(148,104,c),
(108,104,l),
(108,77,o),
(107,65,o),
(93,51,cs),
(76,34,o),
(39,33,o),
(18,25,c),
(18,0,l)
);
},
{
closed = 1;
nodes = (
(148,104,l),
(148,561,l),
(108,591,l),
(108,104,l)
);
},
{
closed = 1;
nodes = (
(498,-232,o),
(553,-190,o),
(571,-164,cs),
(618,-96,o),
(651,29,o),
(650,130,cs),
(647,341,o),
(647,332,o),
(649,525,cs),
(649,555,o),
(654,569,o),
(667,577,cs),
(681,584,o),
(704,585,o),
(738,591,c),
(738,616,l),
(486,616,l),
(486,591,l),
(521,587,o),
(545,586,o),
(560,574,cs),
(571,565,o),
(576,551,o),
(576,525,cs),
(576,65,l),
(574,110,l),
(574,4,ls),
(574,-48,o),
(565,-107,o),
(545,-138,cs),
(538,-150,o),
(528,-157,o),
(516,-157,cs),
(497,-158,o),
(495,-135,o),
(476,-134,cs),
(443,-134,o),
(420,-163,o),
(420,-205,cs),
(420,-220,o),
(438,-232,o),
(464,-232,cs)
);
}
);
width = 738;
},
{
anchors = (
{
name = bottom;
pos = (369,-232);
},
{
name = top;
pos = (369,634);
}
);
layerId = m002;
shapes = (
{
closed = 1;
nodes = (
(628,96,l),
(149,616,l),
(18,616,l),
(18,591,l),
(41,587,o),
(62,579,o),
(76,566,cs),
(129,514,l),
(622,-11,l)
);
},
{
closed = 1;
nodes = (
(252,0,l),
(252,25,l),
(216,28,o),
(175,35,o),
(161,52,cs),
(148,68,o),
(148,78,o),
(148,104,c),
(108,104,l),
(108,77,o),
(107,65,o),
(93,51,cs),
(76,34,o),
(39,33,o),
(18,25,c),
(18,0,l)
);
},
{
closed = 1;
nodes = (
(148,104,l),
(148,561,l),
(108,591,l),
(108,104,l)
);
},
{
closed = 1;
nodes = (
(498,-232,o),
(553,-190,o),
(571,-164,cs),
(618,-96,o),
(651,29,o),
(650,130,cs),
(647,341,o),
(647,332,o),
(649,525,cs),
(649,555,o),
(654,569,o),
(667,577,cs),
(681,584,o),
(704,585,o),
(738,591,c),
(738,616,l),
(486,616,l),
(486,591,l),
(521,587,o),
(545,586,o),
(560,574,cs),
(571,565,o),
(576,551,o),
(576,525,cs),
(576,65,l),
(574,110,l),
(574,4,ls),
(574,-48,o),
(565,-107,o),
(545,-138,cs),
(538,-150,o),
(528,-157,o),
(516,-157,cs),
(497,-158,o),
(495,-135,o),
(476,-134,cs),
(443,-134,o),
(420,-163,o),
(420,-205,cs),
(420,-220,o),
(438,-232,o),
(464,-232,cs)
);
}
);
width = 738;
},
{
anchors = (
{
name = bottom;
pos = (369,-232);
},
{
name = top;
pos = (369,616);
}
);
layerId = m006;
shapes = (
{
closed = 1;
nodes = (
(628,96,l),
(149,616,l),
(18,616,l),
(18,591,l),
(41,587,o),
(62,579,o),
(76,566,cs),
(129,514,l),
(622,-11,l)
);
},
{
closed = 1;
nodes = (
(252,0,l),
(252,25,l),
(216,28,o),
(175,35,o),
(161,52,cs),
(148,68,o),
(148,78,o),
(148,104,c),
(108,104,l),
(108,77,o),
(107,65,o),
(93,51,cs),
(76,34,o),
(39,33,o),
(18,25,c),
(18,0,l)
);
},
{
closed = 1;
nodes = (
(148,104,l),
(148,561,l),
(108,591,l),
(108,104,l)
);
},
{
closed = 1;
nodes = (
(498,-232,o),
(553,-190,o),
(571,-164,cs),
(618,-96,o),
(651,29,o),
(650,130,cs),
(647,341,o),
(647,332,o),
(649,525,cs),
(649,555,o),
(654,569,o),
(667,577,cs),
(681,584,o),
(704,585,o),
(738,591,c),
(738,616,l),
(486,616,l),
(486,591,l),
(521,587,o),
(545,586,o),
(560,574,cs),
(571,565,o),
(576,551,o),
(576,525,cs),
(576,65,l),
(574,110,l),
(574,4,ls),
(574,-48,o),
(565,-107,o),
(545,-138,cs),
(538,-150,o),
(528,-157,o),
(516,-157,cs),
(497,-158,o),
(495,-135,o),
(476,-134,cs),
(443,-134,o),
(420,-163,o),
(420,-205,cs),
(420,-220,o),
(438,-232,o),
(464,-232,cs)
);
}
);
width = 738;
},
{
anchors = (
{
name = bottom;
pos = (369,-232);
},
{
name = top;
pos = (369,616);
}
);
layerId = m007;
shapes = (
{
closed = 1;
nodes = (
(628,96,l),
(149,616,l),
(18,616,l),
(18,591,l),
(41,587,o),
(62,579,o),
(76,566,cs),
(129,514,l),
(622,-11,l)
);
},
{
closed = 1;
nodes = (
(252,0,l),
(252,25,l),
(216,28,o),
(175,35,o),
(161,52,cs),
(148,68,o),
(148,78,o),
(148,104,c),
(108,104,l),
(108,77,o),
(107,65,o),
(93,51,cs),
(76,34,o),
(39,33,o),
(18,25,c),
(18,0,l)
);
},
{
closed = 1;
nodes = (
(148,104,l),
(148,561,l),
(108,591,l),
(108,104,l)
);
},
{
closed = 1;
nodes = (
(498,-232,o),
(553,-190,o),
(571,-164,cs),
(618,-96,o),
(651,29,o),
(650,130,cs),
(647,341,o),
(647,332,o),
(649,525,cs),
(649,555,o),
(654,569,o),
(667,577,cs),
(681,584,o),
(704,585,o),
(738,591,c),
(738,616,l),
(486,616,l),
(486,591,l),
(521,587,o),
(545,586,o),
(560,574,cs),
(571,565,o),
(576,551,o),
(576,525,cs),
(576,65,l),
(574,110,l),
(574,4,ls),
(574,-48,o),
(565,-107,o),
(545,-138,cs),
(538,-150,o),
(528,-157,o),
(516,-157,cs),
(497,-158,o),
(495,-135,o),
(476,-134,cs),
(443,-134,o),
(420,-163,o),
(420,-205,cs),
(420,-220,o),
(438,-232,o),
(464,-232,cs)
);
}
);
width = 738;
}
);
unicode = 330;
},
{
glyphname = O;
lastChange = "2025-04-24 16:54:05 +0000";
layers = (
{
anchors = (
{
name = bottom;
pos = (378,0);
},
{
name = center;
pos = (378,308);
},
{
name = ogonek;
pos = (528,10);
},
{
name = top;
pos = (369,616);
},
{
name = topleft;
pos = (20,616);
},
{
name = topright;
pos = (574,485);
}
);
background = {
shapes = (
{
closed = 1;
nodes = (
(646,111,o),
(701,209,o),
(704,323,c,{
"Letterink-NibData" = {
AngleInDegrees = "359.99999";
};
}),
(701,395,o),
(690,434,o),
(660,483,cs,{
"Letterink-NibData" = {
AngleInDegrees = "0";
};
}),
(599,582,o),
(513,633,o),
(409,633,cs),
(360,633,o),
(312,621,o),
(271,597,cs,{
"Letterink-NibData" = {
AngleInDegrees = "359.99999";
};
}),
(201,557,ls,{
"Letterink-NibData" = {
AngleInDegrees = "359.99999";
};
}),
(175,542,o),
(123,495,o),
(106,471,cs,{
"Letterink-NibData" = {
AngleInDegrees = "360";
};
}),
(66,415,o),
(48,359,o),
(48,290,cs),
(48,121,o),
(183,-21,o),
(343,-21,cs),
(392,-21,o),
(444,-7,o),
(488,19,cs,{
"Letterink-NibData" = {
AngleInDegrees = "360";
};
}),
(557,59,ls,{
"Letterink-NibData" = {
AngleInDegrees = "0";
};
})
);
},
{
closed = 1;
nodes = (
(482,32,o),
(450,26,o),
(409,26,cs),
(335,26,o),
(252,61,o),
(207,111,cs,{
"Letterink-NibData" = {
AngleInDegrees = "360";
};
}),
(195,123,o),
(182,141,o),
(162,168,c,{
"Letterink-NibData" = {
AngleInDegrees = "359.99999";
};
}),
(131,236,o),
(121,271,o),
(121,323,cs),
(121,425,o),
(159,501,o),
(243,566,c,{
"Letterink-NibData" = {
AngleInDegrees = "0";
};
}),
(285,583,o),
(301,586,o),
(343,586,cs),
(448,586,o),
(529,538,o),
(593,438,c,{
"Letterink-NibData" = {
AngleInDegrees = "359.99999";
};
}),
(620,389,o),
(631,347,o),
(631,289,cs,{
"Letterink-NibData" = {
AngleInDegrees = "359.99999";
};
}),
(629,192,o),
(586,102,o),
(515,47,c,{
"Letterink-NibData" = {
AngleInDegrees = "0";
};
})
);
}
);
};
color = 4;
layerId = m005;
shapes = (
{
closed = 1;
nodes = (
(570,-11,o),
(702,121,o),
(702,308,cs),
(702,494,o),
(570,626,o),
(375,626,cs),
(192,626,o),
(54,494,o),
(54,308,cs),
(54,121,o),
(192,-11,o),
(375,-11,cs)
);
},
{
closed = 1;
nodes = (
(150,474,o),
(241,585,o),
(358,585,cs),
(507,585,o),
(606,466,o),
(606,298,cs),
(606,141,o),
(521,30,o),
(392,30,cs),
(256,30,o),
(150,149,o),
(150,318,cs)
);
}
);
width = 756;
},
{
anchors = (
{
name = bottom;
pos = (405,0);
},
{
name = center;
pos = (405,317);
},
{
name = ogonek;
pos = (722,10);
},
{
name = top;
pos = (405,634);
},
{
name = topleft;
pos = (29,634);
},
{
name = topright;
pos = (781,634);
}
);
background = {
shapes = (
{
closed = 1;
nodes = (
(561,-11,o),
(693,121,o),
(693,308,cs),
(693,494,o),
(561,626,o),
(366,626,cs),
(183,626,o),
(45,494,o),
(45,308,cs),
(45,121,o),
(183,-11,o),
(366,-11,cs)
);
},
{
closed = 1;
nodes = (
(141,474,o),
(232,585,o),
(349,585,cs),
(498,585,o),
(597,466,o),
(597,298,cs),
(597,141,o),
(512,30,o),
(383,30,cs),
(247,30,o),
(141,149,o),
(141,318,cs)
);
},
{
closed = 1;
nodes = (
(633,7,o),
(765,139,o),
(765,326,cs),
(765,512,o),
(633,644,o),
(438,644,cs),
(255,644,o),
(117,512,o),
(117,326,cs),
(117,139,o),
(255,7,o),
(438,7,cs)
);
},
{
closed = 1;
nodes = (
(213,492,o),
(304,603,o),
(421,603,cs),
(570,603,o),
(669,484,o),
(669,316,cs),
(669,159,o),
(584,48,o),
(455,48,cs),
(319,48,o),
(213,167,o),
(213,336,cs)
);
}
);
};
color = 4;
layerId = m002;
shapes = (
{
closed = 1;
nodes = (
(615,-11,o),
(765,129,o),
(765,326,cs),
(765,512,o),
(615,644,o),
(402,644,cs),
(193,644,o),
(45,505,o),
(45,308,cs),
(45,121,o),
(193,-11,o),
(402,-11,cs)
);
},
{
closed = 1;
nodes = (
(213,492,o),
(284,603,o),
(385,603,cs),
(509,603,o),
(597,477,o),
(597,298,cs),
(597,141,o),
(523,30,o),
(419,30,cs),
(298,30,o),
(213,157,o),
(213,336,cs)
);
}
);
width = 810;
},
{
anchors = (
{
name = bottom;
pos = (387,0);
},
{
name = center;
pos = (387,308);
},
{
name = ogonek;
pos = (537,10);
},
{
name = top;
pos = (378,616);
},
{
name = topleft;
pos = (29,616);
},
{
name = topright;
pos = (583,485);
}
);
background = {
shapes = (
{
closed = 1;
nodes = (
(655,111,o),
(710,209,o),
(713,323,c,{
"Letterink-NibData" = {
AngleInDegrees = "359.99999";
};
}),
(710,395,o),
(699,434,o),
(669,483,cs,{
"Letterink-NibData" = {
AngleInDegrees = "0";
};
}),
(608,582,o),
(522,633,o),
(418,633,cs),
(369,633,o),
(321,621,o),
(280,597,cs,{
"Letterink-NibData" = {
AngleInDegrees = "359.99999";
};
}),
(210,557,ls,{
"Letterink-NibData" = {
AngleInDegrees = "359.99999";
};
}),
(184,542,o),
(132,495,o),
(115,471,cs,{
"Letterink-NibData" = {
AngleInDegrees = "360";
};
}),
(75,415,o),
(57,359,o),
(57,290,cs),
(57,121,o),
(192,-21,o),
(352,-21,cs),
(401,-21,o),
(453,-7,o),
(497,19,cs,{
"Letterink-NibData" = {
AngleInDegrees = "360";
};
}),
(566,59,ls,{
"Letterink-NibData" = {
AngleInDegrees = "0";
};
})
);
},
{
closed = 1;
nodes = (
(491,32,o),
(459,26,o),
(418,26,cs),
(344,26,o),
(261,61,o),
(216,111,cs,{
"Letterink-NibData" = {
AngleInDegrees = "360";
};
}),
(204,123,o),
(191,141,o),
(171,168,c,{
"Letterink-NibData" = {
AngleInDegrees = "359.99999";
};
}),
(140,236,o),
(130,271,o),
(130,323,cs),
(130,425,o),
(168,501,o),
(252,566,c,{
"Letterink-NibData" = {
AngleInDegrees = "0";
};
}),
(294,583,o),
(310,586,o),
(352,586,cs),
(457,586,o),
(538,538,o),
(602,438,c,{
"Letterink-NibData" = {
AngleInDegrees = "359.99999";
};
}),
(629,389,o),
(640,347,o),
(640,289,cs,{
"Letterink-NibData" = {
AngleInDegrees = "359.99999";
};
}),
(638,192,o),
(595,102,o),
(524,47,c,{
"Letterink-NibData" = {
AngleInDegrees = "0";
};
})
);
}
);
};
color = 4;
layerId = m006;
shapes = (
{
closed = 1;
nodes = (
(597,-11,o),
(747,121,o),
(747,308,cs),
(747,494,o),
(597,626,o),
(402,626,cs),
(219,626,o),
(63,494,o),
(63,308,cs),
(63,121,o),
(219,-11,o),
(402,-11,cs)
);
},
{
closed = 1;
nodes = (
(159,474,o),
(268,585,o),
(385,585,cs),
(534,585,o),
(651,466,o),
(651,298,cs),
(651,141,o),
(548,30,o),
(419,30,cs),
(283,30,o),
(159,149,o),
(159,318,cs)
);
}
);
width = 810;
},
{
anchors = (
{
name = bottom;
pos = (372,0);
},
{
name = center;
pos = (372,308);
},
{
name = ogonek;
pos = (522,10);
},
{
name = top;
pos = (363,616);
},
{
name = topleft;
pos = (14,616);
},
{
name = topright;
pos = (568,485);
}
);
background = {
shapes = (
{
closed = 1;
nodes = (
(640,111,o),
(695,209,o),
(698,323,c,{
"Letterink-NibData" = {
AngleInDegrees = "359.99999";
};
}),
(695,395,o),
(684,434,o),
(654,483,cs,{
"Letterink-NibData" = {
AngleInDegrees = "0";
};
}),
(593,582,o),
(507,633,o),
(403,633,cs),
(354,633,o),
(306,621,o),
(265,597,cs,{
"Letterink-NibData" = {
AngleInDegrees = "359.99999";
};
}),
(195,557,ls,{
"Letterink-NibData" = {
AngleInDegrees = "359.99999";
};
}),
(169,542,o),
(117,495,o),
(100,471,cs,{
"Letterink-NibData" = {
AngleInDegrees = "360";
};
}),
(60,415,o),
(42,359,o),
(42,290,cs),
(42,121,o),
(177,-21,o),
(337,-21,cs),
(386,-21,o),
(438,-7,o),
(482,19,cs,{
"Letterink-NibData" = {
AngleInDegrees = "360";
};
}),
(551,59,ls,{
"Letterink-NibData" = {
AngleInDegrees = "0";
};
})
);
},
{
closed = 1;
nodes = (
(476,32,o),
(444,26,o),
(403,26,cs),
(329,26,o),
(246,61,o),
(201,111,cs,{
"Letterink-NibData" = {
AngleInDegrees = "360";
};
}),
(189,123,o),
(176,141,o),
(156,168,c,{
"Letterink-NibData" = {
AngleInDegrees = "359.99999";
};
}),
(125,236,o),
(115,271,o),
(115,323,cs),
(115,425,o),
(153,501,o),
(237,566,c,{
"Letterink-NibData" = {
AngleInDegrees = "0";
};
}),
(279,583,o),
(295,586,o),
(337,586,cs),
(442,586,o),
(523,538,o),
(587,438,c,{
"Letterink-NibData" = {
AngleInDegrees = "359.99999";
};
}),
(614,389,o),
(625,347,o),
(625,289,cs,{
"Letterink-NibData" = {
AngleInDegrees = "359.99999";
};
}),
(623,192,o),
(580,102,o),
(509,47,c,{
"Letterink-NibData" = {
AngleInDegrees = "0";
};
})
);
}
);
};
color = 4;
layerId = m007;
shapes = (
{
closed = 1;
nodes = (
(546,-11,o),
(660,121,o),
(660,308,cs),
(660,494,o),
(546,626,o),
(351,626,cs),
(168,626,o),
(48,494,o),
(48,308,cs),
(48,121,o),
(168,-11,o),
(351,-11,cs)
);
},
{
closed = 1;
nodes = (
(144,474,o),
(217,585,o),
(334,585,cs),
(483,585,o),
(564,466,o),
(564,298,cs),
(564,141,o),
(497,30,o),
(368,30,cs),
(232,30,o),
(144,149,o),
(144,318,cs)
);
}
);
width = 708;
}
);
note = O;
unicode = 79;
},
{
glyphname = Oopen;
lastChange = "2025-03-23 19:29:39 +0000";
layers = (
{
anchors = (
{
name = bottom;
pos = (316,0);
},
{
name = top;
pos = (316,616);
}
);
layerId = m005;
shapes = (
{
closed = 1;
nodes = (
(241,627,o),
(148,607,o),
(92,578,c),
(74,510,o),
(58,442,o),
(54,415,c),
(90,416,l),
(114,514,o),
(200,583,o),
(298,583,cs),
(452,583,o),
(571,458,o),
(571,281,cs),
(571,134,o),
(453,28,o),
(304,28,cs),
(206,28,o),
(135,88,o),
(131,172,c),
(100,172,l),
(98,127,o),
(91,65,o),
(84,21,c),
(134,2,o),
(230,-11,o),
(316,-11,cs),
(523,-11,o),
(666,120,o),
(666,304,cs),
(666,493,o),
(523,627,o),
(316,627,cs)
);
}
);
width = 720;
},
{
anchors = (
{
name = bottom;
pos = (360,0);
},
{
name = top;
pos = (360,634);
}
);
layerId = m002;
shapes = (
{
closed = 1;
nodes = (
(241,627,o),
(148,607,o),
(92,578,c),
(74,510,o),
(58,442,o),
(54,415,c),
(90,416,l),
(114,514,o),
(200,583,o),
(298,583,cs),
(452,583,o),
(571,458,o),
(571,281,cs),
(571,134,o),
(453,28,o),
(304,28,cs),
(206,28,o),
(135,88,o),
(131,172,c),
(100,172,l),
(98,127,o),
(91,65,o),
(84,21,c),
(134,2,o),
(230,-11,o),
(316,-11,cs),
(523,-11,o),
(666,120,o),
(666,304,cs),
(666,493,o),
(523,627,o),
(316,627,cs)
);
}
);
width = 720;
},
{
anchors = (
{
name = bottom;
pos = (316,0);
},
{
name = top;
pos = (316,616);
}
);
layerId = m006;
shapes = (
{
closed = 1;
nodes = (
(241,627,o),
(148,607,o),
(92,578,c),
(74,510,o),
(58,442,o),
(54,415,c),
(90,416,l),
(114,514,o),
(200,583,o),
(298,583,cs),
(452,583,o),
(571,458,o),
(571,281,cs),
(571,134,o),
(453,28,o),
(304,28,cs),
(206,28,o),
(135,88,o),
(131,172,c),
(100,172,l),
(98,127,o),
(91,65,o),
(84,21,c),
(134,2,o),
(230,-11,o),
(316,-11,cs),
(523,-11,o),
(666,120,o),
(666,304,cs),
(666,493,o),
(523,627,o),
(316,627,cs)
);
}
);
width = 720;
},
{
anchors = (
{
name = bottom;
pos = (316,0);
},
{
name = top;
pos = (316,616);
}
);
layerId = m007;
shapes = (
{
closed = 1;
nodes = (
(241,627,o),
(148,607,o),
(92,578,c),
(74,510,o),
(58,442,o),
(54,415,c),
(90,416,l),
(114,514,o),
(200,583,o),
(298,583,cs),
(452,583,o),
(571,458,o),
(571,281,cs),
(571,134,o),
(453,28,o),
(304,28,cs),
(206,28,o),
(135,88,o),
(131,172,c),
(100,172,l),
(98,127,o),
(91,65,o),
(84,21,c),
(134,2,o),
(230,-11,o),
(316,-11,cs),
(523,-11,o),
(666,120,o),
(666,304,cs),
(666,493,o),
(523,627,o),
(316,627,cs)
);
}
);
width = 720;
}
);
unicode = 390;
},
{
glyphname = Oslash;
lastChange = "2025-03-23 19:29:39 +0000";
layers = (
{
anchors = (
{
name = bottom;
pos = (378,0);
},
{
name = top;
pos = (378,616);
}
);
layerId = m005;
shapes = (
{
ref = O;
},
{
closed = 1;
nodes = (
(79,38,l),
(107,10,l),
(675,578,l),
(647,606,l)
);
}
);
width = 756;
},
{
anchors = (
{
name = bottom;
pos = (378,0);
},
{
name = top;
pos = (378,634);
}
);
layerId = m002;
shapes = (
{
ref = O;
},
{
closed = 1;
nodes = (
(79,38,l),
(107,10,l),
(675,578,l),
(647,606,l)
);
}
);
width = 756;
},
{
anchors = (
{
name = bottom;
pos = (378,0);
},
{
name = top;
pos = (378,616);
}
);
layerId = m006;
shapes = (
{
ref = O;
},
{
closed = 1;
nodes = (
(79,38,l),
(107,10,l),
(675,578,l),
(647,606,l)
);
}
);
width = 756;
},
{
anchors = (
{
name = bottom;
pos = (378,0);
},
{
name = top;
pos = (378,616);
}
);
layerId = m007;
shapes = (
{
ref = O;
},
{
closed = 1;
nodes = (
(79,38,l),
(107,10,l),
(675,578,l),
(647,606,l)
);
}
);
width = 756;
}
);
unicode = 216;
},
{
glyphname = OE;
lastChange = "2025-03-23 19:29:39 +0000";
layers = (
{
anchors = (
{
name = bottom;
pos = (540,0);
},
{
name = top;
pos = (540,616);
}
);
color = 10;
layerId = m005;
shapes = (
{
closed = 1;
nodes = (
(569,-11,o),
(656,121,o),
(656,308,cs),
(656,494,o),
(569,626,o),
(378,626,cs),
(189,626,o),
(56,494,o),
(56,308,cs),
(56,121,o),
(189,-11,o),
(378,-11,cs)
);
},
{
closed = 1;
nodes = (
(152,471,o),
(239,585,o),
(361,585,cs),
(506,585,o),
(584,463,o),
(584,298,cs),
(584,144,o),
(520,30,o),
(395,30,cs),
(253,30,o),
(152,152,o),
(152,318,cs)
);
},
{
closed = 1;
nodes = (
(590,-1,o),
(601,0,o),
(614,0,c),
(761,0,o),
(919,-1,o),
(996,-3,c),
(1010,44,o),
(1020,110,o),
(1020,157,c),
(991,157,l),
(979,90,o),
(940,45,o),
(897,42,cs),
(865,40,o),
(801,39,o),
(744,39,cs),
(706,39,o),
(674,51,o),
(666,68,cs),
(663,74,o),
(661,90,o),
(661,107,cs),
(659,309,ls),
(659,402,o),
(660,443,o),
(661,577,c),
(744,577,l),
(772,577,o),
(814,577,o),
(846,575,cs),
(871,573,o),
(894,544,o),
(902,499,c),
(936,499,l),
(937,536,o),
(942,586,o),
(949,619,c),
(884,617,o),
(749,616,o),
(624,616,c),
(592,617,o),
(601,617,o),
(576,619,c),
(584,529,l),
(583,525,l),
(585,312,l),
(583,91,l),
(584,88,l),
(576,-3,l)
);
},
{
closed = 1;
nodes = (
(883,206,l),
(877,272,o),
(877,364,o),
(883,430,c),
(856,430,l),
(856,424,o),
(851,410,o),
(846,396,c),
(829,360,o),
(806,336,o),
(746,336,cs),
(607,336,l),
(607,296,l),
(746,296,ls),
(813,296,o),
(835,274,o),
(847,242,cs),
(857,206,l)
);
}
);
width = 1080;
},
{
anchors = (
{
name = bottom;
pos = (567,0);
},
{
name = top;
pos = (567,634);
}
);
background = {
shapes = (
{
closed = 1;
nodes = (
(569,-11,o),
(656,121,o),
(656,308,cs),
(656,494,o),
(569,626,o),
(378,626,cs),
(189,626,o),
(56,494,o),
(56,308,cs),
(56,121,o),
(189,-11,o),
(378,-11,cs)
);
},
{
closed = 1;
nodes = (
(152,471,o),
(239,585,o),
(361,585,cs),
(506,585,o),
(584,463,o),
(584,298,cs),
(584,144,o),
(520,30,o),
(395,30,cs),
(253,30,o),
(152,152,o),
(152,318,cs)
);
},
{
closed = 1;
nodes = (
(590,-1,o),
(601,0,o),
(614,0,c),
(761,0,o),
(919,-1,o),
(996,-3,c),
(1010,44,o),
(1020,110,o),
(1020,157,c),
(991,157,l),
(979,90,o),
(940,45,o),
(897,42,cs),
(865,40,o),
(801,39,o),
(744,39,cs),
(706,39,o),
(674,51,o),
(666,68,cs),
(663,74,o),
(661,90,o),
(661,107,cs),
(659,309,ls),
(659,402,o),
(660,443,o),
(661,577,c),
(744,577,l),
(772,577,o),
(814,577,o),
(846,575,cs),
(871,573,o),
(894,544,o),
(902,499,c),
(936,499,l),
(937,536,o),
(942,586,o),
(949,619,c),
(884,617,o),
(749,616,o),
(624,616,c),
(592,617,o),
(601,617,o),
(576,619,c),
(584,529,l),
(583,525,l),
(585,312,l),
(583,91,l),
(584,88,l),
(576,-3,l)
);
},
{
closed = 1;
nodes = (
(883,206,l),
(877,272,o),
(877,364,o),
(883,430,c),
(856,430,l),
(856,424,o),
(851,410,o),
(846,396,c),
(829,360,o),
(806,336,o),
(746,336,cs),
(607,336,l),
(607,296,l),
(746,296,ls),
(813,296,o),
(835,274,o),
(847,242,cs),
(857,206,l)
);
},
{
closed = 1;
nodes = (
(641,7,o),
(728,139,o),
(728,326,cs),
(728,512,o),
(641,644,o),
(450,644,cs),
(261,644,o),
(128,512,o),
(128,326,cs),
(128,139,o),
(261,7,o),
(450,7,cs)
);
},
{
closed = 1;
nodes = (
(224,489,o),
(311,603,o),
(433,603,cs),
(578,603,o),
(656,481,o),
(656,316,cs),
(656,162,o),
(592,48,o),
(467,48,cs),
(325,48,o),
(224,170,o),
(224,336,cs)
);
},
{
closed = 1;
nodes = (
(662,17,o),
(673,18,o),
(686,18,c),
(833,18,o),
(991,17,o),
(1068,15,c),
(1082,62,o),
(1092,128,o),
(1092,175,c),
(1063,175,l),
(1051,108,o),
(1012,63,o),
(969,60,cs),
(937,58,o),
(873,57,o),
(816,57,cs),
(778,57,o),
(746,69,o),
(738,86,cs),
(735,92,o),
(733,108,o),
(733,125,cs),
(731,327,ls),
(731,420,o),
(732,461,o),
(733,595,c),
(816,595,l),
(844,595,o),
(886,595,o),
(918,593,cs),
(943,591,o),
(966,562,o),
(974,517,c),
(1008,517,l),
(1009,554,o),
(1014,604,o),
(1021,637,c),
(956,635,o),
(821,634,o),
(696,634,c),
(664,635,o),
(673,635,o),
(648,637,c),
(656,547,l),
(655,543,l),
(657,330,l),
(655,109,l),
(656,106,l),
(648,15,l)
);
},
{
closed = 1;
nodes = (
(955,224,l),
(949,290,o),
(949,382,o),
(955,448,c),
(928,448,l),
(928,442,o),
(923,428,o),
(918,414,c),
(901,378,o),
(878,354,o),
(818,354,cs),
(679,354,l),
(679,314,l),
(818,314,ls),
(885,314,o),
(907,292,o),
(919,260,cs),
(929,224,l)
);
}
);
};
color = 10;
layerId = m002;
shapes = (
{
closed = 1;
nodes = (
(605,-11,o),
(728,115,o),
(728,302,cs),
(728,503,o),
(605,645,o),
(414,645,cs),
(225,645,o),
(56,498,o),
(56,312,cs),
(56,125,o),
(225,-11,o),
(414,-11,cs)
);
},
{
closed = 1;
nodes = (
(224,487,o),
(296,604,o),
(397,604,cs),
(507,604,o),
(584,479,o),
(584,302,cs),
(584,143,o),
(521,30,o),
(431,30,cs),
(310,30,o),
(224,151,o),
(224,322,cs)
);
},
{
closed = 1;
nodes = (
(626,-1,o),
(673,0,o),
(686,0,c),
(833,0,o),
(999,-1,o),
(1076,-3,c),
(1090,44,o),
(1100,128,o),
(1100,175,c),
(1053,175,l),
(1041,108,o),
(1002,45,o),
(977,42,cs),
(945,38,o),
(873,39,o),
(816,39,cs),
(778,39,o),
(746,51,o),
(738,68,cs),
(735,74,o),
(733,90,o),
(733,107,cs),
(731,303,ls),
(730,406,o),
(732,472,o),
(733,596,c),
(816,596,l),
(844,596,o),
(922,596,o),
(954,594,cs),
(979,592,o),
(1002,527,o),
(1010,482,c),
(1062,482,l),
(1063,519,o),
(1068,605,o),
(1075,638,c),
(1010,636,o),
(821,635,o),
(696,635,c),
(664,636,o),
(637,636,o),
(612,638,c),
(620,548,l),
(619,544,l),
(621,316,l),
(619,91,l),
(620,88,l),
(612,-3,l)
);
},
{
closed = 1;
nodes = (
(963,200,l),
(957,266,o),
(957,378,o),
(963,444,c),
(910,444,l),
(910,438,o),
(905,424,o),
(900,410,c),
(883,374,o),
(860,350,o),
(818,350,cs),
(679,350,l),
(679,290,l),
(818,290,ls),
(867,290,o),
(889,268,o),
(901,236,cs),
(911,200,l)
);
}
);
width = 1134;
},
{
anchors = (
{
name = bottom;
pos = (540,0);
},
{
name = top;
pos = (540,616);
}
);
color = 10;
layerId = m006;
shapes = (
{
closed = 1;
nodes = (
(569,-11,o),
(656,121,o),
(656,308,cs),
(656,494,o),
(569,626,o),
(378,626,cs),
(189,626,o),
(56,494,o),
(56,308,cs),
(56,121,o),
(189,-11,o),
(378,-11,cs)
);
},
{
closed = 1;
nodes = (
(152,471,o),
(239,585,o),
(361,585,cs),
(506,585,o),
(584,463,o),
(584,298,cs),
(584,144,o),
(520,30,o),
(395,30,cs),
(253,30,o),
(152,152,o),
(152,318,cs)
);
},
{
closed = 1;
nodes = (
(590,-1,o),
(601,0,o),
(614,0,c),
(761,0,o),
(919,-1,o),
(996,-3,c),
(1010,44,o),
(1020,110,o),
(1020,157,c),
(991,157,l),
(979,90,o),
(940,45,o),
(897,42,cs),
(865,40,o),
(801,39,o),
(744,39,cs),
(706,39,o),
(674,51,o),
(666,68,cs),
(663,74,o),
(661,90,o),
(661,107,cs),
(659,309,ls),
(659,402,o),
(660,443,o),
(661,577,c),
(744,577,l),
(772,577,o),
(814,577,o),
(846,575,cs),
(871,573,o),
(894,544,o),
(902,499,c),
(936,499,l),
(937,536,o),
(942,586,o),
(949,619,c),
(884,617,o),
(749,616,o),
(624,616,c),
(592,617,o),
(601,617,o),
(576,619,c),
(584,529,l),
(583,525,l),
(585,312,l),
(583,91,l),
(584,88,l),
(576,-3,l)
);
},
{
closed = 1;
nodes = (
(883,206,l),
(877,272,o),
(877,364,o),
(883,430,c),
(856,430,l),
(856,424,o),
(851,410,o),
(846,396,c),
(829,360,o),
(806,336,o),
(746,336,cs),
(607,336,l),
(607,296,l),
(746,296,ls),
(813,296,o),
(835,274,o),
(847,242,cs),
(857,206,l)
);
}
);
width = 1080;
},
{
anchors = (
{
name = bottom;
pos = (540,0);
},
{
name = top;
pos = (540,616);
}
);
color = 10;
layerId = m007;
shapes = (
{
closed = 1;
nodes = (
(569,-11,o),
(656,121,o),
(656,308,cs),
(656,494,o),
(569,626,o),
(378,626,cs),
(189,626,o),
(56,494,o),
(56,308,cs),
(56,121,o),
(189,-11,o),
(378,-11,cs)
);
},
{
closed = 1;
nodes = (
(152,471,o),
(239,585,o),
(361,585,cs),
(506,585,o),
(584,463,o),
(584,298,cs),
(584,144,o),
(520,30,o),
(395,30,cs),
(253,30,o),
(152,152,o),
(152,318,cs)
);
},
{
closed = 1;
nodes = (
(590,-1,o),
(601,0,o),
(614,0,c),
(761,0,o),
(919,-1,o),
(996,-3,c),
(1010,44,o),
(1020,110,o),
(1020,157,c),
(991,157,l),
(979,90,o),
(940,45,o),
(897,42,cs),
(865,40,o),
(801,39,o),
(744,39,cs),
(706,39,o),
(674,51,o),
(666,68,cs),
(663,74,o),
(661,90,o),
(661,107,cs),
(659,309,ls),
(659,402,o),
(660,443,o),
(661,577,c),
(744,577,l),
(772,577,o),
(814,577,o),
(846,575,cs),
(871,573,o),
(894,544,o),
(902,499,c),
(936,499,l),
(937,536,o),
(942,586,o),
(949,619,c),
(884,617,o),
(749,616,o),
(624,616,c),
(592,617,o),
(601,617,o),
(576,619,c),
(584,529,l),
(583,525,l),
(585,312,l),
(583,91,l),
(584,88,l),
(576,-3,l)
);
},
{
closed = 1;
nodes = (
(883,206,l),
(877,272,o),
(877,364,o),
(883,430,c),
(856,430,l),
(856,424,o),
(851,410,o),
(846,396,c),
(829,360,o),
(806,336,o),
(746,336,cs),
(607,336,l),
(607,296,l),
(746,296,ls),
(813,296,o),
(835,274,o),
(847,242,cs),
(857,206,l)
);
}
);
width = 1080;
}
);
unicode = 338;
},
{
glyphname = P;
lastChange = "2025-04-24 16:54:05 +0000";
layers = (
{
anchors = (
{
name = bottom;
pos = (252,0);
},
{
name = top;
pos = (214,616);
}
);
background = {
anchors = (
{
name = bottom;
pos = (280,0);
},
{
name = center;
pos = (138,154);
},
{
name = top;
pos = (280,616);
}
);
shapes = (
{
closed = 1;
nodes = (
(20,0,l),
(303,0,l),
(303,40,l),
(258,40,o),
(223,38,o),
(204,54,cs),
(195,62,o),
(190,73,o),
(190,91,cs),
(188,307,o),
(187,377,o),
(191,574,c),
(208,576,o),
(260,576,o),
(283,576,c),
(283,616,l),
(20,616,l),
(20,591,l),
(54,581,o),
(78,582,o),
(92,572,cs),
(102,565,o),
(107,552,o),
(107,525,cs),
(108,341,o),
(109,253,o),
(109,312,cs),
(109,373,o),
(108,282,o),
(107,91,cs),
(107,65,o),
(101,51,o),
(92,43,cs),
(76,29,o),
(50,31,o),
(20,25,c)
);
},
{
closed = 1;
nodes = (
(177,318,o),
(189,318,o),
(217,318,cs),
(373,318,o),
(476,378,o),
(476,481,cs),
(476,560,o),
(396,616,o),
(283,616,c),
(283,576,l),
(344,576,o),
(387,529,o),
(387,462,cs),
(387,387,o),
(318,348,o),
(210,348,cs),
(150,348,l),
(151,318,l)
);
}
);
};
color = 2;
layerId = m005;
shapes = (
{
closed = 1;
nodes = (
(231,271,o),
(241,271,o),
(251,271,cs),
(380,271,o),
(468,337,o),
(468,448,cs),
(468,552,o),
(391,620,o),
(279,618,c),
(260,584,l),
(334,584,o),
(382,528,o),
(382,436,cs),
(382,346,o),
(319,295,o),
(220,295,c),
(220,272,l)
);
},
{
closed = 1;
nodes = (
(288,0,l),
(288,25,l),
(237,36,o),
(216,39,o),
(204,51,cs),
(194,61,o),
(191,78,o),
(190,111,cs),
(188,188,o),
(188,379,o),
(191,583,c),
(260,584,l),
(279,618,l),
(240,617,o),
(179,616,o),
(147,616,c),
(108,616,o),
(43,617,o),
(0,618,c),
(0,587,l),
(45,580,o),
(75,576,o),
(92,556,cs),
(102,545,o),
(107,531,o),
(107,507,cs),
(109,369,o),
(109,235,o),
(107,101,cs),
(107,75,o),
(103,60,o),
(94,49,cs),
(83,35,o),
(41,30,o),
(18,25,c),
(18,0,l)
);
}
);
width = 504;
},
{
anchors = (
{
name = bottom;
pos = (288,0);
},
{
name = top;
pos = (288,634);
}
);
background = {
anchors = (
{
name = bottom;
pos = (262,0);
},
{
name = center;
pos = (120,154);
},
{
name = top;
pos = (262,616);
}
);
shapes = (
{
closed = 1;
nodes = (
(213,271,o),
(223,271,o),
(233,271,cs),
(362,271,o),
(450,337,o),
(450,448,cs),
(450,552,o),
(373,620,o),
(261,618,c),
(242,584,l),
(316,584,o),
(364,528,o),
(364,436,cs),
(364,346,o),
(301,295,o),
(202,295,c),
(202,272,l)
);
},
{
closed = 1;
nodes = (
(270,0,l),
(270,25,l),
(219,36,o),
(198,39,o),
(186,51,cs),
(176,61,o),
(173,78,o),
(172,111,cs),
(170,188,o),
(170,379,o),
(173,583,c),
(242,584,l),
(261,618,l),
(222,617,o),
(161,616,o),
(129,616,c),
(90,616,o),
(25,617,o),
(-18,618,c),
(-18,587,l),
(27,580,o),
(57,576,o),
(74,556,cs),
(84,545,o),
(89,531,o),
(89,507,cs),
(91,369,o),
(91,235,o),
(89,101,cs),
(89,75,o),
(85,60,o),
(76,49,cs),
(65,35,o),
(23,30,o),
(0,25,c),
(0,0,l)
);
},
{
closed = 1;
nodes = (
(285,289,o),
(295,289,o),
(305,289,cs),
(434,289,o),
(522,355,o),
(522,466,cs),
(522,570,o),
(445,638,o),
(333,636,c),
(314,602,l),
(388,602,o),
(436,546,o),
(436,454,cs),
(436,364,o),
(373,313,o),
(274,313,c),
(274,290,l)
);
},
{
closed = 1;
nodes = (
(342,18,l),
(342,43,l),
(291,54,o),
(270,57,o),
(258,69,cs),
(248,79,o),
(245,96,o),
(244,129,cs),
(242,206,o),
(242,397,o),
(245,601,c),
(314,602,l),
(333,636,l),
(294,635,o),
(233,634,o),
(201,634,c),
(162,634,o),
(97,635,o),
(54,636,c),
(54,605,l),
(99,598,o),
(129,594,o),
(146,574,cs),
(156,563,o),
(161,549,o),
(161,525,cs),
(163,387,o),
(163,253,o),
(161,119,cs),
(161,93,o),
(157,78,o),
(148,67,cs),
(137,53,o),
(95,48,o),
(72,43,c),
(72,18,l)
);
}
);
};
color = 2;
layerId = m002;
shapes = (
{
closed = 1;
nodes = (
(280,271,o),
(293,271,o),
(305,271,cs),
(453,271,o),
(558,352,o),
(558,466,cs),
(558,568,o),
(465,638,o),
(333,636,c),
(314,602,l),
(364,602,o),
(400,541,o),
(400,454,cs),
(400,361,o),
(348,295,o),
(274,295,c),
(274,272,l)
);
},
{
closed = 1;
nodes = (
(342,0,l),
(342,25,l),
(291,36,o),
(270,39,o),
(258,51,cs),
(248,61,o),
(245,78,o),
(244,111,cs),
(242,194,o),
(242,397,o),
(245,601,c),
(314,602,l),
(333,636,l),
(287,635,o),
(218,634,o),
(165,634,c),
(126,634,o),
(25,635,o),
(-18,636,c),
(-18,605,l),
(27,598,o),
(57,594,o),
(74,574,cs),
(84,563,o),
(89,549,o),
(89,525,cs),
(91,369,o),
(91,235,o),
(89,101,cs),
(89,75,o),
(85,60,o),
(76,49,cs),
(65,35,o),
(23,30,o),
(0,25,c),
(0,0,l)
);
}
);
width = 588;
},
{
anchors = (
{
name = bottom;
pos = (270,0);
},
{
name = top;
pos = (232,616);
}
);
background = {
anchors = (
{
name = bottom;
pos = (298,0);
},
{
name = center;
pos = (156,154);
},
{
name = top;
pos = (298,616);
}
);
shapes = (
{
closed = 1;
nodes = (
(38,0,l),
(321,0,l),
(321,40,l),
(276,40,o),
(241,38,o),
(222,54,cs),
(213,62,o),
(208,73,o),
(208,91,cs),
(206,307,o),
(205,377,o),
(209,574,c),
(226,576,o),
(278,576,o),
(301,576,c),
(301,616,l),
(38,616,l),
(38,591,l),
(72,581,o),
(96,582,o),
(110,572,cs),
(120,565,o),
(125,552,o),
(125,525,cs),
(126,341,o),
(127,253,o),
(127,312,cs),
(127,373,o),
(126,282,o),
(125,91,cs),
(125,65,o),
(119,51,o),
(110,43,cs),
(94,29,o),
(68,31,o),
(38,25,c)
);
},
{
closed = 1;
nodes = (
(195,318,o),
(207,318,o),
(235,318,cs),
(391,318,o),
(494,378,o),
(494,481,cs),
(494,560,o),
(414,616,o),
(301,616,c),
(301,576,l),
(362,576,o),
(405,529,o),
(405,462,cs),
(405,387,o),
(336,348,o),
(228,348,cs),
(168,348,l),
(169,318,l)
);
}
);
};
color = 2;
layerId = m006;
shapes = (
{
closed = 1;
nodes = (
(249,271,o),
(259,271,o),
(269,271,cs),
(398,271,o),
(486,337,o),
(486,448,cs),
(486,552,o),
(409,620,o),
(297,618,c),
(278,584,l),
(352,584,o),
(400,528,o),
(400,436,cs),
(400,346,o),
(337,295,o),
(238,295,c),
(238,272,l)
);
},
{
closed = 1;
nodes = (
(306,0,l),
(306,25,l),
(255,36,o),
(234,39,o),
(222,51,cs),
(212,61,o),
(209,78,o),
(208,111,cs),
(206,188,o),
(206,379,o),
(209,583,c),
(278,584,l),
(297,618,l),
(258,617,o),
(197,616,o),
(165,616,c),
(126,616,o),
(61,617,o),
(18,618,c),
(18,587,l),
(63,580,o),
(93,576,o),
(110,556,cs),
(120,545,o),
(125,531,o),
(125,507,cs),
(127,369,o),
(127,235,o),
(125,101,cs),
(125,75,o),
(121,60,o),
(112,49,cs),
(101,35,o),
(59,30,o),
(36,25,c),
(36,0,l)
);
}
);
width = 528;
},
{
anchors = (
{
name = bottom;
pos = (240,0);
},
{
name = top;
pos = (202,616);
}
);
background = {
anchors = (
{
name = bottom;
pos = (268,0);
},
{
name = center;
pos = (126,154);
},
{
name = top;
pos = (268,616);
}
);
shapes = (
{
closed = 1;
nodes = (
(8,0,l),
(291,0,l),
(291,40,l),
(246,40,o),
(211,38,o),
(192,54,cs),
(183,62,o),
(178,73,o),
(178,91,cs),
(176,307,o),
(175,377,o),
(179,574,c),
(196,576,o),
(248,576,o),
(271,576,c),
(271,616,l),
(8,616,l),
(8,591,l),
(42,581,o),
(66,582,o),
(80,572,cs),
(90,565,o),
(95,552,o),
(95,525,cs),
(96,341,o),
(97,253,o),
(97,312,cs),
(97,373,o),
(96,282,o),
(95,91,cs),
(95,65,o),
(89,51,o),
(80,43,cs),
(64,29,o),
(38,31,o),
(8,25,c)
);
},
{
closed = 1;
nodes = (
(165,318,o),
(177,318,o),
(205,318,cs),
(361,318,o),
(464,378,o),
(464,481,cs),
(464,560,o),
(384,616,o),
(271,616,c),
(271,576,l),
(332,576,o),
(375,529,o),
(375,462,cs),
(375,387,o),
(306,348,o),
(198,348,cs),
(138,348,l),
(139,318,l)
);
}
);
};
color = 2;
layerId = m007;
shapes = (
{
closed = 1;
nodes = (
(219,271,o),
(229,271,o),
(239,271,cs),
(368,271,o),
(456,337,o),
(456,448,cs),
(456,552,o),
(379,620,o),
(267,618,c),
(248,584,l),
(322,584,o),
(370,528,o),
(370,436,cs),
(370,346,o),
(307,295,o),
(208,295,c),
(208,272,l)
);
},
{
closed = 1;
nodes = (
(276,0,l),
(276,25,l),
(225,36,o),
(204,39,o),
(192,51,cs),
(182,61,o),
(179,78,o),
(178,111,cs),
(176,188,o),
(176,379,o),
(179,583,c),
(248,584,l),
(267,618,l),
(228,617,o),
(167,616,o),
(135,616,c),
(96,616,o),
(31,617,o),
(-12,618,c),
(-12,587,l),
(33,580,o),
(63,576,o),
(80,556,cs),
(90,545,o),
(95,531,o),
(95,507,cs),
(97,369,o),
(97,235,o),
(95,101,cs),
(95,75,o),
(91,60,o),
(82,49,cs),
(71,35,o),
(29,30,o),
(6,25,c),
(6,0,l)
);
}
);
width = 488;
}
);
unicode = 80;
},
{
glyphname = Thorn;
lastChange = "2025-04-24 16:54:05 +0000";
layers = (
{
anchors = (
{
name = bottom;
pos = (252,0);
},
{
name = top;
pos = (252,616);
}
);
layerId = m005;
shapes = (
{
closed = 1;
nodes = (
(270,0,l),
(270,25,l),
(237,36,o),
(216,39,o),
(204,51,cs),
(195,60,o),
(190,81,o),
(190,111,cs),
(190,113,o),
(188,302,o),
(191,506,cs),
(191,532,o),
(195,556,o),
(204,567,cs),
(215,581,o),
(257,586,o),
(288,591,c),
(288,616,l),
(18,616,l),
(18,591,l),
(61,580,o),
(83,576,o),
(94,565,cs),
(103,556,o),
(107,538,o),
(108,505,cs),
(108,474,o),
(109,156,o),
(107,101,cs),
(106,75,o),
(103,60,o),
(94,49,cs),
(83,35,o),
(41,30,o),
(18,25,c),
(18,0,l)
);
},
{
closed = 1;
nodes = (
(380,140,o),
(468,206,o),
(468,317,cs),
(468,421,o),
(391,489,o),
(279,487,c),
(260,453,l),
(334,453,o),
(382,397,o),
(382,305,cs),
(382,215,o),
(319,164,o),
(220,164,c),
(220,141,l),
(231,140,o),
(241,140,o),
(251,140,cs)
);
},
{
closed = 1;
nodes = (
(260,453,l),
(279,487,l),
(157,486,l),
(157,452,l)
);
}
);
width = 486;
},
{
anchors = (
{
name = bottom;
pos = (234,0);
},
{
name = top;
pos = (234,634);
}
);
layerId = m002;
shapes = (
{
closed = 1;
nodes = (
(252,0,l),
(252,25,l),
(219,36,o),
(198,39,o),
(186,51,cs),
(177,60,o),
(172,81,o),
(172,111,cs),
(172,113,o),
(170,302,o),
(173,506,cs),
(173,532,o),
(177,556,o),
(186,567,cs),
(197,581,o),
(239,586,o),
(270,591,c),
(270,616,l),
(0,616,l),
(0,591,l),
(43,580,o),
(65,576,o),
(76,565,cs),
(85,556,o),
(89,538,o),
(90,505,cs),
(90,474,o),
(91,156,o),
(89,101,cs),
(88,75,o),
(85,60,o),
(76,49,cs),
(65,35,o),
(23,30,o),
(0,25,c),
(0,0,l)
);
},
{
closed = 1;
nodes = (
(362,140,o),
(450,206,o),
(450,317,cs),
(450,421,o),
(373,489,o),
(261,487,c),
(242,453,l),
(316,453,o),
(364,397,o),
(364,305,cs),
(364,215,o),
(301,164,o),
(202,164,c),
(202,141,l),
(213,140,o),
(223,140,o),
(233,140,cs)
);
},
{
closed = 1;
nodes = (
(242,453,l),
(261,487,l),
(139,486,l),
(139,452,l)
);
}
);
width = 465;
},
{
anchors = (
{
name = bottom;
pos = (270,0);
},
{
name = top;
pos = (270,616);
}
);
layerId = m006;
shapes = (
{
closed = 1;
nodes = (
(288,0,l),
(288,25,l),
(255,36,o),
(234,39,o),
(222,51,cs),
(213,60,o),
(208,81,o),
(208,111,cs),
(208,113,o),
(206,302,o),
(209,506,cs),
(209,532,o),
(213,556,o),
(222,567,cs),
(233,581,o),
(275,586,o),
(306,591,c),
(306,616,l),
(36,616,l),
(36,591,l),
(79,580,o),
(101,576,o),
(112,565,cs),
(121,556,o),
(125,538,o),
(126,505,cs),
(126,474,o),
(127,156,o),
(125,101,cs),
(124,75,o),
(121,60,o),
(112,49,cs),
(101,35,o),
(59,30,o),
(36,25,c),
(36,0,l)
);
},
{
closed = 1;
nodes = (
(398,140,o),
(486,206,o),
(486,317,cs),
(486,421,o),
(409,489,o),
(297,487,c),
(278,453,l),
(352,453,o),
(400,397,o),
(400,305,cs),
(400,215,o),
(337,164,o),
(238,164,c),
(238,141,l),
(249,140,o),
(259,140,o),
(269,140,cs)
);
},
{
closed = 1;
nodes = (
(278,453,l),
(297,487,l),
(175,486,l),
(175,452,l)
);
}
);
width = 507;
},
{
anchors = (
{
name = bottom;
pos = (240,0);
},
{
name = top;
pos = (240,616);
}
);
layerId = m007;
shapes = (
{
closed = 1;
nodes = (
(258,0,l),
(258,25,l),
(225,36,o),
(204,39,o),
(192,51,cs),
(183,60,o),
(178,81,o),
(178,111,cs),
(178,113,o),
(176,302,o),
(179,506,cs),
(179,532,o),
(183,556,o),
(192,567,cs),
(203,581,o),
(245,586,o),
(276,591,c),
(276,616,l),
(6,616,l),
(6,591,l),
(49,580,o),
(71,576,o),
(82,565,cs),
(91,556,o),
(95,538,o),
(96,505,cs),
(96,474,o),
(97,156,o),
(95,101,cs),
(94,75,o),
(91,60,o),
(82,49,cs),
(71,35,o),
(29,30,o),
(6,25,c),
(6,0,l)
);
},
{
closed = 1;
nodes = (
(368,140,o),
(456,206,o),
(456,317,cs),
(456,421,o),
(379,489,o),
(267,487,c),
(248,453,l),
(322,453,o),
(370,397,o),
(370,305,cs),
(370,215,o),
(307,164,o),
(208,164,c),
(208,141,l),
(219,140,o),
(229,140,o),
(239,140,cs)
);
},
{
closed = 1;
nodes = (
(248,453,l),
(267,487,l),
(145,486,l),
(145,452,l)
);
}
);
width = 472;
}
);
unicode = 222;
},
{
glyphname = Q;
lastChange = "2025-04-24 16:54:06 +0000";
layers = (
{
anchors = (
{
name = bottom;
pos = (378,0);
},
{
name = top;
pos = (378,616);
}
);
background = {
shapes = (
{
closed = 1;
nodes = (
(567,-11,o),
(702,121,o),
(702,308,cs),
(702,494,o),
(567,626,o),
(376,626,cs),
(187,626,o),
(54,494,o),
(54,308,cs),
(54,121,o),
(187,-11,o),
(376,-11,cs)
);
},
{
closed = 1;
nodes = (
(150,471,o),
(237,585,o),
(359,585,cs),
(504,585,o),
(606,463,o),
(606,298,cs),
(606,144,o),
(518,30,o),
(393,30,cs),
(251,30,o),
(150,152,o),
(150,318,cs)
);
},
{
closed = 1;
nodes = (
(567,-11,o),
(702,121,o),
(702,308,cs),
(702,494,o),
(567,626,o),
(376,626,cs),
(187,626,o),
(54,494,o),
(54,308,cs),
(54,121,o),
(187,-11,o),
(376,-11,cs)
);
},
{
closed = 1;
nodes = (
(150,471,o),
(237,585,o),
(359,585,cs),
(504,585,o),
(606,463,o),
(606,298,cs),
(606,144,o),
(518,30,o),
(393,30,cs),
(251,30,o),
(150,152,o),
(150,318,cs)
);
}
);
};
backgroundImage = {
imagePath = "../../Desktop/Bildschirmfoto 2024-12-24 um 15.25.09.png";
pos = (965,-1126);
scale = (-1.4,1.4);
};
color = 4;
layerId = m005;
shapes = (
{
closed = 1;
nodes = (
(569,-11,o),
(702,121,o),
(702,308,cs),
(702,494,o),
(569,626,o),
(381,626,cs),
(189,626,o),
(54,494,o),
(54,308,cs),
(54,121,o),
(189,-11,o),
(381,-11,cs)
);
},
{
closed = 1;
nodes = (
(150,474,o),
(236,584,o),
(358,584,cs),
(503,584,o),
(606,466,o),
(606,298,cs),
(606,141,o),
(520,30,o),
(398,30,cs),
(253,30,o),
(150,149,o),
(150,318,cs)
);
},
{
closed = 1;
nodes = (
(939,-232,o),
(1057,-202,o),
(1131,-153,c),
(1120,-133,l),
(1046,-163,o),
(957,-179,o),
(869,-179,cs),
(703,-179,o),
(537,-98,o),
(458,29,c),
(331,11,l),
(430,-144,o),
(630,-232,o),
(813,-232,cs)
);
}
);
width = 756;
},
{
anchors = (
{
name = bottom;
pos = (405,0);
},
{
name = top;
pos = (405,634);
}
);
background = {
shapes = (
{
closed = 1;
nodes = (
(558,-11,o),
(693,121,o),
(693,308,cs),
(693,494,o),
(558,626,o),
(367,626,cs),
(178,626,o),
(45,494,o),
(45,308,cs),
(45,121,o),
(178,-11,o),
(367,-11,cs)
);
},
{
closed = 1;
nodes = (
(141,471,o),
(228,585,o),
(350,585,cs),
(495,585,o),
(597,463,o),
(597,298,cs),
(597,144,o),
(509,30,o),
(384,30,cs),
(242,30,o),
(141,152,o),
(141,318,cs)
);
},
{
closed = 1;
nodes = (
(558,-11,o),
(693,121,o),
(693,308,cs),
(693,494,o),
(558,626,o),
(367,626,cs),
(178,626,o),
(45,494,o),
(45,308,cs),
(45,121,o),
(178,-11,o),
(367,-11,cs)
);
},
{
closed = 1;
nodes = (
(141,471,o),
(228,585,o),
(350,585,cs),
(495,585,o),
(597,463,o),
(597,298,cs),
(597,144,o),
(509,30,o),
(384,30,cs),
(242,30,o),
(141,152,o),
(141,318,cs)
);
},
{
closed = 1;
nodes = (
(560,-11,o),
(693,121,o),
(693,308,cs),
(693,494,o),
(560,626,o),
(372,626,cs),
(180,626,o),
(45,494,o),
(45,308,cs),
(45,121,o),
(180,-11,o),
(372,-11,cs)
);
},
{
closed = 1;
nodes = (
(141,474,o),
(227,584,o),
(349,584,cs),
(494,584,o),
(597,466,o),
(597,298,cs),
(597,141,o),
(511,30,o),
(389,30,cs),
(244,30,o),
(141,149,o),
(141,318,cs)
);
},
{
closed = 1;
nodes = (
(621,-232,o),
(804,-232,cs),
(930,-232,o),
(1048,-202,o),
(1122,-153,c),
(1111,-133,l),
(1037,-163,o),
(948,-179,o),
(860,-179,cs),
(694,-179,o),
(528,-98,o),
(449,29,c),
(322,11,l),
(421,-144,o)
);
},
{
closed = 1;
nodes = (
(632,7,o),
(765,139,o),
(765,326,cs),
(765,512,o),
(632,644,o),
(444,644,cs),
(252,644,o),
(117,512,o),
(117,326,cs),
(117,139,o),
(252,7,o),
(444,7,cs)
);
},
{
closed = 1;
nodes = (
(213,492,o),
(299,602,o),
(421,602,cs),
(566,602,o),
(669,484,o),
(669,316,cs),
(669,159,o),
(583,48,o),
(461,48,cs),
(316,48,o),
(213,167,o),
(213,336,cs)
);
},
{
closed = 1;
nodes = (
(693,-214,o),
(876,-214,cs),
(1002,-214,o),
(1120,-184,o),
(1194,-135,c),
(1183,-115,l),
(1109,-145,o),
(1020,-161,o),
(932,-161,cs),
(766,-161,o),
(600,-80,o),
(521,47,c),
(394,29,l),
(493,-126,o)
);
}
);
};
backgroundImage = {
imagePath = "../../Desktop/Bildschirmfoto 2024-12-24 um 15.25.09.png";
pos = (956,-1126);
scale = (-1.4,1.4);
};
color = 4;
layerId = m002;
shapes = (
{
closed = 1;
nodes = (
(615,-11,o),
(765,129,o),
(765,326,cs),
(765,512,o),
(615,644,o),
(402,644,cs),
(193,644,o),
(45,505,o),
(45,308,cs),
(45,121,o),
(193,-11,o),
(402,-11,cs)
);
},
{
closed = 1;
nodes = (
(213,492,o),
(284,603,o),
(385,603,cs),
(509,603,o),
(597,477,o),
(597,298,cs),
(597,141,o),
(523,30,o),
(419,30,cs),
(298,30,o),
(213,157,o),
(213,336,cs)
);
},
{
closed = 1;
nodes = (
(947,-232,o),
(1108,-192,o),
(1194,-135,c),
(1183,-115,l),
(1117,-142,o),
(1013,-161,o),
(932,-161,cs),
(767,-161,o),
(597,-75,o),
(521,47,c),
(322,11,l),
(413,-131,o),
(613,-232,o),
(804,-232,cs)
);
}
);
width = 810;
},
{
anchors = (
{
name = bottom;
pos = (387,0);
},
{
name = top;
pos = (387,616);
}
);
background = {
shapes = (
{
closed = 1;
nodes = (
(576,-11,o),
(711,121,o),
(711,308,cs),
(711,494,o),
(576,626,o),
(385,626,cs),
(196,626,o),
(63,494,o),
(63,308,cs),
(63,121,o),
(196,-11,o),
(385,-11,cs)
);
},
{
closed = 1;
nodes = (
(159,471,o),
(246,585,o),
(368,585,cs),
(513,585,o),
(615,463,o),
(615,298,cs),
(615,144,o),
(527,30,o),
(402,30,cs),
(260,30,o),
(159,152,o),
(159,318,cs)
);
},
{
closed = 1;
nodes = (
(576,-11,o),
(711,121,o),
(711,308,cs),
(711,494,o),
(576,626,o),
(385,626,cs),
(196,626,o),
(63,494,o),
(63,308,cs),
(63,121,o),
(196,-11,o),
(385,-11,cs)
);
},
{
closed = 1;
nodes = (
(159,471,o),
(246,585,o),
(368,585,cs),
(513,585,o),
(615,463,o),
(615,298,cs),
(615,144,o),
(527,30,o),
(402,30,cs),
(260,30,o),
(159,152,o),
(159,318,cs)
);
}
);
};
backgroundImage = {
imagePath = "../../Desktop/Bildschirmfoto 2024-12-24 um 15.25.09.png";
pos = (974,-1126);
scale = (-1.4,1.4);
};
color = 4;
layerId = m006;
shapes = (
{
closed = 1;
nodes = (
(578,-11,o),
(711,121,o),
(711,308,cs),
(711,494,o),
(578,626,o),
(390,626,cs),
(198,626,o),
(63,494,o),
(63,308,cs),
(63,121,o),
(198,-11,o),
(390,-11,cs)
);
},
{
closed = 1;
nodes = (
(159,474,o),
(245,584,o),
(367,584,cs),
(512,584,o),
(615,466,o),
(615,298,cs),
(615,141,o),
(529,30,o),
(407,30,cs),
(262,30,o),
(159,149,o),
(159,318,cs)
);
},
{
closed = 1;
nodes = (
(948,-232,o),
(1066,-202,o),
(1140,-153,c),
(1129,-133,l),
(1055,-163,o),
(966,-179,o),
(878,-179,cs),
(712,-179,o),
(546,-98,o),
(467,29,c),
(340,11,l),
(439,-144,o),
(639,-232,o),
(822,-232,cs)
);
}
);
width = 810;
},
{
anchors = (
{
name = bottom;
pos = (372,0);
},
{
name = top;
pos = (372,616);
}
);
background = {
shapes = (
{
closed = 1;
nodes = (
(561,-11,o),
(696,121,o),
(696,308,cs),
(696,494,o),
(561,626,o),
(370,626,cs),
(181,626,o),
(48,494,o),
(48,308,cs),
(48,121,o),
(181,-11,o),
(370,-11,cs)
);
},
{
closed = 1;
nodes = (
(144,471,o),
(231,585,o),
(353,585,cs),
(498,585,o),
(600,463,o),
(600,298,cs),
(600,144,o),
(512,30,o),
(387,30,cs),
(245,30,o),
(144,152,o),
(144,318,cs)
);
},
{
closed = 1;
nodes = (
(561,-11,o),
(696,121,o),
(696,308,cs),
(696,494,o),
(561,626,o),
(370,626,cs),
(181,626,o),
(48,494,o),
(48,308,cs),
(48,121,o),
(181,-11,o),
(370,-11,cs)
);
},
{
closed = 1;
nodes = (
(144,471,o),
(231,585,o),
(353,585,cs),
(498,585,o),
(600,463,o),
(600,298,cs),
(600,144,o),
(512,30,o),
(387,30,cs),
(245,30,o),
(144,152,o),
(144,318,cs)
);
}
);
};
backgroundImage = {
imagePath = "../../Desktop/Bildschirmfoto 2024-12-24 um 15.25.09.png";
pos = (959,-1126);
scale = (-1.4,1.4);
};
color = 4;
layerId = m007;
shapes = (
{
closed = 1;
nodes = (
(563,-11,o),
(696,121,o),
(696,308,cs),
(696,494,o),
(563,626,o),
(375,626,cs),
(183,626,o),
(48,494,o),
(48,308,cs),
(48,121,o),
(183,-11,o),
(375,-11,cs)
);
},
{
closed = 1;
nodes = (
(144,474,o),
(230,584,o),
(352,584,cs),
(497,584,o),
(600,466,o),
(600,298,cs),
(600,141,o),
(514,30,o),
(392,30,cs),
(247,30,o),
(144,149,o),
(144,318,cs)
);
},
{
closed = 1;
nodes = (
(933,-232,o),
(1051,-202,o),
(1125,-153,c),
(1114,-133,l),
(1040,-163,o),
(951,-179,o),
(863,-179,cs),
(697,-179,o),
(531,-98,o),
(452,29,c),
(325,11,l),
(424,-144,o),
(624,-232,o),
(807,-232,cs)
);
}
);
width = 708;
}
);
metricWidth = O;
unicode = 81;
},
{
glyphname = R;
lastChange = "2025-04-24 16:54:05 +0000";
layers = (
{
anchors = (
{
name = bottom;
pos = (371,0);
},
{
name = top;
pos = (214,616);
}
);
background = {
shapes = (
{
closed = 1;
nodes = (
(20,0,l),
(303,0,l),
(303,40,l),
(258,40,o),
(223,38,o),
(204,54,cs),
(195,62,o),
(190,73,o),
(190,91,cs),
(188,307,o),
(187,377,o),
(191,574,c),
(208,576,o),
(260,576,o),
(283,576,c),
(283,616,l),
(20,616,l),
(20,591,l),
(54,581,o),
(78,582,o),
(92,572,cs),
(102,565,o),
(107,552,o),
(107,525,cs),
(108,341,o),
(109,253,o),
(109,312,cs),
(109,373,o),
(108,282,o),
(107,91,cs),
(107,65,o),
(101,51,o),
(92,43,cs),
(76,29,o),
(50,31,o),
(20,25,c)
);
}
);
};
color = 2;
layerId = m005;
shapes = (
{
closed = 1;
nodes = (
(345,282,o),
(462,354,o),
(462,458,cs),
(462,550,o),
(379,620,o),
(271,618,c),
(252,576,l),
(322,576,o),
(376,526,o),
(376,446,cs),
(376,362,o),
(296,322,o),
(180,322,c),
(180,282,l)
);
},
{
closed = 1;
nodes = (
(288,0,l),
(288,27,l),
(249,31,o),
(211,41,o),
(200,53,cs),
(190,63,o),
(188,79,o),
(188,106,cs),
(188,374,o),
(187,454,o),
(191,574,c),
(252,576,l),
(271,618,l),
(222,617,o),
(194,616,o),
(145,616,c),
(106,615,o),
(65,617,o),
(19,618,c),
(19,592,l),
(54,585,o),
(85,579,o),
(96,567,cs),
(105,556,o),
(107,538,o),
(107,512,cs),
(109,376,o),
(109,238,o),
(107,104,cs),
(107,69,o),
(103,53,o),
(92,44,cs),
(80,34,o),
(60,32,o),
(18,25,c),
(18,0,l)
);
},
{
closed = 1;
nodes = (
(630,18,l),
(558,26,o),
(436,156,o),
(340,337,c),
(264,305,l),
(349,123,o),
(456,-5,o),
(528,-3,cs),
(630,0,l)
);
}
);
width = 630;
},
{
anchors = (
{
name = bottom;
pos = (351,0);
},
{
name = top;
pos = (351,634);
}
);
background = {
shapes = (
{
closed = 1;
nodes = (
(327,282,o),
(444,354,o),
(444,458,cs),
(444,550,o),
(361,620,o),
(253,618,c),
(234,576,l),
(304,576,o),
(358,526,o),
(358,446,cs),
(358,362,o),
(278,322,o),
(162,322,c),
(162,282,l)
);
},
{
closed = 1;
nodes = (
(270,0,l),
(270,27,l),
(231,31,o),
(193,41,o),
(182,53,cs),
(172,63,o),
(170,79,o),
(170,106,cs),
(170,374,o),
(169,454,o),
(173,574,c),
(234,576,l),
(253,618,l),
(204,617,o),
(176,616,o),
(127,616,c),
(88,615,o),
(47,617,o),
(1,618,c),
(1,592,l),
(36,585,o),
(67,579,o),
(78,567,cs),
(87,556,o),
(89,538,o),
(89,512,cs),
(91,376,o),
(91,238,o),
(89,104,cs),
(89,69,o),
(85,53,o),
(74,44,cs),
(62,34,o),
(42,32,o),
(0,25,c),
(0,0,l)
);
},
{
closed = 1;
nodes = (
(612,18,l),
(540,26,o),
(418,156,o),
(322,337,c),
(246,305,l),
(331,123,o),
(438,-5,o),
(510,-3,cs),
(612,0,l)
);
},
{
closed = 1;
nodes = (
(399,300,o),
(516,372,o),
(516,476,cs),
(516,568,o),
(433,638,o),
(325,636,c),
(306,594,l),
(376,594,o),
(430,544,o),
(430,464,cs),
(430,380,o),
(350,340,o),
(234,340,c),
(234,300,l)
);
},
{
closed = 1;
nodes = (
(342,18,l),
(342,45,l),
(303,49,o),
(265,59,o),
(254,71,cs),
(244,81,o),
(242,97,o),
(242,124,cs),
(242,392,o),
(241,472,o),
(245,592,c),
(306,594,l),
(325,636,l),
(276,635,o),
(248,634,o),
(199,634,c),
(160,633,o),
(119,635,o),
(73,636,c),
(73,610,l),
(108,603,o),
(139,597,o),
(150,585,cs),
(159,574,o),
(161,556,o),
(161,530,cs),
(163,394,o),
(163,256,o),
(161,122,cs),
(161,87,o),
(157,71,o),
(146,62,cs),
(134,52,o),
(114,50,o),
(72,43,c),
(72,18,l)
);
},
{
closed = 1;
nodes = (
(684,36,l),
(612,44,o),
(490,174,o),
(394,355,c),
(318,323,l),
(403,141,o),
(510,13,o),
(582,15,cs),
(684,18,l)
);
}
);
};
color = 2;
layerId = m002;
shapes = (
{
closed = 1;
nodes = (
(420,282,o),
(552,362,o),
(552,476,cs),
(552,572,o),
(458,638,o),
(325,636,c),
(288,594,l),
(350,594,o),
(394,540,o),
(394,464,cs),
(394,381,o),
(328,322,o),
(234,322,c),
(234,282,l)
);
},
{
closed = 1;
nodes = (
(342,0,l),
(342,27,l),
(303,31,o),
(265,41,o),
(254,53,cs),
(244,63,o),
(242,79,o),
(242,106,cs),
(242,344,o),
(243,545,o),
(245,592,c),
(288,594,l),
(325,636,l),
(258,635,o),
(191,634,o),
(163,634,c),
(124,633,o),
(47,635,o),
(1,636,c),
(1,610,l),
(36,603,o),
(67,597,o),
(78,585,cs),
(87,574,o),
(89,556,o),
(89,530,cs),
(91,376,o),
(91,238,o),
(89,104,cs),
(89,69,o),
(85,53,o),
(74,44,cs),
(62,34,o),
(42,32,o),
(0,25,c),
(0,0,l)
);
},
{
closed = 1;
nodes = (
(720,18,l),
(645,26,o),
(525,159,o),
(430,337,c),
(282,305,l),
(367,123,o),
(474,-4,o),
(546,-3,cs),
(720,0,l)
);
}
);
width = 720;
},
{
anchors = (
{
name = bottom;
pos = (389,0);
},
{
name = top;
pos = (232,616);
}
);
background = {
shapes = (
{
closed = 1;
nodes = (
(38,0,l),
(321,0,l),
(321,40,l),
(276,40,o),
(241,38,o),
(222,54,cs),
(213,62,o),
(208,73,o),
(208,91,cs),
(206,307,o),
(205,377,o),
(209,574,c),
(226,576,o),
(278,576,o),
(301,576,c),
(301,616,l),
(38,616,l),
(38,591,l),
(72,581,o),
(96,582,o),
(110,572,cs),
(120,565,o),
(125,552,o),
(125,525,cs),
(126,341,o),
(127,253,o),
(127,312,cs),
(127,373,o),
(126,282,o),
(125,91,cs),
(125,65,o),
(119,51,o),
(110,43,cs),
(94,29,o),
(68,31,o),
(38,25,c)
);
}
);
};
color = 2;
layerId = m006;
shapes = (
{
closed = 1;
nodes = (
(363,282,o),
(480,354,o),
(480,458,cs),
(480,550,o),
(397,620,o),
(289,618,c),
(270,576,l),
(340,576,o),
(394,526,o),
(394,446,cs),
(394,362,o),
(314,322,o),
(198,322,c),
(198,282,l)
);
},
{
closed = 1;
nodes = (
(306,0,l),
(306,27,l),
(267,31,o),
(229,41,o),
(218,53,cs),
(208,63,o),
(206,79,o),
(206,106,cs),
(206,374,o),
(205,454,o),
(209,574,c),
(270,576,l),
(289,618,l),
(240,617,o),
(212,616,o),
(163,616,c),
(124,615,o),
(83,617,o),
(37,618,c),
(37,592,l),
(72,585,o),
(103,579,o),
(114,567,cs),
(123,556,o),
(125,538,o),
(125,512,cs),
(127,376,o),
(127,238,o),
(125,104,cs),
(125,69,o),
(121,53,o),
(110,44,cs),
(98,34,o),
(78,32,o),
(36,25,c),
(36,0,l)
);
},
{
closed = 1;
nodes = (
(648,18,l),
(576,26,o),
(454,156,o),
(358,337,c),
(282,305,l),
(367,123,o),
(474,-5,o),
(546,-3,cs),
(648,0,l)
);
}
);
width = 648;
},
{
anchors = (
{
name = bottom;
pos = (359,0);
},
{
name = top;
pos = (202,616);
}
);
background = {
shapes = (
{
closed = 1;
nodes = (
(8,0,l),
(291,0,l),
(291,40,l),
(246,40,o),
(211,38,o),
(192,54,cs),
(183,62,o),
(178,73,o),
(178,91,cs),
(176,307,o),
(175,377,o),
(179,574,c),
(196,576,o),
(248,576,o),
(271,576,c),
(271,616,l),
(8,616,l),
(8,591,l),
(42,581,o),
(66,582,o),
(80,572,cs),
(90,565,o),
(95,552,o),
(95,525,cs),
(96,341,o),
(97,253,o),
(97,312,cs),
(97,373,o),
(96,282,o),
(95,91,cs),
(95,65,o),
(89,51,o),
(80,43,cs),
(64,29,o),
(38,31,o),
(8,25,c)
);
}
);
};
color = 2;
layerId = m007;
shapes = (
{
closed = 1;
nodes = (
(333,282,o),
(450,354,o),
(450,458,cs),
(450,550,o),
(367,620,o),
(259,618,c),
(240,576,l),
(310,576,o),
(364,526,o),
(364,446,cs),
(364,362,o),
(284,322,o),
(168,322,c),
(168,282,l)
);
},
{
closed = 1;
nodes = (
(276,0,l),
(276,27,l),
(237,31,o),
(199,41,o),
(188,53,cs),
(178,63,o),
(176,79,o),
(176,106,cs),
(176,374,o),
(175,454,o),
(179,574,c),
(240,576,l),
(259,618,l),
(210,617,o),
(182,616,o),
(133,616,c),
(94,615,o),
(53,617,o),
(7,618,c),
(7,592,l),
(42,585,o),
(73,579,o),
(84,567,cs),
(93,556,o),
(95,538,o),
(95,512,cs),
(97,376,o),
(97,238,o),
(95,104,cs),
(95,69,o),
(91,53,o),
(80,44,cs),
(68,34,o),
(48,32,o),
(6,25,c),
(6,0,l)
);
},
{
closed = 1;
nodes = (
(618,18,l),
(546,26,o),
(424,156,o),
(328,337,c),
(252,305,l),
(337,123,o),
(444,-5,o),
(516,-3,cs),
(618,0,l)
);
}
);
width = 618;
}
);
unicode = 82;
},
{
glyphname = S;
lastChange = "2025-04-24 16:54:05 +0000";
layers = (
{
anchors = (
{
name = bottom;
pos = (216,0);
},
{
name = top;
pos = (241,616);
}
);
color = 4;
layerId = m005;
shapes = (
{
closed = 1;
nodes = (
(344,-9,o),
(433,69,o),
(433,176,cs),
(433,341,o),
(123,354,o),
(126,492,cs),
(127,545,o),
(173,581,o),
(241,581,cs),
(316,581,o),
(363,517,o),
(357,453,c),
(396,453,l),
(395,508,o),
(396,576,o),
(400,593,c),
(350,611,o),
(282,624,o),
(241,624,cs),
(128,624,o),
(55,550,o),
(55,446,cs),
(55,272,o),
(359,279,o),
(359,136,cs),
(359,75,o),
(298,33,o),
(217,35,cs),
(142,37,o),
(93,104,o),
(95,197,c),
(54,197,l),
(57,171,o),
(58,104,o),
(57,36,c),
(122,10,o),
(188,-9,o),
(217,-9,cs)
);
}
);
width = 487;
},
{
anchors = (
{
name = bottom;
pos = (267,0);
},
{
name = top;
pos = (267,634);
}
);
background = {
shapes = (
{
closed = 1;
nodes = (
(350,-9,o),
(439,69,o),
(439,176,cs),
(439,341,o),
(129,354,o),
(132,492,cs),
(133,545,o),
(179,581,o),
(247,581,cs),
(322,581,o),
(369,517,o),
(363,453,c),
(402,453,l),
(401,508,o),
(402,576,o),
(406,593,c),
(356,611,o),
(288,624,o),
(247,624,cs),
(134,624,o),
(61,550,o),
(61,446,cs),
(61,272,o),
(365,279,o),
(365,136,cs),
(365,75,o),
(304,33,o),
(223,35,cs),
(148,37,o),
(99,104,o),
(101,197,c),
(60,197,l),
(63,171,o),
(64,104,o),
(63,36,c),
(128,10,o),
(194,-9,o),
(223,-9,cs)
);
},
{
closed = 1;
nodes = (
(422,9,o),
(511,87,o),
(511,194,cs),
(511,359,o),
(201,372,o),
(204,510,cs),
(205,563,o),
(251,599,o),
(319,599,cs),
(394,599,o),
(441,535,o),
(435,471,c),
(474,471,l),
(473,526,o),
(474,594,o),
(478,611,c),
(428,629,o),
(360,642,o),
(319,642,cs),
(206,642,o),
(133,568,o),
(133,464,cs),
(133,290,o),
(437,297,o),
(437,154,cs),
(437,93,o),
(376,51,o),
(295,53,cs),
(220,55,o),
(171,122,o),
(173,215,c),
(132,215,l),
(135,189,o),
(136,122,o),
(135,54,c),
(200,28,o),
(266,9,o),
(295,9,cs)
);
}
);
};
color = 4;
layerId = m002;
shapes = (
{
closed = 1;
nodes = (
(407,-9,o),
(511,68,o),
(511,176,cs),
(511,341,o),
(201,372,o),
(204,510,cs),
(205,562,o),
(238,599,o),
(283,599,cs),
(370,599,o),
(425,539,o),
(417,453,c),
(474,453,l),
(473,534,o),
(482,600,o),
(496,611,c),
(427,629,o),
(339,642,o),
(283,642,cs),
(153,642,o),
(61,568,o),
(61,464,cs),
(61,290,o),
(365,279,o),
(365,136,cs),
(365,75,o),
(321,33,o),
(259,35,cs),
(175,37,o),
(117,112,o),
(119,215,c),
(60,215,l),
(66,163,o),
(60,89,o),
(45,36,c),
(129,10,o),
(218,-9,o),
(259,-9,cs)
);
}
);
width = 556;
},
{
anchors = (
{
name = bottom;
pos = (225,0);
},
{
name = top;
pos = (250,616);
}
);
color = 4;
layerId = m006;
shapes = (
{
closed = 1;
nodes = (
(353,-9,o),
(442,69,o),
(442,176,cs),
(442,341,o),
(132,354,o),
(135,492,cs),
(136,545,o),
(182,581,o),
(250,581,cs),
(325,581,o),
(372,517,o),
(366,453,c),
(405,453,l),
(404,508,o),
(405,576,o),
(409,593,c),
(359,611,o),
(291,624,o),
(250,624,cs),
(137,624,o),
(64,550,o),
(64,446,cs),
(64,272,o),
(368,279,o),
(368,136,cs),
(368,75,o),
(307,33,o),
(226,35,cs),
(151,37,o),
(102,104,o),
(104,197,c),
(63,197,l),
(66,171,o),
(67,104,o),
(66,36,c),
(131,10,o),
(197,-9,o),
(226,-9,cs)
);
}
);
width = 505;
},
{
anchors = (
{
name = bottom;
pos = (210,0);
},
{
name = top;
pos = (235,616);
}
);
color = 4;
layerId = m007;
shapes = (
{
closed = 1;
nodes = (
(338,-9,o),
(427,69,o),
(427,176,cs),
(427,341,o),
(117,354,o),
(120,492,cs),
(121,545,o),
(167,581,o),
(235,581,cs),
(310,581,o),
(357,517,o),
(351,453,c),
(390,453,l),
(389,508,o),
(390,576,o),
(394,593,c),
(344,611,o),
(276,624,o),
(235,624,cs),
(122,624,o),
(49,550,o),
(49,446,cs),
(49,272,o),
(353,279,o),
(353,136,cs),
(353,75,o),
(292,33,o),
(211,35,cs),
(136,37,o),
(87,104,o),
(89,197,c),
(48,197,l),
(51,171,o),
(52,104,o),
(51,36,c),
(116,10,o),
(182,-9,o),
(211,-9,cs)
);
}
);
width = 475;
}
);
unicode = 83;
},
{
glyphname = Germandbls;
lastChange = "2025-03-23 19:29:39 +0000";
layers = (
{
anchors = (
{
name = bottom;
pos = (297,0);
},
{
name = top;
pos = (297,616);
}
);
color = 10;
layerId = m005;
shapes = (
{
closed = 1;
nodes = (
(191,0,l),
(191,69,ls),
(191,327,o),
(191,505,o),
(190,499,c),
(189,578,l),
(286,578,l),
(337,616,l),
(152,616,ls),
(106,616,o),
(51,617,o),
(18,619,c),
(18,594,l),
(72,581,o),
(111,551,o),
(111,521,cs),
(111,521,o),
(111,334,o),
(111,69,cs),
(111,53,o),
(72,32,o),
(18,18,c),
(18,0,l)
);
},
{
closed = 1;
nodes = (
(495,-6,o),
(558,50,o),
(558,129,cs),
(558,247,o),
(374,256,o),
(374,334,cs),
(374,415,o),
(496,430,o),
(496,512,cs),
(496,573,o),
(430,616,o),
(337,616,c),
(286,578,l),
(362,578,o),
(411,542,o),
(411,491,cs),
(411,429,o),
(300,415,o),
(300,314,cs),
(300,194,o),
(485,199,o),
(485,108,cs),
(485,53,o),
(455,18,o),
(406,22,cs),
(358,26,o),
(320,67,o),
(314,122,c),
(287,122,l),
(289,106,o),
(289,58,o),
(288,6,c),
(314,-1,o),
(363,-6,o),
(406,-6,cs)
);
}
);
width = 594;
},
{
anchors = (
{
name = bottom;
pos = (297,0);
},
{
name = top;
pos = (297,634);
}
);
color = 10;
layerId = m002;
shapes = (
{
closed = 1;
nodes = (
(191,0,l),
(191,69,ls),
(191,327,o),
(191,505,o),
(190,499,c),
(189,578,l),
(286,578,l),
(337,616,l),
(152,616,ls),
(106,616,o),
(51,617,o),
(18,619,c),
(18,594,l),
(72,581,o),
(111,551,o),
(111,521,cs),
(111,521,o),
(111,334,o),
(111,69,cs),
(111,53,o),
(72,32,o),
(18,18,c),
(18,0,l)
);
},
{
closed = 1;
nodes = (
(495,-6,o),
(558,50,o),
(558,129,cs),
(558,247,o),
(374,256,o),
(374,334,cs),
(374,415,o),
(496,430,o),
(496,512,cs),
(496,573,o),
(430,616,o),
(337,616,c),
(286,578,l),
(362,578,o),
(411,542,o),
(411,491,cs),
(411,429,o),
(300,415,o),
(300,314,cs),
(300,194,o),
(485,199,o),
(485,108,cs),
(485,53,o),
(455,18,o),
(406,22,cs),
(358,26,o),
(320,67,o),
(314,122,c),
(287,122,l),
(289,106,o),
(289,58,o),
(288,6,c),
(314,-1,o),
(363,-6,o),
(406,-6,cs)
);
}
);
width = 594;
},
{
anchors = (
{
name = bottom;
pos = (297,0);
},
{
name = top;
pos = (297,616);
}
);
color = 10;
layerId = m006;
shapes = (
{
closed = 1;
nodes = (
(191,0,l),
(191,69,ls),
(191,327,o),
(191,505,o),
(190,499,c),
(189,578,l),
(286,578,l),
(337,616,l),
(152,616,ls),
(106,616,o),
(51,617,o),
(18,619,c),
(18,594,l),
(72,581,o),
(111,551,o),
(111,521,cs),
(111,521,o),
(111,334,o),
(111,69,cs),
(111,53,o),
(72,32,o),
(18,18,c),
(18,0,l)
);
},
{
closed = 1;
nodes = (
(495,-6,o),
(558,50,o),
(558,129,cs),
(558,247,o),
(374,256,o),
(374,334,cs),
(374,415,o),
(496,430,o),
(496,512,cs),
(496,573,o),
(430,616,o),
(337,616,c),
(286,578,l),
(362,578,o),
(411,542,o),
(411,491,cs),
(411,429,o),
(300,415,o),
(300,314,cs),
(300,194,o),
(485,199,o),
(485,108,cs),
(485,53,o),
(455,18,o),
(406,22,cs),
(358,26,o),
(320,67,o),
(314,122,c),
(287,122,l),
(289,106,o),
(289,58,o),
(288,6,c),
(314,-1,o),
(363,-6,o),
(406,-6,cs)
);
}
);
width = 594;
},
{
anchors = (
{
name = bottom;
pos = (297,0);
},
{
name = top;
pos = (297,616);
}
);
color = 10;
layerId = m007;
shapes = (
{
closed = 1;
nodes = (
(191,0,l),
(191,69,ls),
(191,327,o),
(191,505,o),
(190,499,c),
(189,578,l),
(286,578,l),
(337,616,l),
(152,616,ls),
(106,616,o),
(51,617,o),
(18,619,c),
(18,594,l),
(72,581,o),
(111,551,o),
(111,521,cs),
(111,521,o),
(111,334,o),
(111,69,cs),
(111,53,o),
(72,32,o),
(18,18,c),
(18,0,l)
);
},
{
closed = 1;
nodes = (
(495,-6,o),
(558,50,o),
(558,129,cs),
(558,247,o),
(374,256,o),
(374,334,cs),
(374,415,o),
(496,430,o),
(496,512,cs),
(496,573,o),
(430,616,o),
(337,616,c),
(286,578,l),
(362,578,o),
(411,542,o),
(411,491,cs),
(411,429,o),
(300,415,o),
(300,314,cs),
(300,194,o),
(485,199,o),
(485,108,cs),
(485,53,o),
(455,18,o),
(406,22,cs),
(358,26,o),
(320,67,o),
(314,122,c),
(287,122,l),
(289,106,o),
(289,58,o),
(288,6,c),
(314,-1,o),
(363,-6,o),
(406,-6,cs)
);
}
);
width = 594;
}
);
unicode = 7838;
},
{
glyphname = T;
lastChange = "2025-04-24 16:48:30 +0000";
layers = (
{
anchors = (
{
name = bottom;
pos = (306,0);
},
{
name = center;
pos = (306,308);
},
{
name = top;
pos = (306,616);
}
);
background = {
shapes = (
{
closed = 1;
nodes = (
(196,0,l),
(441,0,l),
(441,18,l),
(395,31,o),
(372,33,o),
(363,52,cs),
(359,60,o),
(358,73,o),
(358,91,cs),
(357,164,o),
(357,237,o),
(356,310,cs),
(355,382,o),
(357,453,o),
(358,525,cs),
(358,561,o),
(364,575,o),
(385,585,cs),
(396,590,o),
(414,591,o),
(441,598,c),
(441,616,l),
(196,616,l),
(196,598,l),
(242,585,o),
(265,583,o),
(274,565,cs),
(278,556,o),
(280,543,o),
(280,525,cs),
(281,454,o),
(282,383,o),
(282,312,cs),
(282,238,o),
(281,165,o),
(280,91,cs),
(280,55,o),
(273,42,o),
(252,32,cs),
(241,27,o),
(223,25,o),
(196,18,c)
);
}
);
};
color = 4;
layerId = m005;
shapes = (
{
closed = 1;
nodes = (
(468,0,l),
(468,28,l),
(393,42,o),
(349,46,o),
(347,100,cs),
(342,262,o),
(342,428,o),
(347,590,c),
(323,561,l),
(387,561,o),
(456,561,o),
(485,561,cs),
(521,561,o),
(568,559,o),
(573,447,c),
(612,451,l),
(611,515,o),
(606,579,o),
(595,643,c),
(583,643,l),
(528,616,l),
(371,613,o),
(218,613,o),
(76,616,c),
(28,653,l),
(20,648,l),
(8,581,o),
(2,515,o),
(0,448,c),
(39,446,l),
(44,561,o),
(79,561,o),
(143,561,cs),
(293,561,l),
(263,590,l),
(265,462,o),
(265,146,o),
(263,100,cs),
(261,54,o),
(220,41,o),
(144,28,c),
(144,0,l)
);
}
);
width = 612;
},
{
anchors = (
{
name = bottom;
pos = (342,0);
},
{
name = center;
pos = (342,317);
},
{
name = top;
pos = (342,634);
}
);
background = {
shapes = (
{
closed = 1;
nodes = (
(468,0,l),
(468,28,l),
(393,42,o),
(349,46,o),
(347,100,cs),
(342,262,o),
(342,428,o),
(347,590,c),
(323,561,l),
(387,561,o),
(456,561,o),
(485,561,cs),
(521,561,o),
(568,559,o),
(573,447,c),
(612,451,l),
(611,515,o),
(606,579,o),
(595,643,c),
(583,643,l),
(528,616,l),
(371,613,o),
(218,613,o),
(76,616,c),
(28,653,l),
(20,648,l),
(8,581,o),
(2,515,o),
(0,448,c),
(39,446,l),
(44,561,o),
(79,561,o),
(143,561,cs),
(293,561,l),
(263,590,l),
(265,462,o),
(265,146,o),
(263,100,cs),
(261,54,o),
(220,41,o),
(144,28,c),
(144,0,l)
);
},
{
closed = 1;
nodes = (
(540,18,l),
(540,46,l),
(465,60,o),
(421,64,o),
(419,118,cs),
(414,280,o),
(414,446,o),
(419,608,c),
(395,579,l),
(459,579,o),
(528,579,o),
(557,579,cs),
(593,579,o),
(640,577,o),
(645,465,c),
(684,469,l),
(683,533,o),
(678,597,o),
(667,661,c),
(655,661,l),
(600,634,l),
(443,631,o),
(290,631,o),
(148,634,c),
(100,671,l),
(92,666,l),
(80,599,o),
(74,533,o),
(72,466,c),
(111,464,l),
(116,579,o),
(151,579,o),
(215,579,cs),
(365,579,l),
(335,608,l),
(337,480,o),
(337,164,o),
(335,118,cs),
(333,72,o),
(292,59,o),
(216,46,c),
(216,18,l)
);
}
);
};
color = 4;
layerId = m002;
shapes = (
{
closed = 1;
nodes = (
(540,0,l),
(540,28,l),
(465,42,o),
(421,46,o),
(419,100,cs),
(414,262,o),
(414,423,o),
(419,608,c),
(395,556,l),
(459,556,o),
(528,556,o),
(557,556,cs),
(575,556,o),
(622,536,o),
(627,442,c),
(684,446,l),
(683,492,o),
(678,556,o),
(667,643,c),
(655,643,l),
(582,634,l),
(425,631,o),
(236,631,o),
(94,634,c),
(28,653,l),
(20,648,l),
(8,558,o),
(2,492,o),
(0,443,c),
(57,441,l),
(62,538,o),
(97,556,o),
(143,556,cs),
(365,556,l),
(263,608,l),
(265,457,o),
(265,146,o),
(263,100,cs),
(261,54,o),
(220,41,o),
(144,28,c),
(144,0,l)
);
}
);
width = 684;
},
{
anchors = (
{
name = bottom;
pos = (306,0);
},
{
name = center;
pos = (306,308);
},
{
name = top;
pos = (306,616);
}
);
background = {
shapes = (
{
closed = 1;
nodes = (
(196,0,l),
(441,0,l),
(441,18,l),
(395,31,o),
(372,33,o),
(363,52,cs),
(359,60,o),
(358,73,o),
(358,91,cs),
(357,164,o),
(357,237,o),
(356,310,cs),
(355,382,o),
(357,453,o),
(358,525,cs),
(358,561,o),
(364,575,o),
(385,585,cs),
(396,590,o),
(414,591,o),
(441,598,c),
(441,616,l),
(196,616,l),
(196,598,l),
(242,585,o),
(265,583,o),
(274,565,cs),
(278,556,o),
(280,543,o),
(280,525,cs),
(281,454,o),
(282,383,o),
(282,312,cs),
(282,238,o),
(281,165,o),
(280,91,cs),
(280,55,o),
(273,42,o),
(252,32,cs),
(241,27,o),
(223,25,o),
(196,18,c)
);
}
);
};
color = 4;
layerId = m006;
shapes = (
{
closed = 1;
nodes = (
(468,0,l),
(468,28,l),
(393,42,o),
(349,46,o),
(347,100,cs),
(342,262,o),
(342,428,o),
(347,590,c),
(323,561,l),
(387,561,o),
(456,561,o),
(485,561,cs),
(521,561,o),
(568,559,o),
(573,447,c),
(612,451,l),
(611,515,o),
(606,579,o),
(595,643,c),
(583,643,l),
(528,616,l),
(371,613,o),
(218,613,o),
(76,616,c),
(28,653,l),
(20,648,l),
(8,581,o),
(2,515,o),
(0,448,c),
(39,446,l),
(44,561,o),
(79,561,o),
(143,561,cs),
(293,561,l),
(263,590,l),
(265,462,o),
(265,146,o),
(263,100,cs),
(261,54,o),
(220,41,o),
(144,28,c),
(144,0,l)
);
}
);
width = 612;
},
{
anchors = (
{
name = bottom;
pos = (306,0);
},
{
name = center;
pos = (306,308);
},
{
name = top;
pos = (306,616);
}
);
background = {
shapes = (
{
closed = 1;
nodes = (
(196,0,l),
(441,0,l),
(441,18,l),
(395,31,o),
(372,33,o),
(363,52,cs),
(359,60,o),
(358,73,o),
(358,91,cs),
(357,164,o),
(357,237,o),
(356,310,cs),
(355,382,o),
(357,453,o),
(358,525,cs),
(358,561,o),
(364,575,o),
(385,585,cs),
(396,590,o),
(414,591,o),
(441,598,c),
(441,616,l),
(196,616,l),
(196,598,l),
(242,585,o),
(265,583,o),
(274,565,cs),
(278,556,o),
(280,543,o),
(280,525,cs),
(281,454,o),
(282,383,o),
(282,312,cs),
(282,238,o),
(281,165,o),
(280,91,cs),
(280,55,o),
(273,42,o),
(252,32,cs),
(241,27,o),
(223,25,o),
(196,18,c)
);
}
);
};
color = 4;
layerId = m007;
shapes = (
{
closed = 1;
nodes = (
(468,0,l),
(468,28,l),
(393,42,o),
(349,46,o),
(347,100,cs),
(342,262,o),
(342,428,o),
(347,590,c),
(323,561,l),
(387,561,o),
(456,561,o),
(485,561,cs),
(521,561,o),
(568,559,o),
(573,447,c),
(612,451,l),
(611,515,o),
(606,579,o),
(595,643,c),
(583,643,l),
(528,616,l),
(371,613,o),
(218,613,o),
(76,616,c),
(28,653,l),
(20,648,l),
(8,581,o),
(2,515,o),
(0,448,c),
(39,446,l),
(44,561,o),
(79,561,o),
(143,561,cs),
(293,561,l),
(263,590,l),
(265,462,o),
(265,146,o),
(263,100,cs),
(261,54,o),
(220,41,o),
(144,28,c),
(144,0,l)
);
}
);
width = 612;
}
);
unicode = 84;
},
{
glyphname = U;
lastChange = "2025-04-24 16:54:05 +0000";
layers = (
{
anchors = (
{
name = bottom;
pos = (342,0);
},
{
name = ogonek;
pos = (482,10);
},
{
name = top;
pos = (360,616);
},
{
name = topright;
pos = (610,544);
}
);
color = 1;
layerId = m005;
shapes = (
{
closed = 1;
nodes = (
(486,-11,o),
(592,78,o),
(594,204,cs),
(596,339,o),
(593,431,o),
(594,514,cs),
(595,578,o),
(618,588,o),
(666,588,c),
(666,616,l),
(468,616,l),
(468,592,l),
(519,582,o),
(551,553,o),
(552,481,cs),
(553,387,o),
(554,303,o),
(552,208,cs),
(550,111,o),
(474,42,o),
(368,42,cs),
(270,42,o),
(189,102,o),
(173,188,cs),
(171,197,o),
(170,327,o),
(170,503,cs),
(170,570,o),
(203,588,o),
(252,592,c),
(252,616,l),
(18,616,l),
(18,585,l),
(48,579,o),
(90,567,o),
(90,511,cs),
(90,486,o),
(90,367,o),
(90,202,cs),
(90,77,o),
(193,-11,o),
(339,-11,cs)
);
}
);
width = 683;
},
{
anchors = (
{
name = bottom;
pos = (353,0);
},
{
name = ogonek;
pos = (648,10);
},
{
name = top;
pos = (353,634);
},
{
name = topright;
pos = (702,634);
}
);
background = {
shapes = (
{
closed = 1;
nodes = (
(470,-11,o),
(576,78,o),
(578,204,cs),
(580,339,o),
(577,431,o),
(578,514,cs),
(579,578,o),
(602,588,o),
(650,588,c),
(650,616,l),
(452,616,l),
(452,592,l),
(503,582,o),
(535,553,o),
(536,481,cs),
(537,387,o),
(538,303,o),
(536,208,cs),
(534,111,o),
(458,42,o),
(352,42,cs),
(254,42,o),
(173,102,o),
(157,188,cs),
(155,197,o),
(154,327,o),
(154,503,cs),
(154,570,o),
(187,588,o),
(236,592,c),
(236,616,l),
(2,616,l),
(2,585,l),
(32,579,o),
(74,567,o),
(74,511,cs),
(74,486,o),
(74,367,o),
(74,202,cs),
(74,77,o),
(177,-11,o),
(323,-11,cs)
);
},
{
closed = 1;
nodes = (
(542,7,o),
(648,96,o),
(650,222,cs),
(652,357,o),
(649,449,o),
(650,532,cs),
(651,596,o),
(674,606,o),
(722,606,c),
(722,634,l),
(524,634,l),
(524,610,l),
(575,600,o),
(607,571,o),
(608,499,cs),
(609,405,o),
(610,321,o),
(608,226,cs),
(606,129,o),
(530,60,o),
(424,60,cs),
(326,60,o),
(245,120,o),
(229,206,cs),
(227,215,o),
(226,345,o),
(226,521,cs),
(226,588,o),
(259,606,o),
(308,610,c),
(308,634,l),
(74,634,l),
(74,603,l),
(104,597,o),
(146,585,o),
(146,529,cs),
(146,504,o),
(146,385,o),
(146,220,cs),
(146,95,o),
(249,7,o),
(395,7,cs)
);
}
);
};
color = 1;
layerId = m002;
shapes = (
{
closed = 1;
nodes = (
(517,-11,o),
(630,86,o),
(632,204,cs),
(634,357,o),
(631,449,o),
(632,532,cs),
(633,596,o),
(656,606,o),
(704,606,c),
(704,634,l),
(488,634,l),
(488,610,l),
(539,600,o),
(571,571,o),
(572,499,cs),
(573,387,o),
(573,256,o),
(572,208,cs),
(570,118,o),
(494,42,o),
(395,42,c),
(295,42,o),
(239,110,o),
(229,188,cs),
(225,216,o),
(226,344,o),
(226,521,cs),
(226,588,o),
(259,606,o),
(308,610,c),
(308,634,l),
(2,634,l),
(2,603,l),
(32,597,o),
(74,585,o),
(74,529,cs),
(74,504,o),
(71,385,o),
(74,202,cs),
(76,85,o),
(174,-11,o),
(359,-11,cs)
);
}
);
width = 706;
},
{
anchors = (
{
name = bottom;
pos = (357,0);
},
{
name = ogonek;
pos = (497,10);
},
{
name = top;
pos = (375,616);
},
{
name = topright;
pos = (625,544);
}
);
color = 1;
layerId = m006;
shapes = (
{
closed = 1;
nodes = (
(501,-11,o),
(607,78,o),
(609,204,cs),
(611,339,o),
(608,431,o),
(609,514,cs),
(610,578,o),
(633,588,o),
(681,588,c),
(681,616,l),
(483,616,l),
(483,592,l),
(534,582,o),
(566,553,o),
(567,481,cs),
(568,387,o),
(569,303,o),
(567,208,cs),
(565,111,o),
(489,42,o),
(383,42,cs),
(285,42,o),
(204,102,o),
(188,188,cs),
(186,197,o),
(185,327,o),
(185,503,cs),
(185,570,o),
(218,588,o),
(267,592,c),
(267,616,l),
(33,616,l),
(33,585,l),
(63,579,o),
(105,567,o),
(105,511,cs),
(105,486,o),
(105,367,o),
(105,202,cs),
(105,77,o),
(208,-11,o),
(354,-11,cs)
);
}
);
width = 713;
},
{
anchors = (
{
name = bottom;
pos = (332,0);
},
{
name = ogonek;
pos = (472,10);
},
{
name = top;
pos = (350,616);
},
{
name = topright;
pos = (600,544);
}
);
color = 1;
layerId = m007;
shapes = (
{
closed = 1;
nodes = (
(476,-11,o),
(582,78,o),
(584,204,cs),
(586,339,o),
(583,431,o),
(584,514,cs),
(585,578,o),
(608,588,o),
(656,588,c),
(656,616,l),
(458,616,l),
(458,592,l),
(509,582,o),
(541,553,o),
(542,481,cs),
(543,387,o),
(544,303,o),
(542,208,cs),
(540,111,o),
(464,42,o),
(358,42,cs),
(260,42,o),
(179,102,o),
(163,188,cs),
(161,197,o),
(160,327,o),
(160,503,cs),
(160,570,o),
(193,588,o),
(242,592,c),
(242,616,l),
(8,616,l),
(8,585,l),
(38,579,o),
(80,567,o),
(80,511,cs),
(80,486,o),
(80,367,o),
(80,202,cs),
(80,77,o),
(183,-11,o),
(329,-11,cs)
);
}
);
width = 663;
}
);
unicode = 85;
},
{
glyphname = V;
lastChange = "2025-04-24 16:48:30 +0000";
layers = (
{
anchors = (
{
name = bottom;
pos = (349,0);
},
{
name = top;
pos = (390,616);
}
);
color = 4;
layerId = m005;
shapes = (
{
closed = 1;
nodes = (
(351,-24,l),
(420,153,o),
(550,444,o),
(577,505,cs),
(604,566,o),
(640,579,o),
(702,588,c),
(702,616,l),
(452,616,l),
(452,593,l),
(503,586,o),
(538,573,o),
(538,543,cs),
(538,521,o),
(525,488,o),
(510,452,cs),
(349,70,l),
(378,93,l),
(319,227,o),
(221,480,o),
(214,496,cs),
(207,512,o),
(202,528,o),
(202,543,cs),
(202,558,o),
(202,582,o),
(288,591,c),
(288,616,l),
(0,616,l),
(0,588,l),
(48,580,o),
(94,571,o),
(128,489,cs),
(338,-24,l)
);
}
);
width = 702;
},
{
anchors = (
{
name = bottom;
pos = (360,0);
},
{
name = top;
pos = (360,634);
}
);
background = {
shapes = (
{
closed = 1;
nodes = (
(333,-24,l),
(402,153,o),
(532,444,o),
(559,505,cs),
(586,566,o),
(622,579,o),
(684,588,c),
(684,616,l),
(434,616,l),
(434,593,l),
(485,586,o),
(520,573,o),
(520,543,cs),
(520,521,o),
(507,488,o),
(492,452,cs),
(331,70,l),
(360,93,l),
(301,227,o),
(203,480,o),
(196,496,cs),
(189,512,o),
(184,528,o),
(184,543,cs),
(184,558,o),
(184,582,o),
(270,591,c),
(270,616,l),
(-18,616,l),
(-18,588,l),
(30,580,o),
(76,571,o),
(110,489,cs),
(320,-24,l)
);
},
{
closed = 1;
nodes = (
(405,-6,l),
(474,171,o),
(604,462,o),
(631,523,cs),
(658,584,o),
(694,597,o),
(756,606,c),
(756,634,l),
(506,634,l),
(506,611,l),
(557,604,o),
(592,591,o),
(592,561,cs),
(592,539,o),
(579,506,o),
(564,470,cs),
(403,88,l),
(432,111,l),
(373,245,o),
(275,498,o),
(268,514,cs),
(261,530,o),
(256,546,o),
(256,561,cs),
(256,576,o),
(256,600,o),
(342,609,c),
(342,634,l),
(54,634,l),
(54,606,l),
(102,598,o),
(148,589,o),
(182,507,cs),
(392,-6,l)
);
}
);
};
color = 4;
layerId = m002;
shapes = (
{
closed = 1;
nodes = (
(387,-24,l),
(456,153,o),
(586,462,o),
(613,523,cs),
(640,584,o),
(676,597,o),
(720,606,c),
(720,634,l),
(452,634,l),
(452,611,l),
(503,604,o),
(538,591,o),
(538,561,cs),
(538,539,o),
(525,506,o),
(510,470,cs),
(349,70,l),
(432,93,l),
(373,227,o),
(275,498,o),
(268,514,cs),
(261,530,o),
(256,546,o),
(256,561,cs),
(256,576,o),
(256,600,o),
(342,609,c),
(342,634,l),
(0,634,l),
(0,606,l),
(30,598,o),
(76,589,o),
(109,507,cs),
(320,-24,l)
);
}
);
width = 720;
},
{
anchors = (
{
name = bottom;
pos = (349,0);
},
{
name = top;
pos = (390,616);
}
);
color = 4;
layerId = m006;
shapes = (
{
closed = 1;
nodes = (
(351,-24,l),
(420,153,o),
(550,444,o),
(577,505,cs),
(604,566,o),
(640,579,o),
(702,588,c),
(702,616,l),
(452,616,l),
(452,593,l),
(503,586,o),
(538,573,o),
(538,543,cs),
(538,521,o),
(525,488,o),
(510,452,cs),
(349,70,l),
(378,93,l),
(319,227,o),
(221,480,o),
(214,496,cs),
(207,512,o),
(202,528,o),
(202,543,cs),
(202,558,o),
(202,582,o),
(288,591,c),
(288,616,l),
(0,616,l),
(0,588,l),
(48,580,o),
(94,571,o),
(128,489,cs),
(338,-24,l)
);
}
);
width = 702;
},
{
anchors = (
{
name = bottom;
pos = (349,0);
},
{
name = top;
pos = (390,616);
}
);
color = 4;
layerId = m007;
shapes = (
{
closed = 1;
nodes = (
(351,-24,l),
(420,153,o),
(550,444,o),
(577,505,cs),
(604,566,o),
(640,579,o),
(702,588,c),
(702,616,l),
(452,616,l),
(452,593,l),
(503,586,o),
(538,573,o),
(538,543,cs),
(538,521,o),
(525,488,o),
(510,452,cs),
(349,70,l),
(378,93,l),
(319,227,o),
(221,480,o),
(214,496,cs),
(207,512,o),
(202,528,o),
(202,543,cs),
(202,558,o),
(202,582,o),
(288,591,c),
(288,616,l),
(0,616,l),
(0,588,l),
(48,580,o),
(94,571,o),
(128,489,cs),
(338,-24,l)
);
}
);
width = 702;
}
);
unicode = 86;
},
{
glyphname = Vhook;
lastChange = "2025-03-23 19:29:39 +0000";
layers = (
{
anchors = (
{
name = bottom;
pos = (310,0);
},
{
name = top;
pos = (310,616);
}
);
background = {
shapes = (
{
closed = 1;
nodes = (
(368,42,l),
(255,42,o),
(191,89,o),
(173,186,cs),
(169,208,o),
(170,294,o),
(170,503,cs),
(170,570,o),
(203,588,o),
(252,592,c),
(252,616,l),
(18,616,l),
(18,585,l),
(48,579,o),
(90,567,o),
(90,511,cs),
(90,486,o),
(90,365,o),
(90,200,cs),
(90,58,o),
(172,-11,o),
(339,-11,c)
);
}
);
};
layerId = m005;
shapes = (
{
closed = 1;
nodes = (
(368,588,l),
(372,592,o),
(381,594,o),
(391,594,cs),
(446,594,o),
(485,471,o),
(485,297,c),
(576,332,l),
(576,504,o),
(511,626,o),
(418,626,cs),
(397,626,o),
(374,618,o),
(362,607,c)
);
},
{
closed = 1;
nodes = (
(485,297,l),
(482,141,o),
(425,30,o),
(332,30,cs),
(249,30,o),
(173,110,o),
(173,222,cs),
(173,244,o),
(170,294,o),
(170,503,cs),
(170,570,o),
(203,588,o),
(252,592,c),
(252,616,l),
(18,616,l),
(18,585,l),
(48,579,o),
(90,567,o),
(90,511,cs),
(90,486,o),
(90,401,o),
(90,236,cs),
(90,91,o),
(189,-11,o),
(303,-11,cs),
(471,-11,o),
(573,131,o),
(576,332,c)
);
}
);
width = 630;
},
{
anchors = (
{
name = bottom;
pos = (315,0);
},
{
name = top;
pos = (315,634);
}
);
background = {
shapes = (
{
closed = 1;
nodes = (
(368,42,l),
(255,42,o),
(191,89,o),
(173,186,cs),
(169,208,o),
(170,294,o),
(170,503,cs),
(170,570,o),
(203,588,o),
(252,592,c),
(252,616,l),
(18,616,l),
(18,585,l),
(48,579,o),
(90,567,o),
(90,511,cs),
(90,486,o),
(90,365,o),
(90,200,cs),
(90,58,o),
(172,-11,o),
(339,-11,c)
);
}
);
};
layerId = m002;
shapes = (
{
closed = 1;
nodes = (
(368,588,l),
(372,592,o),
(381,594,o),
(391,594,cs),
(446,594,o),
(485,471,o),
(485,297,c),
(576,332,l),
(576,504,o),
(511,626,o),
(418,626,cs),
(397,626,o),
(374,618,o),
(362,607,c)
);
},
{
closed = 1;
nodes = (
(485,297,l),
(482,141,o),
(425,30,o),
(332,30,cs),
(249,30,o),
(173,110,o),
(173,222,cs),
(173,244,o),
(170,294,o),
(170,503,cs),
(170,570,o),
(203,588,o),
(252,592,c),
(252,616,l),
(18,616,l),
(18,585,l),
(48,579,o),
(90,567,o),
(90,511,cs),
(90,486,o),
(90,401,o),
(90,236,cs),
(90,91,o),
(189,-11,o),
(303,-11,cs),
(471,-11,o),
(573,131,o),
(576,332,c)
);
}
);
width = 630;
},
{
anchors = (
{
name = bottom;
pos = (310,0);
},
{
name = top;
pos = (310,616);
}
);
background = {
shapes = (
{
closed = 1;
nodes = (
(368,42,l),
(255,42,o),
(191,89,o),
(173,186,cs),
(169,208,o),
(170,294,o),
(170,503,cs),
(170,570,o),
(203,588,o),
(252,592,c),
(252,616,l),
(18,616,l),
(18,585,l),
(48,579,o),
(90,567,o),
(90,511,cs),
(90,486,o),
(90,365,o),
(90,200,cs),
(90,58,o),
(172,-11,o),
(339,-11,c)
);
}
);
};
layerId = m006;
shapes = (
{
closed = 1;
nodes = (
(368,588,l),
(372,592,o),
(381,594,o),
(391,594,cs),
(446,594,o),
(485,471,o),
(485,297,c),
(576,332,l),
(576,504,o),
(511,626,o),
(418,626,cs),
(397,626,o),
(374,618,o),
(362,607,c)
);
},
{
closed = 1;
nodes = (
(485,297,l),
(482,141,o),
(425,30,o),
(332,30,cs),
(249,30,o),
(173,110,o),
(173,222,cs),
(173,244,o),
(170,294,o),
(170,503,cs),
(170,570,o),
(203,588,o),
(252,592,c),
(252,616,l),
(18,616,l),
(18,585,l),
(48,579,o),
(90,567,o),
(90,511,cs),
(90,486,o),
(90,401,o),
(90,236,cs),
(90,91,o),
(189,-11,o),
(303,-11,cs),
(471,-11,o),
(573,131,o),
(576,332,c)
);
}
);
width = 630;
},
{
anchors = (
{
name = bottom;
pos = (310,0);
},
{
name = top;
pos = (310,616);
}
);
background = {
shapes = (
{
closed = 1;
nodes = (
(368,42,l),
(255,42,o),
(191,89,o),
(173,186,cs),
(169,208,o),
(170,294,o),
(170,503,cs),
(170,570,o),
(203,588,o),
(252,592,c),
(252,616,l),
(18,616,l),
(18,585,l),
(48,579,o),
(90,567,o),
(90,511,cs),
(90,486,o),
(90,365,o),
(90,200,cs),
(90,58,o),
(172,-11,o),
(339,-11,c)
);
}
);
};
layerId = m007;
shapes = (
{
closed = 1;
nodes = (
(368,588,l),
(372,592,o),
(381,594,o),
(391,594,cs),
(446,594,o),
(485,471,o),
(485,297,c),
(576,332,l),
(576,504,o),
(511,626,o),
(418,626,cs),
(397,626,o),
(374,618,o),
(362,607,c)
);
},
{
closed = 1;
nodes = (
(485,297,l),
(482,141,o),
(425,30,o),
(332,30,cs),
(249,30,o),
(173,110,o),
(173,222,cs),
(173,244,o),
(170,294,o),
(170,503,cs),
(170,570,o),
(203,588,o),
(252,592,c),
(252,616,l),
(18,616,l),
(18,585,l),
(48,579,o),
(90,567,o),
(90,511,cs),
(90,486,o),
(90,401,o),
(90,236,cs),
(90,91,o),
(189,-11,o),
(303,-11,cs),
(471,-11,o),
(573,131,o),
(576,332,c)
);
}
);
width = 630;
}
);
unicode = 434;
},
{
glyphname = W;
lastChange = "2025-04-24 16:48:30 +0000";
layers = (
{
anchors = (
{
name = bottom;
pos = (468,0);
},
{
name = top;
pos = (468,616);
}
);
color = 4;
layerId = m005;
shapes = (
{
closed = 1;
nodes = (
(321,-24,l),
(363,108,o),
(463,321,o),
(505,438,c),
(482,487,l),
(312,75,l),
(344,98,l),
(194,496,ls),
(169,562,o),
(150,582,o),
(234,591,c),
(234,616,l),
(0,616,l),
(0,588,l),
(30,579,o),
(78,572,o),
(110,489,cs),
(308,-24,l)
);
},
{
closed = 1;
nodes = (
(639,-24,l),
(706,153,o),
(825,444,o),
(848,505,cs),
(871,566,o),
(871,576,o),
(936,588,c),
(936,616,l),
(738,616,l),
(738,591,l),
(822,570,o),
(818,533,o),
(785,452,cs),
(632,70,l),
(667,99,l),
(618,233,o),
(534,480,o),
(529,496,cs),
(505,572,o),
(507,582,o),
(574,591,c),
(574,616,l),
(340,616,l),
(340,591,l),
(386,584,o),
(418,572,o),
(447,489,cs),
(626,-24,l)
);
}
);
width = 936;
},
{
anchors = (
{
name = bottom;
pos = (513,0);
},
{
name = top;
pos = (513,634);
}
);
background = {
anchors = (
{
name = bottom;
pos = (531,18);
},
{
name = top;
pos = (531,634);
}
);
shapes = (
{
closed = 1;
nodes = (
(482,487,l),
(312,75,l),
(344,98,l),
(194,496,ls),
(169,562,o),
(150,582,o),
(234,591,c),
(234,616,l),
(0,616,l),
(0,588,l),
(30,579,o),
(78,572,o),
(110,489,cs),
(308,-24,l),
(321,-24,l),
(363,108,o),
(463,321,o),
(505,438,c)
);
},
{
closed = 1;
nodes = (
(639,-24,l),
(706,153,o),
(825,444,o),
(848,505,cs),
(871,566,o),
(871,576,o),
(936,588,c),
(936,616,l),
(738,616,l),
(738,591,l),
(822,570,o),
(818,533,o),
(785,452,cs),
(632,70,l),
(667,99,l),
(618,233,o),
(534,480,o),
(529,496,cs),
(505,572,o),
(507,582,o),
(574,591,c),
(574,616,l),
(340,616,l),
(340,591,l),
(386,584,o),
(418,572,o),
(447,489,cs),
(626,-24,l)
);
},
{
closed = 1;
nodes = (
(554,505,l),
(384,93,l),
(416,116,l),
(266,514,ls),
(241,580,o),
(222,600,o),
(306,609,c),
(306,634,l),
(72,634,l),
(72,606,l),
(102,597,o),
(150,590,o),
(182,507,cs),
(380,-6,l),
(393,-6,l),
(435,126,o),
(535,339,o),
(577,456,c)
);
},
{
closed = 1;
nodes = (
(711,-6,l),
(778,171,o),
(897,462,o),
(920,523,cs),
(943,584,o),
(943,594,o),
(1008,606,c),
(1008,634,l),
(810,634,l),
(810,609,l),
(894,588,o),
(890,551,o),
(857,470,cs),
(704,88,l),
(739,117,l),
(690,251,o),
(606,498,o),
(601,514,cs),
(577,590,o),
(579,600,o),
(646,609,c),
(646,634,l),
(412,634,l),
(412,609,l),
(458,602,o),
(490,590,o),
(519,507,cs),
(698,-6,l)
);
}
);
};
color = 4;
layerId = m002;
shapes = (
{
closed = 1;
nodes = (
(387,-24,l),
(436,101,o),
(515,293,o),
(567,416,c),
(513,477,l),
(349,70,l),
(432,93,l),
(268,514,l),
(249,558,o),
(252,594,o),
(306,609,c),
(306,634,l),
(0,634,l),
(0,606,l),
(30,598,o),
(76,589,o),
(109,507,cs),
(320,-24,l)
);
},
{
closed = 1;
nodes = (
(703,-24,l),
(772,153,o),
(902,462,o),
(929,523,cs),
(956,584,o),
(992,597,o),
(1026,606,c),
(1026,634,l),
(768,634,l),
(768,611,l),
(873,597,o),
(867,568,o),
(826,470,cs),
(665,70,l),
(748,93,l),
(689,227,o),
(609,498,o),
(602,514,cs),
(574,579,o),
(592,600,o),
(676,609,c),
(676,634,l),
(360,634,l),
(360,606,l),
(382,598,o),
(413,590,o),
(443,507,cs),
(636,-24,l)
);
}
);
width = 1026;
},
{
anchors = (
{
name = bottom;
pos = (468,0);
},
{
name = top;
pos = (468,616);
}
);
color = 4;
layerId = m006;
shapes = (
{
closed = 1;
nodes = (
(321,-24,l),
(363,108,o),
(463,321,o),
(505,438,c),
(482,487,l),
(312,75,l),
(344,98,l),
(194,496,ls),
(169,562,o),
(150,582,o),
(234,591,c),
(234,616,l),
(0,616,l),
(0,588,l),
(30,579,o),
(78,572,o),
(110,489,cs),
(308,-24,l)
);
},
{
closed = 1;
nodes = (
(639,-24,l),
(706,153,o),
(825,444,o),
(848,505,cs),
(871,566,o),
(871,576,o),
(936,588,c),
(936,616,l),
(738,616,l),
(738,591,l),
(822,570,o),
(818,533,o),
(785,452,cs),
(632,70,l),
(667,99,l),
(618,233,o),
(534,480,o),
(529,496,cs),
(505,572,o),
(507,582,o),
(574,591,c),
(574,616,l),
(340,616,l),
(340,591,l),
(386,584,o),
(418,572,o),
(447,489,cs),
(626,-24,l)
);
}
);
width = 936;
},
{
anchors = (
{
name = bottom;
pos = (468,0);
},
{
name = top;
pos = (468,616);
}
);
color = 4;
layerId = m007;
shapes = (
{
closed = 1;
nodes = (
(321,-24,l),
(363,108,o),
(463,321,o),
(505,438,c),
(482,487,l),
(312,75,l),
(344,98,l),
(194,496,ls),
(169,562,o),
(150,582,o),
(234,591,c),
(234,616,l),
(0,616,l),
(0,588,l),
(30,579,o),
(78,572,o),
(110,489,cs),
(308,-24,l)
);
},
{
closed = 1;
nodes = (
(639,-24,l),
(706,153,o),
(825,444,o),
(848,505,cs),
(871,566,o),
(871,576,o),
(936,588,c),
(936,616,l),
(738,616,l),
(738,591,l),
(822,570,o),
(818,533,o),
(785,452,cs),
(632,70,l),
(667,99,l),
(618,233,o),
(534,480,o),
(529,496,cs),
(505,572,o),
(507,582,o),
(574,591,c),
(574,616,l),
(340,616,l),
(340,591,l),
(386,584,o),
(418,572,o),
(447,489,cs),
(626,-24,l)
);
}
);
width = 936;
}
);
unicode = 87;
},
